%TF.GenerationSoftware,Altium Limited,Altium Designer,20.1.14 (287)*%
G04 Layer_Color=16711935*
%FSLAX25Y25*%
%MOIN*%
%TF.SameCoordinates,420D9B4C-C7A0-47ED-81AF-82C992674030*%
%TF.FilePolarity,Negative*%
%TF.FileFunction,Soldermask,Bot*%
%TF.Part,Single*%
G01*
G75*
%TA.AperFunction,NonConductor*%
%ADD64R,0.10000X0.25000*%
%TA.AperFunction,SMDPad,CuDef*%
%ADD65R,0.06312X0.04934*%
%ADD66R,0.04934X0.06312*%
G04:AMPARAMS|DCode=67|XSize=63.12mil|YSize=49.34mil|CornerRadius=0mil|HoleSize=0mil|Usage=FLASHONLY|Rotation=45.000|XOffset=0mil|YOffset=0mil|HoleType=Round|Shape=Rectangle|*
%AMROTATEDRECTD67*
4,1,4,-0.00487,-0.03976,-0.03976,-0.00487,0.00487,0.03976,0.03976,0.00487,-0.00487,-0.03976,0.0*
%
%ADD67ROTATEDRECTD67*%

G04:AMPARAMS|DCode=68|XSize=63.12mil|YSize=49.34mil|CornerRadius=0mil|HoleSize=0mil|Usage=FLASHONLY|Rotation=315.000|XOffset=0mil|YOffset=0mil|HoleType=Round|Shape=Rectangle|*
%AMROTATEDRECTD68*
4,1,4,-0.03976,0.00487,-0.00487,0.03976,0.03976,-0.00487,0.00487,-0.03976,-0.03976,0.00487,0.0*
%
%ADD68ROTATEDRECTD68*%

%TA.AperFunction,ComponentPad*%
%ADD69C,0.12808*%
%ADD70C,0.07119*%
%ADD71R,0.07119X0.07119*%
%ADD72C,0.05800*%
%ADD73C,0.06800*%
%ADD74R,0.12800X0.12800*%
%ADD75C,0.12800*%
%ADD76R,0.06800X0.06800*%
%ADD77O,0.10700X0.27100*%
%ADD78C,0.15800*%
%ADD79C,0.11784*%
%ADD80C,0.00800*%
%ADD81C,0.07217*%
%ADD82C,0.06698*%
%ADD83R,0.06824X0.06824*%
%ADD84C,0.06824*%
%ADD85C,0.12611*%
%ADD86C,0.04600*%
%ADD87R,0.04600X0.04600*%
%ADD88C,0.06902*%
%ADD89R,0.06902X0.06902*%
%TA.AperFunction,ViaPad*%
%ADD90C,0.05800*%
%ADD91C,0.24800*%
D64*
X92322Y178028D02*
D03*
D65*
X403000Y218260D02*
D03*
Y225740D02*
D03*
X65000Y80480D02*
D03*
Y73000D02*
D03*
X540500Y219760D02*
D03*
Y227240D02*
D03*
X316500Y281500D02*
D03*
Y274020D02*
D03*
X294500D02*
D03*
Y281500D02*
D03*
X220500Y409760D02*
D03*
Y417240D02*
D03*
X278000Y274020D02*
D03*
Y281500D02*
D03*
X695000Y226740D02*
D03*
Y219260D02*
D03*
X158000Y421240D02*
D03*
Y413760D02*
D03*
X166500Y421240D02*
D03*
Y413760D02*
D03*
X149500Y421240D02*
D03*
Y413760D02*
D03*
X141500Y421240D02*
D03*
Y413760D02*
D03*
X216500Y290760D02*
D03*
Y298240D02*
D03*
X60000Y436520D02*
D03*
Y444000D02*
D03*
X174000Y270240D02*
D03*
Y262760D02*
D03*
X115000Y30760D02*
D03*
Y38240D02*
D03*
X139000Y109520D02*
D03*
Y117000D02*
D03*
X112000Y225240D02*
D03*
Y217760D02*
D03*
D66*
X442260Y287000D02*
D03*
X449740D02*
D03*
X423260D02*
D03*
X430740D02*
D03*
X401260D02*
D03*
X408740D02*
D03*
X248240Y410500D02*
D03*
X240760D02*
D03*
X570291Y237366D02*
D03*
X577772D02*
D03*
X577772Y245634D02*
D03*
X570291D02*
D03*
X430980Y244000D02*
D03*
X423500D02*
D03*
X423760Y235500D02*
D03*
X431240D02*
D03*
X296683Y249683D02*
D03*
X289203D02*
D03*
X289183Y241183D02*
D03*
X296663D02*
D03*
X443240Y322500D02*
D03*
X435760D02*
D03*
X443240Y314500D02*
D03*
X435760D02*
D03*
X435760Y339000D02*
D03*
X443240D02*
D03*
X443480Y331000D02*
D03*
X436000D02*
D03*
X434020Y364000D02*
D03*
X441500D02*
D03*
X338480Y312000D02*
D03*
X331000D02*
D03*
D67*
X204855Y315645D02*
D03*
X210145Y310355D02*
D03*
D68*
X227645Y315145D02*
D03*
X222355Y309855D02*
D03*
D69*
X20856Y313819D02*
D03*
Y368895D02*
D03*
Y180093D02*
D03*
Y125017D02*
D03*
X702644Y447500D02*
D03*
Y398594D02*
D03*
Y346500D02*
D03*
D70*
X49675Y319724D02*
D03*
Y307913D02*
D03*
X37864Y319724D02*
D03*
Y374800D02*
D03*
X49675Y362989D02*
D03*
Y374800D02*
D03*
Y185998D02*
D03*
Y174187D02*
D03*
X37864Y185998D02*
D03*
X49675Y130923D02*
D03*
Y119112D02*
D03*
X37864Y130923D02*
D03*
X685636Y441595D02*
D03*
X673825Y453406D02*
D03*
Y441595D02*
D03*
X685636Y392689D02*
D03*
X673825Y404500D02*
D03*
Y392689D02*
D03*
X685636Y340595D02*
D03*
X673825Y352406D02*
D03*
Y340595D02*
D03*
D71*
X37864Y307913D02*
D03*
Y362989D02*
D03*
Y174187D02*
D03*
Y119112D02*
D03*
X685636Y453406D02*
D03*
Y404500D02*
D03*
Y352406D02*
D03*
D72*
X200000Y122000D02*
D03*
X162500Y121500D02*
D03*
D73*
X325500Y171500D02*
D03*
Y191200D02*
D03*
X392000Y214700D02*
D03*
X382000Y234700D02*
D03*
X372000D02*
D03*
X362000D02*
D03*
X352000D02*
D03*
X342000D02*
D03*
X332000D02*
D03*
X322000D02*
D03*
Y124700D02*
D03*
X332000D02*
D03*
X342000D02*
D03*
X352000D02*
D03*
X362000D02*
D03*
X372000D02*
D03*
X149500Y170000D02*
D03*
X452500Y416500D02*
D03*
X242000Y113500D02*
D03*
X472500Y416500D02*
D03*
X563000Y47500D02*
D03*
X85500Y275500D02*
D03*
X614500Y173500D02*
D03*
Y193200D02*
D03*
X681000Y216700D02*
D03*
X671000Y236700D02*
D03*
X661000D02*
D03*
X651000D02*
D03*
X641000D02*
D03*
X631000D02*
D03*
X621000D02*
D03*
X611000D02*
D03*
Y126700D02*
D03*
X621000D02*
D03*
X631000D02*
D03*
X641000D02*
D03*
X651000D02*
D03*
X661000D02*
D03*
X254500Y373000D02*
D03*
X242000Y374000D02*
D03*
X659000Y256000D02*
D03*
X509500Y255000D02*
D03*
X382000Y256500D02*
D03*
X371000Y254000D02*
D03*
X668000Y256000D02*
D03*
X638500Y352500D02*
D03*
Y390000D02*
D03*
X641000Y420500D02*
D03*
X87000Y414500D02*
D03*
X87500Y432000D02*
D03*
X99500Y84500D02*
D03*
Y102000D02*
D03*
X85000Y251500D02*
D03*
X284000Y306000D02*
D03*
X369500Y321500D02*
D03*
X370000Y341500D02*
D03*
X335500Y283500D02*
D03*
X632500Y278000D02*
D03*
X343472Y421500D02*
D03*
X402528D02*
D03*
X519000Y254500D02*
D03*
X510500Y126200D02*
D03*
X500500D02*
D03*
X490500D02*
D03*
X480500D02*
D03*
X470500D02*
D03*
X460500D02*
D03*
Y236200D02*
D03*
X470500D02*
D03*
X480500D02*
D03*
X490500D02*
D03*
X500500D02*
D03*
X510500D02*
D03*
X520500D02*
D03*
X530500Y216200D02*
D03*
X464000Y192700D02*
D03*
Y173000D02*
D03*
X197000Y59500D02*
D03*
Y49500D02*
D03*
Y39500D02*
D03*
Y29500D02*
D03*
Y19500D02*
D03*
X155000D02*
D03*
X193000Y75500D02*
D03*
X141000Y23500D02*
D03*
D74*
X386500Y118700D02*
D03*
X675500Y120700D02*
D03*
X525000Y120200D02*
D03*
D75*
X366800Y118700D02*
D03*
X347100D02*
D03*
X327400D02*
D03*
X655800Y120700D02*
D03*
X636100D02*
D03*
X616400D02*
D03*
X465900Y120200D02*
D03*
X485600D02*
D03*
X505300D02*
D03*
D76*
X392000Y224700D02*
D03*
Y234700D02*
D03*
X382000Y124700D02*
D03*
X392000D02*
D03*
X681000Y226700D02*
D03*
Y236700D02*
D03*
X671000Y126700D02*
D03*
X681000D02*
D03*
X530500Y126200D02*
D03*
X520500D02*
D03*
X530500Y236200D02*
D03*
Y226200D02*
D03*
D77*
X272400Y76000D02*
D03*
X243000D02*
D03*
D78*
X291000Y18500D02*
D03*
X223500D02*
D03*
D79*
X372000Y68500D02*
D03*
Y81020D02*
D03*
X342512Y68500D02*
D03*
Y81020D02*
D03*
X480000Y82520D02*
D03*
Y70000D02*
D03*
X509488Y82520D02*
D03*
Y70000D02*
D03*
X660000Y70500D02*
D03*
Y83020D02*
D03*
X630512Y70500D02*
D03*
Y83020D02*
D03*
D80*
X323811Y67516D02*
D03*
X390701D02*
D03*
X528189Y69016D02*
D03*
X461299D02*
D03*
X611811Y69516D02*
D03*
X678701D02*
D03*
X702500Y290000D02*
D03*
X21000Y430500D02*
D03*
Y72500D02*
D03*
D81*
X685492Y278189D02*
D03*
Y290000D02*
D03*
Y301811D02*
D03*
X673681D02*
D03*
Y290000D02*
D03*
Y278189D02*
D03*
X38008Y442311D02*
D03*
Y430500D02*
D03*
Y418689D02*
D03*
X49819D02*
D03*
Y430500D02*
D03*
Y442311D02*
D03*
X38008Y84311D02*
D03*
Y72500D02*
D03*
Y60689D02*
D03*
X49819D02*
D03*
Y72500D02*
D03*
Y84311D02*
D03*
D82*
X83142Y233795D02*
D03*
Y208205D02*
D03*
X100858D02*
D03*
Y233795D02*
D03*
D83*
X37689Y268500D02*
D03*
X37864Y226057D02*
D03*
D84*
X49500Y268500D02*
D03*
X49675Y226057D02*
D03*
D85*
X20681Y268500D02*
D03*
X20856Y226057D02*
D03*
D86*
X89823Y188028D02*
D03*
X94823D02*
D03*
X89823Y183028D02*
D03*
X94823D02*
D03*
X89823Y178028D02*
D03*
X94823D02*
D03*
X89823Y173028D02*
D03*
X94823D02*
D03*
X89823Y168028D02*
D03*
D87*
X94823D02*
D03*
D88*
X187000Y195000D02*
D03*
Y205000D02*
D03*
Y215000D02*
D03*
Y225000D02*
D03*
X208000Y406000D02*
D03*
Y396000D02*
D03*
D89*
X187000Y235000D02*
D03*
X208000Y416000D02*
D03*
D90*
X475500Y314500D02*
D03*
X305500Y283500D02*
D03*
X539000Y282500D02*
D03*
X470500Y301500D02*
D03*
X511000Y282000D02*
D03*
X510500Y290000D02*
D03*
X265000Y249500D02*
D03*
X139500Y36500D02*
D03*
X190500Y151500D02*
D03*
X416514Y348000D02*
D03*
X430500Y346000D02*
D03*
X557000Y253500D02*
D03*
X227500Y289000D02*
D03*
X216500Y324500D02*
D03*
X61000Y408500D02*
D03*
X71000Y383500D02*
D03*
X72000Y349000D02*
D03*
X120514Y328486D02*
D03*
X114500Y148000D02*
D03*
X275000Y297000D02*
D03*
X125000Y223000D02*
D03*
X326000Y273000D02*
D03*
X267500Y282500D02*
D03*
X325500Y281500D02*
D03*
X285000Y274500D02*
D03*
X304500Y276000D02*
D03*
X286500Y286500D02*
D03*
X218889Y373389D02*
D03*
X215000Y369500D02*
D03*
X425500Y273500D02*
D03*
X418000Y304500D02*
D03*
X308000Y369500D02*
D03*
X279000Y333000D02*
D03*
X277465Y339535D02*
D03*
X281500Y370500D02*
D03*
X240000Y328000D02*
D03*
X248500Y428000D02*
D03*
X245000Y399000D02*
D03*
X218500Y425000D02*
D03*
X142000Y384500D02*
D03*
X150000Y385500D02*
D03*
X158500Y386500D02*
D03*
X166500Y387000D02*
D03*
X391000Y311500D02*
D03*
X424000Y325000D02*
D03*
X467000Y315000D02*
D03*
X471000Y329000D02*
D03*
X423500Y362000D02*
D03*
X453000Y364000D02*
D03*
X216626Y251000D02*
D03*
X211126D02*
D03*
X205626D02*
D03*
X353000Y311000D02*
D03*
X318055Y311555D02*
D03*
X137000Y402500D02*
D03*
X166500Y442000D02*
D03*
X158000D02*
D03*
X149500Y442000D02*
D03*
X141500Y437000D02*
D03*
X116436Y178028D02*
D03*
X216500Y305000D02*
D03*
X131020Y109520D02*
D03*
X148866Y108866D02*
D03*
X130500Y117000D02*
D03*
X123634Y38634D02*
D03*
X243000Y173500D02*
D03*
X522000Y272400D02*
D03*
X489500Y275000D02*
D03*
X509500Y302500D02*
D03*
X585866Y245634D02*
D03*
X436000Y244000D02*
D03*
X416000Y252000D02*
D03*
X305183Y249683D02*
D03*
X165000Y262500D02*
D03*
X164500Y270000D02*
D03*
D91*
X710000Y485000D02*
D03*
X15000D02*
D03*
X710000Y15000D02*
D03*
X15000D02*
D03*
%TF.MD5,9da84e99b08b2e0d30b7871375757acd*%
M02*
