%TF.GenerationSoftware,Altium Limited,Altium Designer,20.1.14 (287)*%
G04 Layer_Color=128*
%FSLAX25Y25*%
%MOIN*%
%TF.SameCoordinates,420D9B4C-C7A0-47ED-81AF-82C992674030*%
%TF.FilePolarity,Positive*%
%TF.FileFunction,Drillmap*%
%TF.Part,Single*%
G01*
G75*
%TA.AperFunction,NonConductor*%
%ADD63C,0.00500*%
D63*
X14852Y313819D02*
X26860D01*
X20856Y307815D02*
Y319823D01*
X47569Y319724D02*
X51781D01*
X49675Y317618D02*
Y321831D01*
X47569Y307913D02*
X51781D01*
X49675Y305807D02*
Y310020D01*
X35758Y319724D02*
X39970D01*
X37864Y317618D02*
Y321831D01*
X35758Y307913D02*
X39970D01*
X37864Y305807D02*
Y310020D01*
X35758Y362989D02*
X39970D01*
X37864Y360883D02*
Y365095D01*
X35758Y374800D02*
X39970D01*
X37864Y372694D02*
Y376906D01*
X47569Y362989D02*
X51781D01*
X49675Y360883D02*
Y365095D01*
X47569Y374800D02*
X51781D01*
X49675Y372694D02*
Y376906D01*
X14852Y368895D02*
X26860D01*
X20856Y362891D02*
Y374898D01*
X198500Y122000D02*
X201500D01*
X200000Y120500D02*
Y123500D01*
X323500Y171500D02*
X327500D01*
X325500Y169500D02*
Y173500D01*
X323500Y191200D02*
X327500D01*
X325500Y189200D02*
Y193200D01*
X382200Y118700D02*
X390800D01*
X386500Y114400D02*
Y123000D01*
X362500Y118700D02*
X371100D01*
X366800Y114400D02*
Y123000D01*
X342800Y118700D02*
X351400D01*
X347100Y114400D02*
Y123000D01*
X323100Y118700D02*
X331700D01*
X327400Y114400D02*
Y123000D01*
X390000Y214700D02*
X394000D01*
X392000Y212700D02*
Y216700D01*
X390000Y224700D02*
X394000D01*
X392000Y222700D02*
Y226700D01*
X390000Y234700D02*
X394000D01*
X392000Y232700D02*
Y236700D01*
X380000Y234700D02*
X384000D01*
X382000Y232700D02*
Y236700D01*
X370000Y234700D02*
X374000D01*
X372000Y232700D02*
Y236700D01*
X360000Y234700D02*
X364000D01*
X362000Y232700D02*
Y236700D01*
X350000Y234700D02*
X354000D01*
X352000Y232700D02*
Y236700D01*
X340000Y234700D02*
X344000D01*
X342000Y232700D02*
Y236700D01*
X330000Y234700D02*
X334000D01*
X332000Y232700D02*
Y236700D01*
X320000Y234700D02*
X324000D01*
X322000Y232700D02*
Y236700D01*
X320000Y124700D02*
X324000D01*
X322000Y122700D02*
Y126700D01*
X330000Y124700D02*
X334000D01*
X332000Y122700D02*
Y126700D01*
X340000Y124700D02*
X344000D01*
X342000Y122700D02*
Y126700D01*
X350000Y124700D02*
X354000D01*
X352000Y122700D02*
Y126700D01*
X360000Y124700D02*
X364000D01*
X362000Y122700D02*
Y126700D01*
X370000Y124700D02*
X374000D01*
X372000Y122700D02*
Y126700D01*
X380000Y124700D02*
X384000D01*
X382000Y122700D02*
Y126700D01*
X390000Y124700D02*
X394000D01*
X392000Y122700D02*
Y126700D01*
X147750Y170000D02*
X151250D01*
X149500Y168250D02*
Y171750D01*
X450750Y416500D02*
X454250D01*
X452500Y414750D02*
Y418250D01*
X240250Y113500D02*
X243750D01*
X242000Y111750D02*
Y115250D01*
X470750Y416500D02*
X474250D01*
X472500Y414750D02*
Y418250D01*
X561250Y47500D02*
X564750D01*
X563000Y45750D02*
Y49250D01*
X262250Y76000D02*
X282550D01*
X272400Y65850D02*
Y86150D01*
X232850Y76000D02*
X253150D01*
X243000Y65850D02*
Y86150D01*
X285100Y18500D02*
X296900D01*
X291000Y12600D02*
Y24400D01*
X217600Y18500D02*
X229400D01*
X223500Y12600D02*
Y24400D01*
X368339Y68500D02*
X375661D01*
X372000Y64839D02*
Y72161D01*
X368339Y81020D02*
X375661D01*
X372000Y77358D02*
Y84681D01*
X338850Y68500D02*
X346173D01*
X342512Y64839D02*
Y72161D01*
X338850Y81020D02*
X346173D01*
X342512Y77358D02*
Y84681D01*
X317748Y67516D02*
X329874D01*
X323811Y61453D02*
Y73579D01*
X384638Y67516D02*
X396764D01*
X390701Y61453D02*
Y73579D01*
X522126Y69016D02*
X534252D01*
X528189Y62953D02*
Y75079D01*
X455236Y69016D02*
X467362D01*
X461299Y62953D02*
Y75079D01*
X476339Y82520D02*
X483661D01*
X480000Y78858D02*
Y86181D01*
X476339Y70000D02*
X483661D01*
X480000Y66339D02*
Y73661D01*
X505827Y82520D02*
X513150D01*
X509488Y78858D02*
Y86181D01*
X505827Y70000D02*
X513150D01*
X509488Y66339D02*
Y73661D01*
X656339Y70500D02*
X663661D01*
X660000Y66839D02*
Y74161D01*
X656339Y83020D02*
X663661D01*
X660000Y79358D02*
Y86681D01*
X626850Y70500D02*
X634173D01*
X630512Y66839D02*
Y74161D01*
X626850Y83020D02*
X634173D01*
X630512Y79358D02*
Y86681D01*
X605748Y69516D02*
X617874D01*
X611811Y63453D02*
Y75579D01*
X672638Y69516D02*
X684764D01*
X678701Y63453D02*
Y75579D01*
X683386Y278189D02*
X687598D01*
X685492Y276083D02*
Y280295D01*
X683386Y290000D02*
X687598D01*
X685492Y287894D02*
Y292106D01*
X683386Y301811D02*
X687598D01*
X685492Y299705D02*
Y303917D01*
X671575Y301811D02*
X675787D01*
X673681Y299705D02*
Y303917D01*
X671575Y290000D02*
X675787D01*
X673681Y287894D02*
Y292106D01*
X671575Y278189D02*
X675787D01*
X673681Y276083D02*
Y280295D01*
X696594Y290000D02*
X708405D01*
X702500Y284095D02*
Y295905D01*
X35902Y442311D02*
X40114D01*
X38008Y440205D02*
Y444417D01*
X35902Y430500D02*
X40114D01*
X38008Y428394D02*
Y432606D01*
X35902Y418689D02*
X40114D01*
X38008Y416583D02*
Y420795D01*
X47713Y418689D02*
X51925D01*
X49819Y416583D02*
Y420795D01*
X47713Y430500D02*
X51925D01*
X49819Y428394D02*
Y432606D01*
X47713Y442311D02*
X51925D01*
X49819Y440205D02*
Y444417D01*
X15094Y430500D02*
X26906D01*
X21000Y424594D02*
Y436406D01*
X81193Y233795D02*
X85091D01*
X83142Y231846D02*
Y235744D01*
X81193Y208205D02*
X85091D01*
X83142Y206256D02*
Y210154D01*
X98909Y208205D02*
X102807D01*
X100858Y206256D02*
Y210154D01*
X98909Y233795D02*
X102807D01*
X100858Y231846D02*
Y235744D01*
X83750Y275500D02*
X87250D01*
X85500Y273750D02*
Y277250D01*
X35681Y268500D02*
X39697D01*
X37689Y266492D02*
Y270508D01*
X47492Y268500D02*
X51508D01*
X49500Y266492D02*
Y270508D01*
X14776Y268500D02*
X26587D01*
X20681Y262595D02*
Y274406D01*
X35856Y226057D02*
X39872D01*
X37864Y224049D02*
Y228065D01*
X47667Y226057D02*
X51683D01*
X49675Y224049D02*
Y228065D01*
X14951Y226057D02*
X26762D01*
X20856Y220152D02*
Y231963D01*
X14852Y180093D02*
X26860D01*
X20856Y174089D02*
Y186097D01*
X47569Y185998D02*
X51781D01*
X49675Y183892D02*
Y188104D01*
X47569Y174187D02*
X51781D01*
X49675Y172081D02*
Y176294D01*
X35758Y185998D02*
X39970D01*
X37864Y183892D02*
Y188104D01*
X35758Y174187D02*
X39970D01*
X37864Y172081D02*
Y176294D01*
X14852Y125017D02*
X26860D01*
X20856Y119013D02*
Y131021D01*
X47569Y130923D02*
X51781D01*
X49675Y128816D02*
Y133029D01*
X47569Y119112D02*
X51781D01*
X49675Y117005D02*
Y121218D01*
X35758Y130923D02*
X39970D01*
X37864Y128816D02*
Y133029D01*
X35758Y119112D02*
X39970D01*
X37864Y117005D02*
Y121218D01*
X35902Y84311D02*
X40114D01*
X38008Y82205D02*
Y86417D01*
X35902Y72500D02*
X40114D01*
X38008Y70394D02*
Y74606D01*
X35902Y60689D02*
X40114D01*
X38008Y58583D02*
Y62795D01*
X47713Y60689D02*
X51925D01*
X49819Y58583D02*
Y62795D01*
X47713Y72500D02*
X51925D01*
X49819Y70394D02*
Y74606D01*
X47713Y84311D02*
X51925D01*
X49819Y82205D02*
Y86417D01*
X15094Y72500D02*
X26906D01*
X21000Y66594D02*
Y78405D01*
X612500Y173500D02*
X616500D01*
X614500Y171500D02*
Y175500D01*
X612500Y193200D02*
X616500D01*
X614500Y191200D02*
Y195200D01*
X671200Y120700D02*
X679800D01*
X675500Y116400D02*
Y125000D01*
X651500Y120700D02*
X660100D01*
X655800Y116400D02*
Y125000D01*
X631800Y120700D02*
X640400D01*
X636100Y116400D02*
Y125000D01*
X612100Y120700D02*
X620700D01*
X616400Y116400D02*
Y125000D01*
X679000Y216700D02*
X683000D01*
X681000Y214700D02*
Y218700D01*
X679000Y226700D02*
X683000D01*
X681000Y224700D02*
Y228700D01*
X679000Y236700D02*
X683000D01*
X681000Y234700D02*
Y238700D01*
X669000Y236700D02*
X673000D01*
X671000Y234700D02*
Y238700D01*
X659000Y236700D02*
X663000D01*
X661000Y234700D02*
Y238700D01*
X649000Y236700D02*
X653000D01*
X651000Y234700D02*
Y238700D01*
X639000Y236700D02*
X643000D01*
X641000Y234700D02*
Y238700D01*
X629000Y236700D02*
X633000D01*
X631000Y234700D02*
Y238700D01*
X619000Y236700D02*
X623000D01*
X621000Y234700D02*
Y238700D01*
X609000Y236700D02*
X613000D01*
X611000Y234700D02*
Y238700D01*
X609000Y126700D02*
X613000D01*
X611000Y124700D02*
Y128700D01*
X619000Y126700D02*
X623000D01*
X621000Y124700D02*
Y128700D01*
X629000Y126700D02*
X633000D01*
X631000Y124700D02*
Y128700D01*
X639000Y126700D02*
X643000D01*
X641000Y124700D02*
Y128700D01*
X649000Y126700D02*
X653000D01*
X651000Y124700D02*
Y128700D01*
X659000Y126700D02*
X663000D01*
X661000Y124700D02*
Y128700D01*
X669000Y126700D02*
X673000D01*
X671000Y124700D02*
Y128700D01*
X679000Y126700D02*
X683000D01*
X681000Y124700D02*
Y128700D01*
X252750Y373000D02*
X256250D01*
X254500Y371250D02*
Y374750D01*
X240250Y374000D02*
X243750D01*
X242000Y372250D02*
Y375750D01*
X657250Y256000D02*
X660750D01*
X659000Y254250D02*
Y257750D01*
X507750Y255000D02*
X511250D01*
X509500Y253250D02*
Y256750D01*
X380250Y256500D02*
X383750D01*
X382000Y254750D02*
Y258250D01*
X369250Y254000D02*
X372750D01*
X371000Y252250D02*
Y255750D01*
X666250Y256000D02*
X669750D01*
X668000Y254250D02*
Y257750D01*
X88423Y188028D02*
X91223D01*
X89823Y186628D02*
Y189428D01*
X93423Y188028D02*
X96223D01*
X94823Y186628D02*
Y189428D01*
X88423Y183028D02*
X91223D01*
X89823Y181628D02*
Y184428D01*
X93423Y183028D02*
X96223D01*
X94823Y181628D02*
Y184428D01*
X88423Y178028D02*
X91223D01*
X89823Y176628D02*
Y179428D01*
X93423Y178028D02*
X96223D01*
X94823Y176628D02*
Y179428D01*
X88423Y173028D02*
X91223D01*
X89823Y171628D02*
Y174428D01*
X93423Y173028D02*
X96223D01*
X94823Y171628D02*
Y174428D01*
X88423Y168028D02*
X91223D01*
X89823Y166628D02*
Y169428D01*
X93423Y168028D02*
X96223D01*
X94823Y166628D02*
Y169428D01*
X636750Y352500D02*
X640250D01*
X638500Y350750D02*
Y354250D01*
X636750Y390000D02*
X640250D01*
X638500Y388250D02*
Y391750D01*
X639250Y420500D02*
X642750D01*
X641000Y418750D02*
Y422250D01*
X85250Y414500D02*
X88750D01*
X87000Y412750D02*
Y416250D01*
X85750Y432000D02*
X89250D01*
X87500Y430250D02*
Y433750D01*
X97750Y84500D02*
X101250D01*
X99500Y82750D02*
Y86250D01*
X97750Y102000D02*
X101250D01*
X99500Y100250D02*
Y103750D01*
X83250Y251500D02*
X86750D01*
X85000Y249750D02*
Y253250D01*
X282250Y306000D02*
X285750D01*
X284000Y304250D02*
Y307750D01*
X367750Y321500D02*
X371250D01*
X369500Y319750D02*
Y323250D01*
X368250Y341500D02*
X371750D01*
X370000Y339750D02*
Y343250D01*
X161000Y121500D02*
X164000D01*
X162500Y120000D02*
Y123000D01*
X333750Y283500D02*
X337250D01*
X335500Y281750D02*
Y285250D01*
X630750Y278000D02*
X634250D01*
X632500Y276250D02*
Y279750D01*
X683530Y453406D02*
X687742D01*
X685636Y451299D02*
Y455512D01*
X683530Y441595D02*
X687742D01*
X685636Y439488D02*
Y443701D01*
X671719Y453406D02*
X675931D01*
X673825Y451299D02*
Y455512D01*
X671719Y441595D02*
X675931D01*
X673825Y439488D02*
Y443701D01*
X696640Y447500D02*
X708648D01*
X702644Y441496D02*
Y453504D01*
X683530Y404500D02*
X687742D01*
X685636Y402394D02*
Y406606D01*
X683530Y392689D02*
X687742D01*
X685636Y390583D02*
Y394795D01*
X671719Y404500D02*
X675931D01*
X673825Y402394D02*
Y406606D01*
X671719Y392689D02*
X675931D01*
X673825Y390583D02*
Y394795D01*
X696640Y398594D02*
X708648D01*
X702644Y392591D02*
Y404598D01*
X683530Y352406D02*
X687742D01*
X685636Y350299D02*
Y354512D01*
X683530Y340595D02*
X687742D01*
X685636Y338488D02*
Y342701D01*
X671719Y352406D02*
X675931D01*
X673825Y350299D02*
Y354512D01*
X671719Y340595D02*
X675931D01*
X673825Y338488D02*
Y342701D01*
X696640Y346500D02*
X708648D01*
X702644Y340496D02*
Y352504D01*
X341898Y421500D02*
X345047D01*
X343472Y419925D02*
Y423075D01*
X400953Y421500D02*
X404102D01*
X402528Y419925D02*
Y423075D01*
X517250Y254500D02*
X520750D01*
X519000Y252750D02*
Y256250D01*
X528500Y126200D02*
X532500D01*
X530500Y124200D02*
Y128200D01*
X518500Y126200D02*
X522500D01*
X520500Y124200D02*
Y128200D01*
X508500Y126200D02*
X512500D01*
X510500Y124200D02*
Y128200D01*
X498500Y126200D02*
X502500D01*
X500500Y124200D02*
Y128200D01*
X488500Y126200D02*
X492500D01*
X490500Y124200D02*
Y128200D01*
X478500Y126200D02*
X482500D01*
X480500Y124200D02*
Y128200D01*
X468500Y126200D02*
X472500D01*
X470500Y124200D02*
Y128200D01*
X458500Y126200D02*
X462500D01*
X460500Y124200D02*
Y128200D01*
X458500Y236200D02*
X462500D01*
X460500Y234200D02*
Y238200D01*
X468500Y236200D02*
X472500D01*
X470500Y234200D02*
Y238200D01*
X478500Y236200D02*
X482500D01*
X480500Y234200D02*
Y238200D01*
X488500Y236200D02*
X492500D01*
X490500Y234200D02*
Y238200D01*
X498500Y236200D02*
X502500D01*
X500500Y234200D02*
Y238200D01*
X508500Y236200D02*
X512500D01*
X510500Y234200D02*
Y238200D01*
X518500Y236200D02*
X522500D01*
X520500Y234200D02*
Y238200D01*
X528500Y236200D02*
X532500D01*
X530500Y234200D02*
Y238200D01*
X528500Y226200D02*
X532500D01*
X530500Y224200D02*
Y228200D01*
X528500Y216200D02*
X532500D01*
X530500Y214200D02*
Y218200D01*
X461600Y120200D02*
X470200D01*
X465900Y115900D02*
Y124500D01*
X481300Y120200D02*
X489900D01*
X485600Y115900D02*
Y124500D01*
X501000Y120200D02*
X509600D01*
X505300Y115900D02*
Y124500D01*
X520700Y120200D02*
X529300D01*
X525000Y115900D02*
Y124500D01*
X462000Y192700D02*
X466000D01*
X464000Y190700D02*
Y194700D01*
X462000Y173000D02*
X466000D01*
X464000Y171000D02*
Y175000D01*
X194700Y59500D02*
X199300D01*
X197000Y57200D02*
Y61800D01*
X194700Y49500D02*
X199300D01*
X197000Y47200D02*
Y51800D01*
X194700Y39500D02*
X199300D01*
X197000Y37200D02*
Y41800D01*
X194700Y29500D02*
X199300D01*
X197000Y27200D02*
Y31800D01*
X194700Y19500D02*
X199300D01*
X197000Y17200D02*
Y21800D01*
X152700Y19500D02*
X157300D01*
X155000Y17200D02*
Y21800D01*
X188700Y75500D02*
X197300D01*
X193000Y71200D02*
Y79800D01*
X136700Y23500D02*
X145300D01*
X141000Y19200D02*
Y27800D01*
X184992Y195000D02*
X189008D01*
X187000Y192992D02*
Y197008D01*
X184992Y205000D02*
X189008D01*
X187000Y202992D02*
Y207008D01*
X184992Y215000D02*
X189008D01*
X187000Y212992D02*
Y217008D01*
X184992Y225000D02*
X189008D01*
X187000Y222992D02*
Y227008D01*
X184992Y235000D02*
X189008D01*
X187000Y232992D02*
Y237008D01*
X205992Y416000D02*
X210008D01*
X208000Y413992D02*
Y418008D01*
X205992Y406000D02*
X210008D01*
X208000Y403992D02*
Y408008D01*
X205992Y396000D02*
X210008D01*
X208000Y393992D02*
Y398008D01*
X474100Y314500D02*
X476900D01*
X475500Y313100D02*
Y315900D01*
X703700Y485000D02*
X716300D01*
X710000Y478700D02*
Y491300D01*
X8700Y485000D02*
X21300D01*
X15000Y478700D02*
Y491300D01*
X304100Y283500D02*
X306900D01*
X305500Y282100D02*
Y284900D01*
X537600Y282500D02*
X540400D01*
X539000Y281100D02*
Y283900D01*
X469100Y301500D02*
X471900D01*
X470500Y300100D02*
Y302900D01*
X509600Y282000D02*
X512400D01*
X511000Y280600D02*
Y283400D01*
X509100Y290000D02*
X511900D01*
X510500Y288600D02*
Y291400D01*
X263600Y249500D02*
X266400D01*
X265000Y248100D02*
Y250900D01*
X138100Y36500D02*
X140900D01*
X139500Y35100D02*
Y37900D01*
X189100Y151500D02*
X191900D01*
X190500Y150100D02*
Y152900D01*
X415114Y348000D02*
X417914D01*
X416514Y346600D02*
Y349400D01*
X429100Y346000D02*
X431900D01*
X430500Y344600D02*
Y347400D01*
X555600Y253500D02*
X558400D01*
X557000Y252100D02*
Y254900D01*
X226100Y289000D02*
X228900D01*
X227500Y287600D02*
Y290400D01*
X215100Y324500D02*
X217900D01*
X216500Y323100D02*
Y325900D01*
X59600Y408500D02*
X62400D01*
X61000Y407100D02*
Y409900D01*
X69600Y383500D02*
X72400D01*
X71000Y382100D02*
Y384900D01*
X70600Y349000D02*
X73400D01*
X72000Y347600D02*
Y350400D01*
X119114Y328486D02*
X121914D01*
X120514Y327086D02*
Y329886D01*
X113100Y148000D02*
X115900D01*
X114500Y146600D02*
Y149400D01*
X273600Y297000D02*
X276400D01*
X275000Y295600D02*
Y298400D01*
X123600Y223000D02*
X126400D01*
X125000Y221600D02*
Y224400D01*
X324600Y273000D02*
X327400D01*
X326000Y271600D02*
Y274400D01*
X266100Y282500D02*
X268900D01*
X267500Y281100D02*
Y283900D01*
X324100Y281500D02*
X326900D01*
X325500Y280100D02*
Y282900D01*
X283600Y274500D02*
X286400D01*
X285000Y273100D02*
Y275900D01*
X303100Y276000D02*
X305900D01*
X304500Y274600D02*
Y277400D01*
X285100Y286500D02*
X287900D01*
X286500Y285100D02*
Y287900D01*
X217489Y373389D02*
X220289D01*
X218889Y371989D02*
Y374789D01*
X213600Y369500D02*
X216400D01*
X215000Y368100D02*
Y370900D01*
X424100Y273500D02*
X426900D01*
X425500Y272100D02*
Y274900D01*
X416600Y304500D02*
X419400D01*
X418000Y303100D02*
Y305900D01*
X306600Y369500D02*
X309400D01*
X308000Y368100D02*
Y370900D01*
X277600Y333000D02*
X280400D01*
X279000Y331600D02*
Y334400D01*
X276065Y339535D02*
X278865D01*
X277465Y338135D02*
Y340935D01*
X280100Y370500D02*
X282900D01*
X281500Y369100D02*
Y371900D01*
X238600Y328000D02*
X241400D01*
X240000Y326600D02*
Y329400D01*
X247100Y428000D02*
X249900D01*
X248500Y426600D02*
Y429400D01*
X243600Y399000D02*
X246400D01*
X245000Y397600D02*
Y400400D01*
X217100Y425000D02*
X219900D01*
X218500Y423600D02*
Y426400D01*
X140600Y384500D02*
X143400D01*
X142000Y383100D02*
Y385900D01*
X148600Y385500D02*
X151400D01*
X150000Y384100D02*
Y386900D01*
X157100Y386500D02*
X159900D01*
X158500Y385100D02*
Y387900D01*
X165100Y387000D02*
X167900D01*
X166500Y385600D02*
Y388400D01*
X389600Y311500D02*
X392400D01*
X391000Y310100D02*
Y312900D01*
X422600Y325000D02*
X425400D01*
X424000Y323600D02*
Y326400D01*
X465600Y315000D02*
X468400D01*
X467000Y313600D02*
Y316400D01*
X469600Y329000D02*
X472400D01*
X471000Y327600D02*
Y330400D01*
X422100Y362000D02*
X424900D01*
X423500Y360600D02*
Y363400D01*
X451600Y364000D02*
X454400D01*
X453000Y362600D02*
Y365400D01*
X215226Y251000D02*
X218026D01*
X216626Y249600D02*
Y252400D01*
X209726Y251000D02*
X212526D01*
X211126Y249600D02*
Y252400D01*
X204226Y251000D02*
X207026D01*
X205626Y249600D02*
Y252400D01*
X351600Y311000D02*
X354400D01*
X353000Y309600D02*
Y312400D01*
X316655Y311555D02*
X319455D01*
X318055Y310155D02*
Y312955D01*
X135600Y402500D02*
X138400D01*
X137000Y401100D02*
Y403900D01*
X165100Y442000D02*
X167900D01*
X166500Y440600D02*
Y443400D01*
X156600Y442000D02*
X159400D01*
X158000Y440600D02*
Y443400D01*
X148100Y442000D02*
X150900D01*
X149500Y440600D02*
Y443400D01*
X140100Y437000D02*
X142900D01*
X141500Y435600D02*
Y438400D01*
X115036Y178028D02*
X117836D01*
X116436Y176628D02*
Y179428D01*
X215100Y305000D02*
X217900D01*
X216500Y303600D02*
Y306400D01*
X129620Y109520D02*
X132420D01*
X131020Y108120D02*
Y110920D01*
X147466Y108866D02*
X150266D01*
X148866Y107466D02*
Y110266D01*
X129100Y117000D02*
X131900D01*
X130500Y115600D02*
Y118400D01*
X122234Y38634D02*
X125034D01*
X123634Y37234D02*
Y40034D01*
X241600Y173500D02*
X244400D01*
X243000Y172100D02*
Y174900D01*
X520600Y272400D02*
X523400D01*
X522000Y271000D02*
Y273800D01*
X488100Y275000D02*
X490900D01*
X489500Y273600D02*
Y276400D01*
X508100Y302500D02*
X510900D01*
X509500Y301100D02*
Y303900D01*
X584466Y245634D02*
X587266D01*
X585866Y244234D02*
Y247034D01*
X434600Y244000D02*
X437400D01*
X436000Y242600D02*
Y245400D01*
X414600Y252000D02*
X417400D01*
X416000Y250600D02*
Y253400D01*
X303783Y249683D02*
X306583D01*
X305183Y248283D02*
Y251083D01*
X163600Y262500D02*
X166400D01*
X165000Y261100D02*
Y263900D01*
X163100Y270000D02*
X165900D01*
X164500Y268600D02*
Y271400D01*
X703700Y15000D02*
X716300D01*
X710000Y8700D02*
Y21300D01*
X8700Y15000D02*
X21300D01*
X15000Y8700D02*
Y21300D01*
%TF.MD5,9fa80c1bfaba0ab1b13339eded02600d*%
M02*
