%TF.GenerationSoftware,Altium Limited,Altium Designer,20.1.14 (287)*%
G04 Layer_Color=16711935*
%FSLAX25Y25*%
%MOIN*%
%TF.SameCoordinates,420D9B4C-C7A0-47ED-81AF-82C992674030*%
%TF.FilePolarity,Positive*%
%TF.FileFunction,Other,Top_Assembly*%
%TF.Part,Single*%
G01*
G75*
%TA.AperFunction,NonConductor*%
%ADD61C,0.00787*%
G36*
X176519Y266665D02*
X174298D01*
Y265424D01*
X174000D01*
Y267000D01*
X176519D01*
Y266665D01*
D02*
G37*
G36*
X175896Y264914D02*
X175904Y264907D01*
X175907Y264893D01*
X175918Y264874D01*
X175929Y264852D01*
X175944Y264827D01*
X175980Y264765D01*
X176020Y264692D01*
X176071Y264619D01*
X176129Y264543D01*
X176191Y264467D01*
X176195Y264463D01*
X176198Y264459D01*
X176209Y264448D01*
X176220Y264434D01*
X176257Y264401D01*
X176300Y264357D01*
X176351Y264314D01*
X176410Y264266D01*
X176468Y264226D01*
X176530Y264190D01*
Y263990D01*
X174000D01*
Y264299D01*
X175969D01*
X175966Y264303D01*
X175951Y264321D01*
X175929Y264343D01*
X175904Y264379D01*
X175871Y264419D01*
X175835Y264470D01*
X175794Y264528D01*
X175754Y264594D01*
Y264598D01*
X175751Y264601D01*
X175736Y264623D01*
X175718Y264660D01*
X175696Y264703D01*
X175671Y264754D01*
X175645Y264809D01*
X175620Y264863D01*
X175598Y264918D01*
X175896D01*
Y264914D01*
D02*
G37*
D61*
X170752Y273299D02*
X177248D01*
X170752Y260701D02*
Y273299D01*
Y260701D02*
X177248D01*
Y273299D01*
%TF.MD5,17427c33bf956fa2abfe26137caf0078*%
M02*
