%TF.GenerationSoftware,Altium Limited,Altium Designer,20.1.14 (287)*%
G04 Layer_Physical_Order=3*
G04 Layer_Color=16440176*
%FSLAX25Y25*%
%MOIN*%
%TF.SameCoordinates,420D9B4C-C7A0-47ED-81AF-82C992674030*%
%TF.FilePolarity,Positive*%
%TF.FileFunction,Copper,L3,Inr,Signal*%
%TF.Part,Single*%
G01*
G75*
%TA.AperFunction,Conductor*%
%ADD27C,0.15000*%
%ADD35C,0.12000*%
%ADD36C,0.20000*%
%TA.AperFunction,ComponentPad*%
%ADD37C,0.12008*%
%ADD38C,0.06319*%
%ADD39R,0.06319X0.06319*%
%ADD40C,0.05000*%
%ADD41C,0.06000*%
%ADD42R,0.12000X0.12000*%
%ADD43C,0.12000*%
%ADD44R,0.06000X0.06000*%
%ADD45O,0.09900X0.26300*%
%ADD46C,0.15000*%
%ADD47C,0.10984*%
%ADD48C,0.06417*%
%ADD49C,0.05898*%
%ADD50R,0.06024X0.06024*%
%ADD51C,0.06024*%
%ADD52C,0.11811*%
%ADD53C,0.04000*%
%ADD54R,0.04000X0.04000*%
%ADD55C,0.06102*%
%ADD56R,0.06102X0.06102*%
%TA.AperFunction,ViaPad*%
%ADD57C,0.05000*%
%ADD58C,0.24000*%
G36*
X628000Y130070D02*
X627791Y129909D01*
X627069Y128969D01*
X626616Y127875D01*
X626461Y126700D01*
X626616Y125525D01*
X626889Y124865D01*
X626489Y123548D01*
X626316Y121783D01*
Y111000D01*
X587000D01*
X569500Y128500D01*
X557000Y141000D01*
X514869Y141000D01*
X514500Y141000D01*
X514407Y140907D01*
X514407Y140538D01*
Y129278D01*
X513934Y129117D01*
X513709Y129409D01*
X512769Y130131D01*
X511675Y130584D01*
X510500Y130739D01*
X509325Y130584D01*
X508231Y130131D01*
X508167Y130082D01*
X506624Y130550D01*
X504859Y130724D01*
X503095Y130550D01*
X502322Y130316D01*
X501675Y130584D01*
X500500Y130739D01*
X499325Y130584D01*
X498231Y130131D01*
X497291Y129409D01*
X496593Y128500D01*
X494407D01*
X493709Y129409D01*
X492769Y130131D01*
X491675Y130584D01*
X490500Y130739D01*
X489325Y130584D01*
X488231Y130131D01*
X488018Y129968D01*
X486623Y130391D01*
X484859Y130564D01*
X483095Y130391D01*
X482545Y130224D01*
X481675Y130584D01*
X480500Y130739D01*
X479325Y130584D01*
X478231Y130131D01*
X477291Y129409D01*
X476593Y128500D01*
X476000D01*
Y126495D01*
X475961Y126200D01*
X476000Y125905D01*
Y123320D01*
X475989Y123285D01*
X475816Y121521D01*
Y117903D01*
X475600Y117500D01*
Y109500D01*
X435500Y109500D01*
X417500Y127500D01*
X404000Y141000D01*
X376000D01*
Y128181D01*
X375736Y127930D01*
X375209Y127909D01*
X374269Y128631D01*
X373175Y129084D01*
X372000Y129239D01*
X370825Y129084D01*
X369731Y128631D01*
X369389Y128369D01*
X368623Y128601D01*
X366859Y128775D01*
X365095Y128601D01*
X364531Y128430D01*
X364269Y128631D01*
X363175Y129084D01*
X362000Y129239D01*
X360825Y129084D01*
X359731Y128631D01*
X358791Y127909D01*
X358476Y127500D01*
X355524Y127500D01*
X355209Y127909D01*
X354269Y128631D01*
X353175Y129084D01*
X352000Y129239D01*
X350825Y129084D01*
X349731Y128631D01*
X349359Y128345D01*
X348623Y128568D01*
X346859Y128742D01*
X345095Y128568D01*
X344562Y128407D01*
X344269Y128631D01*
X343175Y129084D01*
X342000Y129239D01*
X340825Y129084D01*
X339731Y128631D01*
X338791Y127909D01*
X338476Y127500D01*
X338000D01*
Y126802D01*
X337616Y125875D01*
X337461Y124700D01*
X337616Y123525D01*
X338000Y122598D01*
Y121498D01*
X337989Y121463D01*
X337816Y119699D01*
Y92500D01*
X253500D01*
Y24355D01*
X253145Y24003D01*
X230489Y24170D01*
X229895Y24895D01*
X228524Y26019D01*
X226961Y26855D01*
X225264Y27370D01*
X223500Y27544D01*
X221736Y27370D01*
X220039Y26855D01*
X218476Y26019D01*
X217105Y24895D01*
X216595Y24273D01*
X146669Y24791D01*
X146384Y25730D01*
X145846Y26738D01*
X145121Y27621D01*
X144238Y28346D01*
X143230Y28884D01*
X142137Y29216D01*
X141000Y29328D01*
X139863Y29216D01*
X138770Y28884D01*
X137762Y28346D01*
X136879Y27621D01*
X136154Y26738D01*
X135616Y25730D01*
X135356Y24875D01*
X97806Y25153D01*
X97616Y25616D01*
X164503Y92502D01*
X164964Y92311D01*
Y65358D01*
X165106Y63553D01*
X165529Y61793D01*
X166222Y60121D01*
X167167Y58577D01*
X168343Y57201D01*
X174201Y51343D01*
X175577Y50168D01*
X177121Y49222D01*
X178793Y48529D01*
X180553Y48107D01*
X182358Y47964D01*
X184162Y48107D01*
X185923Y48529D01*
X187595Y49222D01*
X189138Y50168D01*
X190515Y51343D01*
X191045Y51964D01*
X192610D01*
X192943Y51464D01*
X192616Y50675D01*
X192461Y49500D01*
X192616Y48325D01*
X193069Y47231D01*
X193791Y46291D01*
X194731Y45569D01*
X195825Y45116D01*
X197000Y44961D01*
X198175Y45116D01*
X199269Y45569D01*
X200209Y46291D01*
X200931Y47231D01*
X201384Y48325D01*
X201539Y49500D01*
X201384Y50675D01*
X200931Y51769D01*
X200517Y52309D01*
X200655Y52950D01*
X201187Y53234D01*
X202329Y54171D01*
X203266Y55313D01*
X203963Y56616D01*
X204392Y58030D01*
X204536Y59500D01*
X204392Y60970D01*
X203963Y62384D01*
X203266Y63687D01*
X202329Y64829D01*
X201187Y65766D01*
X199884Y66463D01*
X198470Y66891D01*
X197000Y67036D01*
X191045D01*
X190515Y67657D01*
X188036Y70136D01*
Y71618D01*
X188536Y71797D01*
X188879Y71379D01*
X189762Y70654D01*
X190770Y70116D01*
X191863Y69784D01*
X193000Y69672D01*
X194137Y69784D01*
X195230Y70116D01*
X196238Y70654D01*
X197121Y71379D01*
X197846Y72262D01*
X198384Y73270D01*
X198716Y74363D01*
X198828Y75500D01*
X198716Y76637D01*
X198384Y77730D01*
X197846Y78738D01*
X197121Y79621D01*
X196238Y80346D01*
X195230Y80884D01*
X194137Y81216D01*
X193000Y81328D01*
X191863Y81216D01*
X190770Y80884D01*
X189762Y80346D01*
X188879Y79621D01*
X188536Y79203D01*
X188036Y79382D01*
Y93722D01*
X208157Y113843D01*
X209332Y115220D01*
X210278Y116763D01*
X210971Y118435D01*
X211393Y120195D01*
X211536Y122000D01*
X211393Y123805D01*
X210971Y125565D01*
X210278Y127237D01*
X209332Y128780D01*
X208157Y130157D01*
X206780Y131333D01*
X205237Y132278D01*
X204975Y132387D01*
X204877Y132877D01*
X227000Y155000D01*
X321440Y155000D01*
X341900Y170500D01*
X460246D01*
X460791Y169791D01*
X461731Y169069D01*
X462825Y168616D01*
X464000Y168461D01*
X465175Y168616D01*
X466269Y169069D01*
X467209Y169791D01*
X467754Y170500D01*
X611130D01*
X611291Y170291D01*
X612231Y169569D01*
X613325Y169116D01*
X614500Y168961D01*
X615675Y169116D01*
X616769Y169569D01*
X617709Y170291D01*
X617870Y170500D01*
X628000D01*
X628000Y130070D01*
D02*
G37*
G36*
X692000Y23206D02*
X691646Y22853D01*
X297951Y24217D01*
X297395Y24895D01*
X296024Y26019D01*
X294461Y26855D01*
X292764Y27370D01*
X291000Y27544D01*
X289236Y27370D01*
X287539Y26855D01*
X285976Y26019D01*
X284605Y24895D01*
X284088Y24265D01*
X254520Y24367D01*
Y91480D01*
X337816D01*
Y90352D01*
X335876Y88413D01*
X334752Y87042D01*
X333916Y85479D01*
X333401Y83783D01*
X333227Y82018D01*
X333227Y82018D01*
Y69498D01*
X333401Y67734D01*
X333916Y66038D01*
X334752Y64474D01*
X335876Y63104D01*
X337247Y61979D01*
X338810Y61143D01*
X340507Y60629D01*
X340600Y60619D01*
Y59367D01*
X340864Y58731D01*
X340907Y58687D01*
X341544Y58424D01*
X372000D01*
X372636Y58687D01*
X374136Y60187D01*
X374400Y60824D01*
Y60837D01*
X375520Y61176D01*
X377083Y62012D01*
X378454Y63137D01*
X379579Y64507D01*
X380414Y66071D01*
X380929Y67767D01*
X381103Y69532D01*
Y82051D01*
X381103Y82051D01*
X380929Y83815D01*
X380414Y85512D01*
X379579Y87076D01*
X378454Y88446D01*
X375903Y90997D01*
Y119731D01*
X375729Y121496D01*
X375583Y121977D01*
X375931Y122431D01*
X376384Y123525D01*
X376539Y124700D01*
X376384Y125875D01*
X376135Y126477D01*
X376124Y126642D01*
X376163Y127004D01*
X376298Y127102D01*
X376439Y127191D01*
X376702Y127441D01*
X376710Y127452D01*
X376721Y127460D01*
X376824Y127614D01*
X376932Y127766D01*
X376935Y127779D01*
X376942Y127790D01*
X376978Y127973D01*
X377019Y128154D01*
X377017Y128167D01*
X377020Y128181D01*
Y139980D01*
X403387D01*
X435000Y108367D01*
X475816Y108367D01*
Y92175D01*
X473876Y90235D01*
X472752Y88865D01*
X471916Y87301D01*
X471401Y85605D01*
X471228Y83841D01*
X471228Y83840D01*
Y71321D01*
X471401Y69557D01*
X471916Y67860D01*
X472752Y66296D01*
X473876Y64926D01*
X475247Y63801D01*
X476810Y62966D01*
X478507Y62451D01*
X478600Y62442D01*
Y61324D01*
X478789Y60867D01*
X511400D01*
Y62569D01*
X511824Y62611D01*
X513520Y63125D01*
X515084Y63961D01*
X516454Y65086D01*
X517579Y66456D01*
X518414Y68020D01*
X518929Y69716D01*
X519103Y71481D01*
Y84000D01*
X519103Y84000D01*
X518929Y85765D01*
X518414Y87461D01*
X517579Y89025D01*
X516454Y90395D01*
X513903Y92946D01*
Y121681D01*
X513766Y123065D01*
X514431Y123931D01*
X514884Y125025D01*
X515039Y126200D01*
X514884Y127375D01*
X514677Y127876D01*
X514797Y128336D01*
X514936Y128428D01*
X515079Y128511D01*
X515100Y128538D01*
X515128Y128557D01*
X515221Y128695D01*
X515322Y128827D01*
X515331Y128859D01*
X515349Y128888D01*
X515382Y129051D01*
X515425Y129211D01*
X515420Y129245D01*
X515427Y129278D01*
Y139980D01*
X556578Y139980D01*
X568779Y127779D01*
X586279Y110279D01*
X586610Y110058D01*
X587000Y109980D01*
X605387D01*
X605500Y109867D01*
X626316Y109867D01*
Y92437D01*
X624376Y90498D01*
X623252Y89127D01*
X622416Y87564D01*
X621901Y85868D01*
X621728Y84103D01*
X621728Y84103D01*
Y71583D01*
X621901Y69819D01*
X622416Y68123D01*
X623252Y66559D01*
X624376Y65189D01*
X625747Y64064D01*
X627310Y63228D01*
X629007Y62714D01*
X630100Y62606D01*
Y61812D01*
X630364Y61176D01*
X630852Y60687D01*
X631488Y60424D01*
X660000D01*
X660900Y61324D01*
Y62544D01*
X661824Y62635D01*
X663520Y63149D01*
X665084Y63985D01*
X666454Y65110D01*
X667579Y66480D01*
X668414Y68044D01*
X668929Y69740D01*
X669103Y71504D01*
Y84024D01*
X669103Y84024D01*
X668929Y85788D01*
X668414Y87485D01*
X667579Y89048D01*
X666454Y90419D01*
X663903Y92970D01*
Y121704D01*
X663761Y123146D01*
X664209Y123491D01*
X664931Y124431D01*
X665384Y125525D01*
X665539Y126700D01*
X665384Y127875D01*
X664931Y128969D01*
X664209Y129909D01*
X663269Y130631D01*
X662175Y131084D01*
X661000Y131239D01*
X660900Y131326D01*
Y148000D01*
X692000Y148000D01*
X692000Y23206D01*
D02*
G37*
G36*
X694500Y498980D02*
Y471500D01*
Y470500D01*
X723980D01*
X723980Y29000D01*
X693020Y29000D01*
X693020Y148000D01*
X692942Y148390D01*
X692721Y148721D01*
X692390Y148942D01*
X692000Y149020D01*
X660900Y149020D01*
X660510Y148942D01*
X660179Y148721D01*
X659958Y148390D01*
X659880Y148000D01*
Y131327D01*
X659825Y131084D01*
X658731Y130631D01*
X658081Y130132D01*
X656624Y130574D01*
X654859Y130748D01*
X653315Y130596D01*
X653269Y130631D01*
X652175Y131084D01*
X651000Y131239D01*
X649825Y131084D01*
X648731Y130631D01*
X647791Y129909D01*
X647069Y128969D01*
X646616Y127875D01*
X646461Y126700D01*
X646616Y125525D01*
X646651Y125440D01*
X646504Y125165D01*
X645989Y123469D01*
X645816Y121704D01*
Y89224D01*
X645816Y89224D01*
X645989Y87460D01*
X646504Y85763D01*
X647340Y84200D01*
X648464Y82829D01*
X651016Y80278D01*
Y71504D01*
X651189Y69740D01*
X651704Y68044D01*
X652540Y66480D01*
X653664Y65110D01*
X655035Y63985D01*
X656598Y63149D01*
X658295Y62635D01*
X659880Y62479D01*
Y61746D01*
X659578Y61443D01*
X631691D01*
X631429Y61552D01*
X631228Y61753D01*
X631120Y62015D01*
Y62574D01*
X632535Y62714D01*
X634232Y63228D01*
X635795Y64064D01*
X637166Y65189D01*
X638291Y66559D01*
X639126Y68123D01*
X639641Y69819D01*
X639815Y71583D01*
Y80357D01*
X641754Y82297D01*
X641754Y82297D01*
X642879Y83667D01*
X643714Y85231D01*
X644229Y86927D01*
X644403Y88691D01*
X644403Y88692D01*
Y121783D01*
X644232Y123520D01*
X644931Y124431D01*
X645384Y125525D01*
X645539Y126700D01*
X645384Y127875D01*
X644931Y128969D01*
X644209Y129909D01*
X643269Y130631D01*
X642175Y131084D01*
X641000Y131239D01*
X639825Y131084D01*
X638731Y130631D01*
X638296Y130298D01*
X637123Y130653D01*
X635359Y130827D01*
X633595Y130653D01*
X633341Y130576D01*
X633269Y130631D01*
X632175Y131084D01*
X631000Y131239D01*
X629825Y131084D01*
X629435Y130923D01*
X629020Y131200D01*
X629020Y170500D01*
X628942Y170890D01*
X628721Y171221D01*
X628390Y171442D01*
X628000Y171520D01*
X619000D01*
X618723Y171935D01*
X618884Y172325D01*
X619039Y173500D01*
X618884Y174675D01*
X618431Y175769D01*
X617709Y176709D01*
X616769Y177431D01*
X615675Y177884D01*
X614500Y178039D01*
X613325Y177884D01*
X612231Y177431D01*
X611291Y176709D01*
X610569Y175769D01*
X610116Y174675D01*
X609961Y173500D01*
X610116Y172325D01*
X610277Y171935D01*
X610000Y171520D01*
X468741D01*
X468410Y172020D01*
X468539Y173000D01*
X468384Y174175D01*
X467931Y175269D01*
X467209Y176209D01*
X466269Y176931D01*
X465175Y177384D01*
X464000Y177539D01*
X462825Y177384D01*
X461731Y176931D01*
X460791Y176209D01*
X460069Y175269D01*
X459616Y174175D01*
X459461Y173000D01*
X459590Y172020D01*
X459259Y171520D01*
X341900D01*
X341772Y171494D01*
X341642Y171486D01*
X341579Y171456D01*
X341510Y171442D01*
X341402Y171370D01*
X341284Y171313D01*
X321097Y156020D01*
X227000Y156020D01*
X226610Y155942D01*
X226279Y155721D01*
X204156Y133598D01*
X204100Y133515D01*
X204029Y133444D01*
X203991Y133351D01*
X203935Y133267D01*
X203556Y133037D01*
X203379Y133016D01*
X203376Y133016D01*
X201805Y133394D01*
X200000Y133536D01*
X198195Y133394D01*
X196435Y132971D01*
X194763Y132278D01*
X193220Y131333D01*
X191843Y130157D01*
X168343Y106657D01*
X167167Y105280D01*
X166222Y103737D01*
X165529Y102065D01*
X165106Y100305D01*
X164964Y98500D01*
Y93940D01*
X164799Y93720D01*
X164503Y93522D01*
X164112Y93445D01*
X163781Y93224D01*
X96895Y26337D01*
X96785Y26173D01*
X96675Y26010D01*
X96675Y26008D01*
X96674Y26006D01*
X96635Y25813D01*
X96596Y25620D01*
X96597Y25618D01*
X96596Y25616D01*
X96635Y25423D01*
X96672Y25229D01*
X96862Y24767D01*
X96972Y24601D01*
X97079Y24438D01*
X97081Y24437D01*
X97082Y24435D01*
X97246Y24325D01*
X97408Y24214D01*
X97410Y24214D01*
X97412Y24213D01*
X97606Y24173D01*
X97798Y24134D01*
X134849Y23859D01*
X135172Y23500D01*
X135284Y22363D01*
X135616Y21270D01*
X136154Y20262D01*
X136879Y19379D01*
X137762Y18654D01*
X138770Y18116D01*
X139863Y17784D01*
X141000Y17672D01*
X142137Y17784D01*
X143230Y18116D01*
X144238Y18654D01*
X145121Y19379D01*
X145846Y20262D01*
X146384Y21270D01*
X146716Y22363D01*
X146828Y23500D01*
X147073Y23769D01*
X152299Y23730D01*
X152467Y23229D01*
X151791Y22709D01*
X151069Y21769D01*
X150616Y20675D01*
X150461Y19500D01*
X150616Y18325D01*
X151069Y17231D01*
X151791Y16291D01*
X152731Y15569D01*
X153825Y15116D01*
X155000Y14961D01*
X156175Y15116D01*
X157269Y15569D01*
X158209Y16291D01*
X158931Y17231D01*
X159384Y18325D01*
X159539Y19500D01*
X159384Y20675D01*
X158931Y21769D01*
X158209Y22709D01*
X157582Y23191D01*
X157753Y23690D01*
X193942Y23422D01*
X194101Y22948D01*
X193791Y22709D01*
X193069Y21769D01*
X192616Y20675D01*
X192461Y19500D01*
X192616Y18325D01*
X193069Y17231D01*
X193791Y16291D01*
X194731Y15569D01*
X195825Y15116D01*
X197000Y14961D01*
X198175Y15116D01*
X199269Y15569D01*
X200209Y16291D01*
X200931Y17231D01*
X201384Y18325D01*
X201539Y19500D01*
X201384Y20675D01*
X200931Y21769D01*
X200209Y22709D01*
X199957Y22903D01*
X200120Y23376D01*
X215356Y23263D01*
X215611Y22833D01*
X215145Y21961D01*
X214630Y20264D01*
X214456Y18500D01*
X214630Y16736D01*
X215145Y15039D01*
X215981Y13476D01*
X217105Y12105D01*
X218476Y10981D01*
X220039Y10145D01*
X221736Y9630D01*
X223500Y9456D01*
X225264Y9630D01*
X226961Y10145D01*
X228524Y10981D01*
X229895Y12105D01*
X231019Y13476D01*
X231855Y15039D01*
X232370Y16736D01*
X232544Y18500D01*
X232370Y20264D01*
X231855Y21961D01*
X231453Y22714D01*
X231711Y23142D01*
X253138Y22983D01*
X253139Y22983D01*
X253141Y22983D01*
X253335Y23021D01*
X253528Y23058D01*
X253530Y23059D01*
X253532Y23059D01*
X253696Y23168D01*
X253861Y23276D01*
X253862Y23278D01*
X253863Y23279D01*
X254058Y23472D01*
X254126Y23427D01*
X254128Y23426D01*
X254129Y23425D01*
X254324Y23386D01*
X254516Y23348D01*
X282848Y23249D01*
X283104Y22820D01*
X282645Y21961D01*
X282130Y20264D01*
X281956Y18500D01*
X282130Y16736D01*
X282645Y15039D01*
X283481Y13476D01*
X284605Y12105D01*
X285976Y10981D01*
X287539Y10145D01*
X289236Y9630D01*
X291000Y9456D01*
X292764Y9630D01*
X294461Y10145D01*
X296024Y10981D01*
X297395Y12105D01*
X298519Y13476D01*
X299355Y15039D01*
X299870Y16736D01*
X300044Y18500D01*
X299870Y20264D01*
X299355Y21961D01*
X298926Y22764D01*
X299183Y23193D01*
X691642Y21833D01*
X691650Y21826D01*
X692000Y21425D01*
X692000Y1020D01*
X30854D01*
X30500Y1373D01*
X30503Y28420D01*
X15411Y28509D01*
X15000Y28542D01*
X14647Y28514D01*
X3000Y28583D01*
X3000Y469000D01*
Y469500D01*
X31000D01*
Y498980D01*
X694500Y498980D01*
D02*
G37*
%LPC*%
G36*
X622000Y130603D02*
Y127700D01*
X624903D01*
X624897Y127744D01*
X624494Y128717D01*
X623853Y129553D01*
X623017Y130194D01*
X622044Y130597D01*
X622000Y130603D01*
D02*
G37*
G36*
X610000D02*
X609956Y130597D01*
X608983Y130194D01*
X608147Y129553D01*
X607506Y128717D01*
X607103Y127744D01*
X607097Y127700D01*
X610000D01*
Y130603D01*
D02*
G37*
G36*
X471500Y130103D02*
Y127200D01*
X474403D01*
X474397Y127244D01*
X473994Y128217D01*
X473353Y129053D01*
X472517Y129694D01*
X471544Y130097D01*
X471500Y130103D01*
D02*
G37*
G36*
X459500D02*
X459456Y130097D01*
X458483Y129694D01*
X457647Y129053D01*
X457006Y128217D01*
X456603Y127244D01*
X456597Y127200D01*
X459500D01*
Y130103D01*
D02*
G37*
G36*
X333000Y128603D02*
Y125700D01*
X335903D01*
X335897Y125744D01*
X335494Y126717D01*
X334853Y127553D01*
X334017Y128194D01*
X333044Y128597D01*
X333000Y128603D01*
D02*
G37*
G36*
X321000D02*
X320956Y128597D01*
X319983Y128194D01*
X319147Y127553D01*
X318506Y126717D01*
X318103Y125744D01*
X318097Y125700D01*
X321000D01*
Y128603D01*
D02*
G37*
G36*
X612000Y130603D02*
Y126700D01*
X611000D01*
Y125700D01*
X607097D01*
X607103Y125656D01*
X607506Y124683D01*
X608147Y123847D01*
X608339Y123700D01*
X616400D01*
X623661D01*
X623853Y123847D01*
X624494Y124683D01*
X624897Y125656D01*
X624903Y125700D01*
X621000D01*
Y126700D01*
X620000D01*
Y130603D01*
X619956Y130597D01*
X618983Y130194D01*
X618147Y129553D01*
X617506Y128717D01*
X617103Y127744D01*
X617093Y127666D01*
X616400Y127734D01*
X615028Y127599D01*
X614906Y127677D01*
X614897Y127744D01*
X614494Y128717D01*
X613853Y129553D01*
X613017Y130194D01*
X612044Y130597D01*
X612000Y130603D01*
D02*
G37*
G36*
X461500Y130103D02*
Y126200D01*
X460500D01*
Y125200D01*
X456597D01*
X456603Y125156D01*
X457006Y124183D01*
X457647Y123347D01*
X457839Y123200D01*
X465900D01*
X473161D01*
X473353Y123347D01*
X473994Y124183D01*
X474397Y125156D01*
X474403Y125200D01*
X470500D01*
Y126200D01*
X469500D01*
Y130103D01*
X469456Y130097D01*
X468483Y129694D01*
X467647Y129053D01*
X467006Y128217D01*
X466603Y127244D01*
X466593Y127166D01*
X465900Y127234D01*
X464528Y127099D01*
X464406Y127177D01*
X464397Y127244D01*
X463994Y128217D01*
X463353Y129053D01*
X462517Y129694D01*
X461544Y130097D01*
X461500Y130103D01*
D02*
G37*
G36*
X323000Y128603D02*
Y124700D01*
X322000D01*
Y123700D01*
X318097D01*
X318103Y123656D01*
X318506Y122683D01*
X319147Y121847D01*
X319339Y121700D01*
X327400D01*
X334661D01*
X334853Y121847D01*
X335494Y122683D01*
X335897Y123656D01*
X335903Y123700D01*
X332000D01*
Y124700D01*
X331000D01*
Y128603D01*
X330956Y128597D01*
X329983Y128194D01*
X329147Y127553D01*
X328506Y126717D01*
X328103Y125744D01*
X328093Y125666D01*
X327400Y125734D01*
X326028Y125599D01*
X325906Y125677D01*
X325897Y125744D01*
X325494Y126717D01*
X324853Y127553D01*
X324017Y128194D01*
X323044Y128597D01*
X323000Y128603D01*
D02*
G37*
G36*
X243000Y117403D02*
Y114500D01*
X245903D01*
X245897Y114544D01*
X245494Y115517D01*
X244853Y116353D01*
X244017Y116994D01*
X243044Y117397D01*
X243000Y117403D01*
D02*
G37*
G36*
X241000D02*
X240956Y117397D01*
X239983Y116994D01*
X239147Y116353D01*
X238506Y115517D01*
X238103Y114544D01*
X238097Y114500D01*
X241000D01*
Y117403D01*
D02*
G37*
G36*
X622734Y117700D02*
X619400D01*
Y114366D01*
X620308Y114851D01*
X621374Y115726D01*
X622248Y116792D01*
X622734Y117700D01*
D02*
G37*
G36*
X613400D02*
X610066D01*
X610552Y116792D01*
X611426Y115726D01*
X612492Y114851D01*
X613400Y114366D01*
Y117700D01*
D02*
G37*
G36*
X472234Y117200D02*
X468900D01*
Y113866D01*
X469808Y114351D01*
X470874Y115226D01*
X471748Y116292D01*
X472234Y117200D01*
D02*
G37*
G36*
X462900D02*
X459566D01*
X460052Y116292D01*
X460926Y115226D01*
X461992Y114351D01*
X462900Y113866D01*
Y117200D01*
D02*
G37*
G36*
X333734Y115700D02*
X330400D01*
Y112366D01*
X331308Y112852D01*
X332374Y113726D01*
X333248Y114792D01*
X333734Y115700D01*
D02*
G37*
G36*
X324400D02*
X321066D01*
X321551Y114792D01*
X322426Y113726D01*
X323492Y112852D01*
X324400Y112366D01*
Y115700D01*
D02*
G37*
G36*
X245903Y112500D02*
X243000D01*
Y109597D01*
X243044Y109603D01*
X244017Y110006D01*
X244853Y110647D01*
X245494Y111483D01*
X245897Y112456D01*
X245903Y112500D01*
D02*
G37*
G36*
X241000D02*
X238097D01*
X238103Y112456D01*
X238506Y111483D01*
X239147Y110647D01*
X239983Y110006D01*
X240956Y109603D01*
X241000Y109597D01*
Y112500D01*
D02*
G37*
G36*
X198000Y43403D02*
Y40500D01*
X200903D01*
X200897Y40544D01*
X200494Y41517D01*
X199853Y42353D01*
X199017Y42994D01*
X198044Y43397D01*
X198000Y43403D01*
D02*
G37*
G36*
X196000D02*
X195956Y43397D01*
X194983Y42994D01*
X194147Y42353D01*
X193506Y41517D01*
X193103Y40544D01*
X193097Y40500D01*
X196000D01*
Y43403D01*
D02*
G37*
G36*
X140500Y39874D02*
Y37500D01*
X142874D01*
X142557Y38265D01*
X141996Y38996D01*
X141265Y39557D01*
X140500Y39874D01*
D02*
G37*
G36*
X138500D02*
X137735Y39557D01*
X137004Y38996D01*
X136443Y38265D01*
X136126Y37500D01*
X138500D01*
Y39874D01*
D02*
G37*
G36*
X200903Y38500D02*
X198000D01*
Y35597D01*
X198044Y35603D01*
X199017Y36006D01*
X199853Y36647D01*
X200494Y37483D01*
X200897Y38456D01*
X200903Y38500D01*
D02*
G37*
G36*
X196000D02*
X193097D01*
X193103Y38456D01*
X193506Y37483D01*
X194147Y36647D01*
X194983Y36006D01*
X195956Y35603D01*
X196000Y35597D01*
Y38500D01*
D02*
G37*
G36*
X123634Y42668D02*
X122590Y42531D01*
X121617Y42128D01*
X120781Y41487D01*
X120140Y40651D01*
X119737Y39678D01*
X119599Y38634D01*
X119737Y37590D01*
X120140Y36617D01*
X120781Y35781D01*
X121617Y35140D01*
X122590Y34737D01*
X123634Y34599D01*
X124678Y34737D01*
X125651Y35140D01*
X126487Y35781D01*
X127128Y36617D01*
X127531Y37590D01*
X127668Y38634D01*
X127531Y39678D01*
X127128Y40651D01*
X126487Y41487D01*
X125651Y42128D01*
X124678Y42531D01*
X123634Y42668D01*
D02*
G37*
G36*
X142874Y35500D02*
X140500D01*
Y33126D01*
X141265Y33443D01*
X141996Y34004D01*
X142557Y34735D01*
X142874Y35500D01*
D02*
G37*
G36*
X138500D02*
X136126D01*
X136443Y34735D01*
X137004Y34004D01*
X137735Y33443D01*
X138500Y33126D01*
Y35500D01*
D02*
G37*
G36*
X197000Y34039D02*
X195825Y33884D01*
X194731Y33431D01*
X193791Y32709D01*
X193069Y31769D01*
X192616Y30675D01*
X192461Y29500D01*
X192616Y28325D01*
X193069Y27231D01*
X193791Y26291D01*
X194731Y25569D01*
X195825Y25116D01*
X197000Y24961D01*
X198175Y25116D01*
X199269Y25569D01*
X200209Y26291D01*
X200931Y27231D01*
X201384Y28325D01*
X201539Y29500D01*
X201384Y30675D01*
X200931Y31769D01*
X200209Y32709D01*
X199269Y33431D01*
X198175Y33884D01*
X197000Y34039D01*
D02*
G37*
G36*
X685000Y130700D02*
X682000D01*
Y127700D01*
X685000D01*
Y130700D01*
D02*
G37*
G36*
X670000D02*
X667000D01*
Y127700D01*
X670000D01*
Y130700D01*
D02*
G37*
G36*
X534500Y130200D02*
X531500D01*
Y127200D01*
X534500D01*
Y130200D01*
D02*
G37*
G36*
X519500D02*
X516500D01*
Y127200D01*
X519500D01*
Y130200D01*
D02*
G37*
G36*
X396000Y128700D02*
X393000D01*
Y125700D01*
X396000D01*
Y128700D01*
D02*
G37*
G36*
X381000D02*
X378000D01*
Y125700D01*
X381000D01*
Y128700D01*
D02*
G37*
G36*
X680000Y130700D02*
X678250D01*
Y123450D01*
X685000D01*
Y125700D01*
X681000D01*
Y126700D01*
X680000D01*
Y130700D01*
D02*
G37*
G36*
X672750D02*
X672000D01*
Y126700D01*
X671000D01*
Y125700D01*
X667000D01*
Y123450D01*
X672750D01*
Y130700D01*
D02*
G37*
G36*
X529500Y130200D02*
X527750D01*
Y122950D01*
X534500D01*
Y125200D01*
X530500D01*
Y126200D01*
X529500D01*
Y130200D01*
D02*
G37*
G36*
X522250D02*
X521500D01*
Y126200D01*
X520500D01*
Y125200D01*
X516500D01*
Y122950D01*
X522250D01*
Y130200D01*
D02*
G37*
G36*
X391000Y128700D02*
X389250D01*
Y121450D01*
X396000D01*
Y123700D01*
X392000D01*
Y124700D01*
X391000D01*
Y128700D01*
D02*
G37*
G36*
X383750D02*
X383000D01*
Y124700D01*
X382000D01*
Y123700D01*
X378000D01*
Y121450D01*
X383750D01*
Y128700D01*
D02*
G37*
G36*
X683000Y117950D02*
X678250D01*
Y113200D01*
X683000D01*
Y117950D01*
D02*
G37*
G36*
X672750D02*
X668000D01*
Y113200D01*
X672750D01*
Y117950D01*
D02*
G37*
G36*
X532500Y117450D02*
X527750D01*
Y112700D01*
X532500D01*
Y117450D01*
D02*
G37*
G36*
X522250D02*
X517500D01*
Y112700D01*
X522250D01*
Y117450D01*
D02*
G37*
G36*
X394000Y115950D02*
X389250D01*
Y111200D01*
X394000D01*
Y115950D01*
D02*
G37*
G36*
X383750D02*
X379000D01*
Y111200D01*
X383750D01*
Y115950D01*
D02*
G37*
G36*
X678701Y77115D02*
X677218Y76969D01*
X675793Y76537D01*
X674479Y75835D01*
X673327Y74889D01*
X672382Y73738D01*
X671680Y72424D01*
X671247Y70998D01*
X671101Y69516D01*
X671247Y68033D01*
X671680Y66607D01*
X672382Y65294D01*
X673327Y64142D01*
X674479Y63197D01*
X675793Y62495D01*
X677218Y62062D01*
X678701Y61916D01*
X680183Y62062D01*
X681609Y62495D01*
X682923Y63197D01*
X684074Y64142D01*
X685020Y65294D01*
X685722Y66607D01*
X686154Y68033D01*
X686300Y69516D01*
X686154Y70998D01*
X685722Y72424D01*
X685020Y73738D01*
X684074Y74889D01*
X682923Y75835D01*
X681609Y76537D01*
X680183Y76969D01*
X678701Y77115D01*
D02*
G37*
G36*
X611811D02*
X610328Y76969D01*
X608903Y76537D01*
X607589Y75835D01*
X606437Y74889D01*
X605492Y73738D01*
X604790Y72424D01*
X604357Y70998D01*
X604211Y69516D01*
X604357Y68033D01*
X604790Y66607D01*
X605492Y65294D01*
X606437Y64142D01*
X607589Y63197D01*
X608903Y62495D01*
X610328Y62062D01*
X611811Y61916D01*
X613294Y62062D01*
X614719Y62495D01*
X616033Y63197D01*
X617185Y64142D01*
X618130Y65294D01*
X618832Y66607D01*
X619265Y68033D01*
X619411Y69516D01*
X619265Y70998D01*
X618832Y72424D01*
X618130Y73738D01*
X617185Y74889D01*
X616033Y75835D01*
X614719Y76537D01*
X613294Y76969D01*
X611811Y77115D01*
D02*
G37*
G36*
X528189Y76615D02*
X526706Y76469D01*
X525281Y76037D01*
X523967Y75335D01*
X522815Y74389D01*
X521870Y73238D01*
X521168Y71924D01*
X520735Y70498D01*
X520589Y69016D01*
X520735Y67533D01*
X521168Y66107D01*
X521870Y64794D01*
X522815Y63642D01*
X523967Y62697D01*
X525281Y61995D01*
X526706Y61562D01*
X528189Y61416D01*
X529672Y61562D01*
X531097Y61995D01*
X532411Y62697D01*
X533563Y63642D01*
X534508Y64794D01*
X535210Y66107D01*
X535642Y67533D01*
X535789Y69016D01*
X535642Y70498D01*
X535210Y71924D01*
X534508Y73238D01*
X533563Y74389D01*
X532411Y75335D01*
X531097Y76037D01*
X529672Y76469D01*
X528189Y76615D01*
D02*
G37*
G36*
X461299D02*
X459817Y76469D01*
X458391Y76037D01*
X457077Y75335D01*
X455926Y74389D01*
X454980Y73238D01*
X454278Y71924D01*
X453846Y70498D01*
X453700Y69016D01*
X453846Y67533D01*
X454278Y66107D01*
X454980Y64794D01*
X455926Y63642D01*
X457077Y62697D01*
X458391Y61995D01*
X459817Y61562D01*
X461299Y61416D01*
X462782Y61562D01*
X464207Y61995D01*
X465521Y62697D01*
X466673Y63642D01*
X467618Y64794D01*
X468320Y66107D01*
X468753Y67533D01*
X468899Y69016D01*
X468753Y70498D01*
X468320Y71924D01*
X467618Y73238D01*
X466673Y74389D01*
X465521Y75335D01*
X464207Y76037D01*
X462782Y76469D01*
X461299Y76615D01*
D02*
G37*
G36*
X390701Y75115D02*
X389218Y74969D01*
X387793Y74537D01*
X386479Y73835D01*
X385327Y72890D01*
X384382Y71738D01*
X383680Y70424D01*
X383247Y68998D01*
X383101Y67516D01*
X383247Y66033D01*
X383680Y64608D01*
X384382Y63294D01*
X385327Y62142D01*
X386479Y61197D01*
X387793Y60495D01*
X389218Y60062D01*
X390701Y59916D01*
X392183Y60062D01*
X393609Y60495D01*
X394923Y61197D01*
X396075Y62142D01*
X397020Y63294D01*
X397722Y64608D01*
X398154Y66033D01*
X398300Y67516D01*
X398154Y68998D01*
X397722Y70424D01*
X397020Y71738D01*
X396075Y72890D01*
X394923Y73835D01*
X393609Y74537D01*
X392183Y74969D01*
X390701Y75115D01*
D02*
G37*
G36*
X323811D02*
X322328Y74969D01*
X320903Y74537D01*
X319589Y73835D01*
X318437Y72890D01*
X317492Y71738D01*
X316790Y70424D01*
X316357Y68998D01*
X316212Y67516D01*
X316357Y66033D01*
X316790Y64608D01*
X317492Y63294D01*
X318437Y62142D01*
X319589Y61197D01*
X320903Y60495D01*
X322328Y60062D01*
X323811Y59916D01*
X325294Y60062D01*
X326719Y60495D01*
X328033Y61197D01*
X329185Y62142D01*
X330130Y63294D01*
X330832Y64608D01*
X331265Y66033D01*
X331411Y67516D01*
X331265Y68998D01*
X330832Y70424D01*
X330130Y71738D01*
X329185Y72890D01*
X328033Y73835D01*
X326719Y74537D01*
X325294Y74969D01*
X323811Y75115D01*
D02*
G37*
G36*
X564000Y51403D02*
Y48500D01*
X566903D01*
X566897Y48544D01*
X566494Y49517D01*
X565853Y50353D01*
X565017Y50994D01*
X564044Y51397D01*
X564000Y51403D01*
D02*
G37*
G36*
X562000D02*
X561956Y51397D01*
X560983Y50994D01*
X560147Y50353D01*
X559506Y49517D01*
X559103Y48544D01*
X559097Y48500D01*
X562000D01*
Y51403D01*
D02*
G37*
G36*
X566903Y46500D02*
X564000D01*
Y43597D01*
X564044Y43603D01*
X565017Y44006D01*
X565853Y44647D01*
X566494Y45483D01*
X566897Y46456D01*
X566903Y46500D01*
D02*
G37*
G36*
X562000D02*
X559097D01*
X559103Y46456D01*
X559506Y45483D01*
X560147Y44647D01*
X560983Y44006D01*
X561956Y43603D01*
X562000Y43597D01*
Y46500D01*
D02*
G37*
G36*
X690295Y458065D02*
X680976D01*
Y448746D01*
X690295D01*
Y458065D01*
D02*
G37*
G36*
X673825Y458105D02*
X672608Y457945D01*
X671475Y457476D01*
X670502Y456729D01*
X669755Y455755D01*
X669285Y454622D01*
X669125Y453406D01*
X669285Y452189D01*
X669755Y451056D01*
X670502Y450082D01*
X671475Y449335D01*
X672608Y448866D01*
X673825Y448706D01*
X675041Y448866D01*
X676175Y449335D01*
X677148Y450082D01*
X677895Y451056D01*
X678364Y452189D01*
X678524Y453406D01*
X678364Y454622D01*
X677895Y455755D01*
X677148Y456729D01*
X676175Y457476D01*
X675041Y457945D01*
X673825Y458105D01*
D02*
G37*
G36*
X686636Y445658D02*
Y442594D01*
X689700D01*
X689688Y442680D01*
X689269Y443692D01*
X688602Y444561D01*
X687734Y445228D01*
X686722Y445647D01*
X686636Y445658D01*
D02*
G37*
G36*
X684636D02*
X684550Y445647D01*
X683538Y445228D01*
X682669Y444561D01*
X682003Y443692D01*
X681583Y442680D01*
X681572Y442594D01*
X684636D01*
Y445658D01*
D02*
G37*
G36*
X702644Y455040D02*
X701173Y454895D01*
X699758Y454466D01*
X698455Y453769D01*
X697312Y452832D01*
X696374Y451689D01*
X695677Y450386D01*
X695248Y448971D01*
X695104Y447500D01*
X695248Y446029D01*
X695677Y444615D01*
X696374Y443311D01*
X697312Y442168D01*
X698455Y441230D01*
X699758Y440534D01*
X701173Y440105D01*
X702644Y439960D01*
X704115Y440105D01*
X705529Y440534D01*
X706833Y441230D01*
X707975Y442168D01*
X708913Y443311D01*
X709610Y444615D01*
X710039Y446029D01*
X710184Y447500D01*
X710039Y448971D01*
X709610Y450386D01*
X708913Y451689D01*
X707975Y452832D01*
X706833Y453769D01*
X705529Y454466D01*
X704115Y454895D01*
X702644Y455040D01*
D02*
G37*
G36*
X149500Y446034D02*
X148456Y445897D01*
X147483Y445494D01*
X146647Y444853D01*
X146006Y444017D01*
X145603Y443044D01*
X145466Y442000D01*
X145603Y440956D01*
X146006Y439983D01*
X146647Y439147D01*
X147483Y438506D01*
X148456Y438103D01*
X149500Y437965D01*
X150544Y438103D01*
X151517Y438506D01*
X152353Y439147D01*
X152994Y439983D01*
X153397Y440956D01*
X153498Y441721D01*
X154002D01*
X154103Y440956D01*
X154506Y439983D01*
X155147Y439147D01*
X155983Y438506D01*
X156956Y438103D01*
X158000Y437965D01*
X159044Y438103D01*
X160017Y438506D01*
X160853Y439147D01*
X161494Y439983D01*
X161897Y440956D01*
X161998Y441721D01*
X162502D01*
X162603Y440956D01*
X163006Y439983D01*
X163647Y439147D01*
X164483Y438506D01*
X165456Y438103D01*
X166500Y437965D01*
X167544Y438103D01*
X168517Y438506D01*
X169353Y439147D01*
X169994Y439983D01*
X170397Y440956D01*
X170535Y442000D01*
X170397Y443044D01*
X169994Y444017D01*
X169353Y444853D01*
X168517Y445494D01*
X167544Y445897D01*
X166500Y446034D01*
X165456Y445897D01*
X164483Y445494D01*
X163647Y444853D01*
X163006Y444017D01*
X162603Y443044D01*
X162502Y442279D01*
X161998D01*
X161897Y443044D01*
X161494Y444017D01*
X160853Y444853D01*
X160017Y445494D01*
X159044Y445897D01*
X158000Y446034D01*
X156956Y445897D01*
X155983Y445494D01*
X155147Y444853D01*
X154506Y444017D01*
X154103Y443044D01*
X154002Y442279D01*
X153498D01*
X153397Y443044D01*
X152994Y444017D01*
X152353Y444853D01*
X151517Y445494D01*
X150544Y445897D01*
X149500Y446034D01*
D02*
G37*
G36*
X49819Y447060D02*
X48590Y446899D01*
X47444Y446424D01*
X46461Y445669D01*
X45706Y444686D01*
X45231Y443540D01*
X45070Y442311D01*
X45231Y441082D01*
X45706Y439936D01*
X46461Y438953D01*
X47444Y438198D01*
X48590Y437724D01*
X49819Y437562D01*
X51048Y437724D01*
X52193Y438198D01*
X53177Y438953D01*
X53932Y439936D01*
X54406Y441082D01*
X54568Y442311D01*
X54406Y443540D01*
X53932Y444686D01*
X53177Y445669D01*
X52193Y446424D01*
X51048Y446899D01*
X49819Y447060D01*
D02*
G37*
G36*
X38008D02*
X36779Y446899D01*
X35633Y446424D01*
X34650Y445669D01*
X33895Y444686D01*
X33420Y443540D01*
X33259Y442311D01*
X33420Y441082D01*
X33895Y439936D01*
X34650Y438953D01*
X35633Y438198D01*
X36779Y437724D01*
X38008Y437562D01*
X39237Y437724D01*
X40383Y438198D01*
X41366Y438953D01*
X42121Y439936D01*
X42595Y441082D01*
X42757Y442311D01*
X42595Y443540D01*
X42121Y444686D01*
X41366Y445669D01*
X40383Y446424D01*
X39237Y446899D01*
X38008Y447060D01*
D02*
G37*
G36*
X689700Y440594D02*
X686636D01*
Y437531D01*
X686722Y437542D01*
X687734Y437961D01*
X688602Y438628D01*
X689269Y439497D01*
X689688Y440509D01*
X689700Y440594D01*
D02*
G37*
G36*
X684636D02*
X681572D01*
X681583Y440509D01*
X682003Y439497D01*
X682669Y438628D01*
X683538Y437961D01*
X684550Y437542D01*
X684636Y437531D01*
Y440594D01*
D02*
G37*
G36*
X673825Y446294D02*
X672608Y446134D01*
X671475Y445665D01*
X670502Y444918D01*
X669755Y443944D01*
X669285Y442811D01*
X669125Y441595D01*
X669285Y440378D01*
X669755Y439245D01*
X670502Y438271D01*
X671475Y437525D01*
X672608Y437055D01*
X673825Y436895D01*
X675041Y437055D01*
X676175Y437525D01*
X677148Y438271D01*
X677895Y439245D01*
X678364Y440378D01*
X678524Y441595D01*
X678364Y442811D01*
X677895Y443944D01*
X677148Y444918D01*
X676175Y445665D01*
X675041Y446134D01*
X673825Y446294D01*
D02*
G37*
G36*
X141500Y441035D02*
X140456Y440897D01*
X139483Y440494D01*
X138647Y439853D01*
X138006Y439017D01*
X137603Y438044D01*
X137466Y437000D01*
X137603Y435956D01*
X138006Y434983D01*
X138647Y434147D01*
X139483Y433506D01*
X140456Y433103D01*
X141500Y432966D01*
X142544Y433103D01*
X143517Y433506D01*
X144353Y434147D01*
X144994Y434983D01*
X145397Y435956D01*
X145535Y437000D01*
X145397Y438044D01*
X144994Y439017D01*
X144353Y439853D01*
X143517Y440494D01*
X142544Y440897D01*
X141500Y441035D01*
D02*
G37*
G36*
X39008Y434613D02*
Y431500D01*
X42121D01*
X42108Y431599D01*
X41684Y432622D01*
X41010Y433502D01*
X40130Y434176D01*
X39107Y434600D01*
X39008Y434613D01*
D02*
G37*
G36*
X37008D02*
X36909Y434600D01*
X35885Y434176D01*
X35006Y433502D01*
X34332Y432622D01*
X33907Y431599D01*
X33895Y431500D01*
X37008D01*
Y434613D01*
D02*
G37*
G36*
X249500Y431374D02*
Y429000D01*
X251874D01*
X251557Y429765D01*
X250996Y430496D01*
X250265Y431057D01*
X249500Y431374D01*
D02*
G37*
G36*
X247500D02*
X246735Y431057D01*
X246004Y430496D01*
X245443Y429765D01*
X245126Y429000D01*
X247500D01*
Y431374D01*
D02*
G37*
G36*
X87500Y436539D02*
X86325Y436384D01*
X85231Y435931D01*
X84291Y435209D01*
X83569Y434269D01*
X83116Y433175D01*
X82961Y432000D01*
X83116Y430825D01*
X83569Y429731D01*
X84291Y428791D01*
X85231Y428069D01*
X86325Y427616D01*
X87500Y427461D01*
X88675Y427616D01*
X89769Y428069D01*
X90709Y428791D01*
X91431Y429731D01*
X91884Y430825D01*
X92039Y432000D01*
X91884Y433175D01*
X91431Y434269D01*
X90709Y435209D01*
X89769Y435931D01*
X88675Y436384D01*
X87500Y436539D01*
D02*
G37*
G36*
X42121Y429500D02*
X39008D01*
Y426387D01*
X39107Y426400D01*
X40130Y426824D01*
X41010Y427498D01*
X41684Y428377D01*
X42108Y429401D01*
X42121Y429500D01*
D02*
G37*
G36*
X37008D02*
X33895D01*
X33907Y429401D01*
X34332Y428377D01*
X35006Y427498D01*
X35885Y426824D01*
X36909Y426400D01*
X37008Y426387D01*
Y429500D01*
D02*
G37*
G36*
X49819Y435249D02*
X48590Y435087D01*
X47444Y434613D01*
X46461Y433858D01*
X45706Y432875D01*
X45231Y431729D01*
X45070Y430500D01*
X45231Y429271D01*
X45706Y428125D01*
X46461Y427142D01*
X47444Y426387D01*
X48590Y425913D01*
X49819Y425751D01*
X51048Y425913D01*
X52193Y426387D01*
X53177Y427142D01*
X53932Y428125D01*
X54406Y429271D01*
X54568Y430500D01*
X54406Y431729D01*
X53932Y432875D01*
X53177Y433858D01*
X52193Y434613D01*
X51048Y435087D01*
X49819Y435249D01*
D02*
G37*
G36*
X251874Y427000D02*
X249500D01*
Y424626D01*
X250265Y424943D01*
X250996Y425504D01*
X251557Y426235D01*
X251874Y427000D01*
D02*
G37*
G36*
X247500D02*
X245126D01*
X245443Y426235D01*
X246004Y425504D01*
X246735Y424943D01*
X247500Y424626D01*
Y427000D01*
D02*
G37*
G36*
X21000Y437941D02*
X19548Y437798D01*
X18152Y437375D01*
X16866Y436687D01*
X15738Y435762D01*
X14813Y434634D01*
X14125Y433348D01*
X13702Y431952D01*
X13559Y430500D01*
X13702Y429048D01*
X14125Y427652D01*
X14813Y426366D01*
X15738Y425238D01*
X16866Y424313D01*
X18152Y423625D01*
X19548Y423202D01*
X21000Y423059D01*
X22452Y423202D01*
X23848Y423625D01*
X25134Y424313D01*
X26262Y425238D01*
X27187Y426366D01*
X27875Y427652D01*
X28298Y429048D01*
X28441Y430500D01*
X28298Y431952D01*
X27875Y433348D01*
X27187Y434634D01*
X26262Y435762D01*
X25134Y436687D01*
X23848Y437375D01*
X22452Y437798D01*
X21000Y437941D01*
D02*
G37*
G36*
X218500Y429035D02*
X217456Y428897D01*
X216483Y428494D01*
X215647Y427853D01*
X215006Y427017D01*
X214603Y426044D01*
X214465Y425000D01*
X214603Y423956D01*
X215006Y422983D01*
X215647Y422147D01*
X216483Y421506D01*
X217456Y421103D01*
X218500Y420965D01*
X219544Y421103D01*
X220517Y421506D01*
X221353Y422147D01*
X221994Y422983D01*
X222397Y423956D01*
X222534Y425000D01*
X222397Y426044D01*
X221994Y427017D01*
X221353Y427853D01*
X220517Y428494D01*
X219544Y428897D01*
X218500Y429035D01*
D02*
G37*
G36*
X453500Y420403D02*
Y417500D01*
X456403D01*
X456397Y417544D01*
X455994Y418517D01*
X455353Y419353D01*
X454517Y419994D01*
X453544Y420397D01*
X453500Y420403D01*
D02*
G37*
G36*
X451500D02*
X451456Y420397D01*
X450483Y419994D01*
X449647Y419353D01*
X449006Y418517D01*
X448603Y417544D01*
X448597Y417500D01*
X451500D01*
Y420403D01*
D02*
G37*
G36*
X402528Y426039D02*
X401353Y425884D01*
X400258Y425431D01*
X399318Y424709D01*
X398597Y423769D01*
X398143Y422675D01*
X397989Y421500D01*
X398143Y420325D01*
X398597Y419231D01*
X399318Y418291D01*
X400258Y417569D01*
X401353Y417116D01*
X402528Y416961D01*
X403702Y417116D01*
X404797Y417569D01*
X405737Y418291D01*
X406458Y419231D01*
X406912Y420325D01*
X407066Y421500D01*
X406912Y422675D01*
X406458Y423769D01*
X405737Y424709D01*
X404797Y425431D01*
X403702Y425884D01*
X402528Y426039D01*
D02*
G37*
G36*
X343472D02*
X342298Y425884D01*
X341203Y425431D01*
X340263Y424709D01*
X339542Y423769D01*
X339088Y422675D01*
X338934Y421500D01*
X339088Y420325D01*
X339542Y419231D01*
X340263Y418291D01*
X341203Y417569D01*
X342298Y417116D01*
X343472Y416961D01*
X344647Y417116D01*
X345742Y417569D01*
X346682Y418291D01*
X347403Y419231D01*
X347857Y420325D01*
X348011Y421500D01*
X347857Y422675D01*
X347403Y423769D01*
X346682Y424709D01*
X345742Y425431D01*
X344647Y425884D01*
X343472Y426039D01*
D02*
G37*
G36*
X641000Y425039D02*
X639825Y424884D01*
X638731Y424431D01*
X637791Y423709D01*
X637069Y422769D01*
X636616Y421675D01*
X636461Y420500D01*
X636616Y419325D01*
X637069Y418231D01*
X637791Y417291D01*
X638731Y416569D01*
X639825Y416116D01*
X641000Y415961D01*
X642175Y416116D01*
X643269Y416569D01*
X644209Y417291D01*
X644931Y418231D01*
X645384Y419325D01*
X645539Y420500D01*
X645384Y421675D01*
X644931Y422769D01*
X644209Y423709D01*
X643269Y424431D01*
X642175Y424884D01*
X641000Y425039D01*
D02*
G37*
G36*
X49819Y423438D02*
X48590Y423276D01*
X47444Y422802D01*
X46461Y422047D01*
X45706Y421064D01*
X45231Y419918D01*
X45070Y418689D01*
X45231Y417460D01*
X45706Y416314D01*
X46461Y415331D01*
X47444Y414576D01*
X48590Y414102D01*
X49819Y413940D01*
X51048Y414102D01*
X52193Y414576D01*
X53177Y415331D01*
X53932Y416314D01*
X54406Y417460D01*
X54568Y418689D01*
X54406Y419918D01*
X53932Y421064D01*
X53177Y422047D01*
X52193Y422802D01*
X51048Y423276D01*
X49819Y423438D01*
D02*
G37*
G36*
X38008D02*
X36779Y423276D01*
X35633Y422802D01*
X34650Y422047D01*
X33895Y421064D01*
X33420Y419918D01*
X33259Y418689D01*
X33420Y417460D01*
X33895Y416314D01*
X34650Y415331D01*
X35633Y414576D01*
X36779Y414102D01*
X38008Y413940D01*
X39237Y414102D01*
X40383Y414576D01*
X41366Y415331D01*
X42121Y416314D01*
X42595Y417460D01*
X42757Y418689D01*
X42595Y419918D01*
X42121Y421064D01*
X41366Y422047D01*
X40383Y422802D01*
X39237Y423276D01*
X38008Y423438D01*
D02*
G37*
G36*
X456403Y415500D02*
X453500D01*
Y412597D01*
X453544Y412603D01*
X454517Y413006D01*
X455353Y413647D01*
X455994Y414483D01*
X456397Y415456D01*
X456403Y415500D01*
D02*
G37*
G36*
X451500D02*
X448597D01*
X448603Y415456D01*
X449006Y414483D01*
X449647Y413647D01*
X450483Y413006D01*
X451456Y412603D01*
X451500Y412597D01*
Y415500D01*
D02*
G37*
G36*
X472500Y421039D02*
X471325Y420884D01*
X470231Y420431D01*
X469291Y419709D01*
X468569Y418769D01*
X468116Y417675D01*
X467961Y416500D01*
X468116Y415325D01*
X468569Y414231D01*
X469291Y413291D01*
X470231Y412569D01*
X471325Y412116D01*
X472500Y411961D01*
X473675Y412116D01*
X474769Y412569D01*
X475709Y413291D01*
X476431Y414231D01*
X476884Y415325D01*
X477039Y416500D01*
X476884Y417675D01*
X476431Y418769D01*
X475709Y419709D01*
X474769Y420431D01*
X473675Y420884D01*
X472500Y421039D01*
D02*
G37*
G36*
X212551Y420551D02*
X203449D01*
Y411449D01*
X212551D01*
Y420551D01*
D02*
G37*
G36*
X87000Y419039D02*
X85825Y418884D01*
X84731Y418431D01*
X83791Y417709D01*
X83069Y416769D01*
X82616Y415675D01*
X82461Y414500D01*
X82616Y413325D01*
X83069Y412231D01*
X83791Y411291D01*
X84731Y410569D01*
X85825Y410116D01*
X87000Y409961D01*
X88175Y410116D01*
X89269Y410569D01*
X90209Y411291D01*
X90931Y412231D01*
X91384Y413325D01*
X91539Y414500D01*
X91384Y415675D01*
X90931Y416769D01*
X90209Y417709D01*
X89269Y418431D01*
X88175Y418884D01*
X87000Y419039D01*
D02*
G37*
G36*
X61000Y412535D02*
X59956Y412397D01*
X58983Y411994D01*
X58147Y411353D01*
X57506Y410517D01*
X57103Y409544D01*
X56966Y408500D01*
X57103Y407456D01*
X57506Y406483D01*
X58147Y405647D01*
X58983Y405006D01*
X59956Y404603D01*
X61000Y404465D01*
X62044Y404603D01*
X63017Y405006D01*
X63853Y405647D01*
X64494Y406483D01*
X64897Y407456D01*
X65035Y408500D01*
X64897Y409544D01*
X64494Y410517D01*
X63853Y411353D01*
X63017Y411994D01*
X62044Y412397D01*
X61000Y412535D01*
D02*
G37*
G36*
X208000Y410590D02*
X206812Y410434D01*
X205705Y409975D01*
X204754Y409246D01*
X204025Y408295D01*
X203566Y407188D01*
X203410Y406000D01*
X203566Y404812D01*
X204025Y403705D01*
X204754Y402754D01*
X205705Y402025D01*
X206812Y401566D01*
X208000Y401409D01*
X209188Y401566D01*
X210295Y402025D01*
X211246Y402754D01*
X211976Y403705D01*
X212434Y404812D01*
X212591Y406000D01*
X212434Y407188D01*
X211976Y408295D01*
X211246Y409246D01*
X210295Y409975D01*
X209188Y410434D01*
X208000Y410590D01*
D02*
G37*
G36*
X690295Y409160D02*
X680976D01*
Y399840D01*
X690295D01*
Y409160D01*
D02*
G37*
G36*
X673825Y409200D02*
X672608Y409039D01*
X671475Y408570D01*
X670502Y407823D01*
X669755Y406850D01*
X669285Y405716D01*
X669125Y404500D01*
X669285Y403284D01*
X669755Y402150D01*
X670502Y401177D01*
X671475Y400430D01*
X672608Y399960D01*
X673825Y399800D01*
X675041Y399960D01*
X676175Y400430D01*
X677148Y401177D01*
X677895Y402150D01*
X678364Y403284D01*
X678524Y404500D01*
X678364Y405716D01*
X677895Y406850D01*
X677148Y407823D01*
X676175Y408570D01*
X675041Y409039D01*
X673825Y409200D01*
D02*
G37*
G36*
X137000Y406534D02*
X135956Y406397D01*
X134983Y405994D01*
X134147Y405353D01*
X133506Y404517D01*
X133103Y403544D01*
X132966Y402500D01*
X133103Y401456D01*
X133506Y400483D01*
X134147Y399647D01*
X134983Y399006D01*
X135956Y398603D01*
X137000Y398465D01*
X138044Y398603D01*
X139017Y399006D01*
X139853Y399647D01*
X140494Y400483D01*
X140897Y401456D01*
X141034Y402500D01*
X140897Y403544D01*
X140494Y404517D01*
X139853Y405353D01*
X139017Y405994D01*
X138044Y406397D01*
X137000Y406534D01*
D02*
G37*
G36*
X245000Y403034D02*
X243956Y402897D01*
X242983Y402494D01*
X242147Y401853D01*
X241506Y401017D01*
X241103Y400044D01*
X240966Y399000D01*
X241103Y397956D01*
X241506Y396983D01*
X242147Y396147D01*
X242983Y395506D01*
X243956Y395103D01*
X245000Y394966D01*
X246044Y395103D01*
X247017Y395506D01*
X247853Y396147D01*
X248494Y396983D01*
X248897Y397956D01*
X249035Y399000D01*
X248897Y400044D01*
X248494Y401017D01*
X247853Y401853D01*
X247017Y402494D01*
X246044Y402897D01*
X245000Y403034D01*
D02*
G37*
G36*
X686636Y396753D02*
Y393689D01*
X689700D01*
X689688Y393775D01*
X689269Y394787D01*
X688602Y395655D01*
X687734Y396322D01*
X686722Y396741D01*
X686636Y396753D01*
D02*
G37*
G36*
X684636D02*
X684550Y396741D01*
X683538Y396322D01*
X682669Y395655D01*
X682003Y394787D01*
X681583Y393775D01*
X681572Y393689D01*
X684636D01*
Y396753D01*
D02*
G37*
G36*
X208000Y400591D02*
X206812Y400434D01*
X205705Y399975D01*
X204754Y399246D01*
X204025Y398295D01*
X203566Y397188D01*
X203410Y396000D01*
X203566Y394812D01*
X204025Y393705D01*
X204754Y392754D01*
X205705Y392024D01*
X206812Y391566D01*
X208000Y391409D01*
X209188Y391566D01*
X210295Y392024D01*
X211246Y392754D01*
X211976Y393705D01*
X212434Y394812D01*
X212591Y396000D01*
X212434Y397188D01*
X211976Y398295D01*
X211246Y399246D01*
X210295Y399975D01*
X209188Y400434D01*
X208000Y400591D01*
D02*
G37*
G36*
X702644Y406135D02*
X701173Y405990D01*
X699758Y405561D01*
X698455Y404864D01*
X697312Y403926D01*
X696374Y402784D01*
X695677Y401480D01*
X695248Y400066D01*
X695104Y398594D01*
X695248Y397124D01*
X695677Y395709D01*
X696374Y394405D01*
X697312Y393263D01*
X698455Y392325D01*
X699758Y391628D01*
X701173Y391199D01*
X702644Y391054D01*
X704115Y391199D01*
X705529Y391628D01*
X706833Y392325D01*
X707975Y393263D01*
X708913Y394405D01*
X709610Y395709D01*
X710039Y397124D01*
X710184Y398594D01*
X710039Y400066D01*
X709610Y401480D01*
X708913Y402784D01*
X707975Y403926D01*
X706833Y404864D01*
X705529Y405561D01*
X704115Y405990D01*
X702644Y406135D01*
D02*
G37*
G36*
X684636Y391689D02*
X681572D01*
X681583Y391603D01*
X682003Y390591D01*
X682669Y389722D01*
X683538Y389056D01*
X684550Y388637D01*
X684636Y388625D01*
Y391689D01*
D02*
G37*
G36*
X689700D02*
X686636D01*
Y388625D01*
X686722Y388637D01*
X687734Y389056D01*
X688602Y389722D01*
X689269Y390591D01*
X689688Y391603D01*
X689700Y391689D01*
D02*
G37*
G36*
X166500Y391035D02*
X165456Y390897D01*
X164483Y390494D01*
X163647Y389853D01*
X163006Y389017D01*
X162667Y388199D01*
X162150Y388163D01*
X162140Y388166D01*
X161994Y388517D01*
X161353Y389353D01*
X160517Y389994D01*
X159544Y390397D01*
X158500Y390534D01*
X157456Y390397D01*
X156483Y389994D01*
X155647Y389353D01*
X155006Y388517D01*
X154603Y387544D01*
X154465Y386500D01*
X154603Y385456D01*
X155006Y384483D01*
X155647Y383647D01*
X156483Y383006D01*
X157456Y382603D01*
X158500Y382466D01*
X159544Y382603D01*
X160517Y383006D01*
X161353Y383647D01*
X161994Y384483D01*
X162333Y385301D01*
X162850Y385337D01*
X162860Y385334D01*
X163006Y384983D01*
X163647Y384147D01*
X164483Y383506D01*
X165456Y383103D01*
X166500Y382965D01*
X167544Y383103D01*
X168517Y383506D01*
X169353Y384147D01*
X169994Y384983D01*
X170397Y385956D01*
X170535Y387000D01*
X170397Y388044D01*
X169994Y389017D01*
X169353Y389853D01*
X168517Y390494D01*
X167544Y390897D01*
X166500Y391035D01*
D02*
G37*
G36*
X673825Y397389D02*
X672608Y397229D01*
X671475Y396759D01*
X670502Y396012D01*
X669755Y395039D01*
X669285Y393905D01*
X669125Y392689D01*
X669285Y391473D01*
X669755Y390339D01*
X670502Y389366D01*
X671475Y388619D01*
X672608Y388149D01*
X673825Y387989D01*
X675041Y388149D01*
X676175Y388619D01*
X677148Y389366D01*
X677895Y390339D01*
X678364Y391473D01*
X678524Y392689D01*
X678364Y393905D01*
X677895Y395039D01*
X677148Y396012D01*
X676175Y396759D01*
X675041Y397229D01*
X673825Y397389D01*
D02*
G37*
G36*
X150000Y389534D02*
X148956Y389397D01*
X147983Y388994D01*
X147147Y388353D01*
X146506Y387517D01*
X146103Y386544D01*
X146084Y386400D01*
X145571Y386332D01*
X145494Y386517D01*
X144853Y387353D01*
X144017Y387994D01*
X143044Y388397D01*
X142000Y388534D01*
X140956Y388397D01*
X139983Y387994D01*
X139147Y387353D01*
X138506Y386517D01*
X138103Y385544D01*
X137966Y384500D01*
X138103Y383456D01*
X138506Y382483D01*
X139147Y381647D01*
X139983Y381006D01*
X140956Y380603D01*
X142000Y380466D01*
X143044Y380603D01*
X144017Y381006D01*
X144853Y381647D01*
X145494Y382483D01*
X145897Y383456D01*
X145916Y383600D01*
X146429Y383668D01*
X146506Y383483D01*
X147147Y382647D01*
X147983Y382006D01*
X148956Y381603D01*
X150000Y381466D01*
X151044Y381603D01*
X152017Y382006D01*
X152853Y382647D01*
X153494Y383483D01*
X153897Y384456D01*
X154034Y385500D01*
X153897Y386544D01*
X153494Y387517D01*
X152853Y388353D01*
X152017Y388994D01*
X151044Y389397D01*
X150000Y389534D01*
D02*
G37*
G36*
X638500Y394539D02*
X637325Y394384D01*
X636231Y393931D01*
X635291Y393209D01*
X634569Y392269D01*
X634116Y391175D01*
X633961Y390000D01*
X634116Y388825D01*
X634569Y387731D01*
X635291Y386791D01*
X636231Y386069D01*
X637325Y385616D01*
X638500Y385461D01*
X639675Y385616D01*
X640769Y386069D01*
X641709Y386791D01*
X642431Y387731D01*
X642884Y388825D01*
X643039Y390000D01*
X642884Y391175D01*
X642431Y392269D01*
X641709Y393209D01*
X640769Y393931D01*
X639675Y394384D01*
X638500Y394539D01*
D02*
G37*
G36*
X71000Y387534D02*
X69956Y387397D01*
X68983Y386994D01*
X68147Y386353D01*
X67506Y385517D01*
X67103Y384544D01*
X66966Y383500D01*
X67103Y382456D01*
X67506Y381483D01*
X68147Y380647D01*
X68983Y380006D01*
X69956Y379603D01*
X71000Y379466D01*
X72044Y379603D01*
X73017Y380006D01*
X73853Y380647D01*
X74494Y381483D01*
X74897Y382456D01*
X75034Y383500D01*
X74897Y384544D01*
X74494Y385517D01*
X73853Y386353D01*
X73017Y386994D01*
X72044Y387397D01*
X71000Y387534D01*
D02*
G37*
G36*
X38864Y378864D02*
Y375800D01*
X41928D01*
X41917Y375886D01*
X41497Y376898D01*
X40831Y377766D01*
X39962Y378433D01*
X38950Y378852D01*
X38864Y378864D01*
D02*
G37*
G36*
X36864D02*
X36778Y378852D01*
X35767Y378433D01*
X34898Y377766D01*
X34231Y376898D01*
X33812Y375886D01*
X33801Y375800D01*
X36864D01*
Y378864D01*
D02*
G37*
G36*
Y373800D02*
X33801D01*
X33812Y373714D01*
X34231Y372702D01*
X34898Y371833D01*
X35767Y371167D01*
X36778Y370748D01*
X36864Y370736D01*
Y373800D01*
D02*
G37*
G36*
X41928D02*
X38864D01*
Y370736D01*
X38950Y370748D01*
X39962Y371167D01*
X40831Y371833D01*
X41497Y372702D01*
X41917Y373714D01*
X41928Y373800D01*
D02*
G37*
G36*
X49675Y379500D02*
X48459Y379340D01*
X47325Y378870D01*
X46352Y378123D01*
X45605Y377150D01*
X45136Y376016D01*
X44976Y374800D01*
X45136Y373584D01*
X45605Y372450D01*
X46352Y371477D01*
X47325Y370730D01*
X48459Y370261D01*
X49675Y370100D01*
X50892Y370261D01*
X52025Y370730D01*
X52998Y371477D01*
X53745Y372450D01*
X54215Y373584D01*
X54375Y374800D01*
X54215Y376016D01*
X53745Y377150D01*
X52998Y378123D01*
X52025Y378870D01*
X50892Y379340D01*
X49675Y379500D01*
D02*
G37*
G36*
X242000Y378539D02*
X240825Y378384D01*
X239731Y377931D01*
X238791Y377209D01*
X238069Y376269D01*
X237616Y375175D01*
X237461Y374000D01*
X237616Y372825D01*
X238069Y371731D01*
X238791Y370791D01*
X239731Y370069D01*
X240825Y369616D01*
X242000Y369461D01*
X243175Y369616D01*
X244269Y370069D01*
X245209Y370791D01*
X245931Y371731D01*
X246384Y372825D01*
X246539Y374000D01*
X246384Y375175D01*
X245931Y376269D01*
X245209Y377209D01*
X244269Y377931D01*
X243175Y378384D01*
X242000Y378539D01*
D02*
G37*
G36*
X254500Y377539D02*
X253325Y377384D01*
X252231Y376931D01*
X251291Y376209D01*
X250569Y375269D01*
X250116Y374175D01*
X249961Y373000D01*
X250116Y371825D01*
X250569Y370731D01*
X251291Y369791D01*
X252231Y369069D01*
X253325Y368616D01*
X254500Y368461D01*
X255675Y368616D01*
X256769Y369069D01*
X257709Y369791D01*
X258431Y370731D01*
X258884Y371825D01*
X259039Y373000D01*
X258884Y374175D01*
X258431Y375269D01*
X257709Y376209D01*
X256769Y376931D01*
X255675Y377384D01*
X254500Y377539D01*
D02*
G37*
G36*
X281500Y374535D02*
X280456Y374397D01*
X279483Y373994D01*
X278647Y373353D01*
X278006Y372517D01*
X277603Y371544D01*
X277466Y370500D01*
X277603Y369456D01*
X278006Y368483D01*
X278647Y367647D01*
X279483Y367006D01*
X280456Y366603D01*
X281500Y366465D01*
X282544Y366603D01*
X283517Y367006D01*
X284353Y367647D01*
X284994Y368483D01*
X285397Y369456D01*
X285535Y370500D01*
X285397Y371544D01*
X284994Y372517D01*
X284353Y373353D01*
X283517Y373994D01*
X282544Y374397D01*
X281500Y374535D01*
D02*
G37*
G36*
X308000Y373534D02*
X306956Y373397D01*
X305983Y372994D01*
X305147Y372353D01*
X304506Y371517D01*
X304103Y370544D01*
X303965Y369500D01*
X304103Y368456D01*
X304506Y367483D01*
X305147Y366647D01*
X305983Y366006D01*
X306956Y365603D01*
X308000Y365465D01*
X309044Y365603D01*
X310017Y366006D01*
X310853Y366647D01*
X311494Y367483D01*
X311897Y368456D01*
X312035Y369500D01*
X311897Y370544D01*
X311494Y371517D01*
X310853Y372353D01*
X310017Y372994D01*
X309044Y373397D01*
X308000Y373534D01*
D02*
G37*
G36*
X218889Y377424D02*
X217845Y377286D01*
X216872Y376883D01*
X216036Y376242D01*
X215395Y375406D01*
X214992Y374433D01*
X214872Y373518D01*
X213956Y373397D01*
X212983Y372994D01*
X212147Y372353D01*
X211506Y371517D01*
X211103Y370544D01*
X210965Y369500D01*
X211103Y368456D01*
X211506Y367483D01*
X212147Y366647D01*
X212983Y366006D01*
X213956Y365603D01*
X215000Y365465D01*
X216044Y365603D01*
X217017Y366006D01*
X217853Y366647D01*
X218494Y367483D01*
X218897Y368456D01*
X219018Y369372D01*
X219933Y369492D01*
X220906Y369895D01*
X221742Y370536D01*
X222383Y371372D01*
X222786Y372345D01*
X222924Y373389D01*
X222786Y374433D01*
X222383Y375406D01*
X221742Y376242D01*
X220906Y376883D01*
X219933Y377286D01*
X218889Y377424D01*
D02*
G37*
G36*
X454000Y367374D02*
Y365000D01*
X456374D01*
X456057Y365765D01*
X455496Y366496D01*
X454765Y367057D01*
X454000Y367374D01*
D02*
G37*
G36*
X452000D02*
X451235Y367057D01*
X450504Y366496D01*
X449943Y365765D01*
X449626Y365000D01*
X452000D01*
Y367374D01*
D02*
G37*
G36*
X20856Y376435D02*
X19385Y376290D01*
X17971Y375861D01*
X16667Y375164D01*
X15525Y374226D01*
X14587Y373084D01*
X13890Y371780D01*
X13461Y370366D01*
X13316Y368895D01*
X13461Y367424D01*
X13890Y366009D01*
X14587Y364705D01*
X15525Y363563D01*
X16667Y362625D01*
X17971Y361928D01*
X19385Y361499D01*
X20856Y361354D01*
X22327Y361499D01*
X23742Y361928D01*
X25045Y362625D01*
X26188Y363563D01*
X27126Y364705D01*
X27823Y366009D01*
X28252Y367424D01*
X28396Y368895D01*
X28252Y370366D01*
X27823Y371780D01*
X27126Y373084D01*
X26188Y374226D01*
X25045Y375164D01*
X23742Y375861D01*
X22327Y376290D01*
X20856Y376435D01*
D02*
G37*
G36*
X456374Y363000D02*
X454000D01*
Y360626D01*
X454765Y360943D01*
X455496Y361504D01*
X456057Y362235D01*
X456374Y363000D01*
D02*
G37*
G36*
X452000D02*
X449626D01*
X449943Y362235D01*
X450504Y361504D01*
X451235Y360943D01*
X452000Y360626D01*
Y363000D01*
D02*
G37*
G36*
X42524Y367648D02*
X33205D01*
Y358330D01*
X42524D01*
Y367648D01*
D02*
G37*
G36*
X49675Y367689D02*
X48459Y367529D01*
X47325Y367059D01*
X46352Y366312D01*
X45605Y365339D01*
X45136Y364205D01*
X44976Y362989D01*
X45136Y361773D01*
X45605Y360639D01*
X46352Y359666D01*
X47325Y358919D01*
X48459Y358449D01*
X49675Y358289D01*
X50892Y358449D01*
X52025Y358919D01*
X52998Y359666D01*
X53745Y360639D01*
X54215Y361773D01*
X54375Y362989D01*
X54215Y364205D01*
X53745Y365339D01*
X52998Y366312D01*
X52025Y367059D01*
X50892Y367529D01*
X49675Y367689D01*
D02*
G37*
G36*
X423500Y366035D02*
X422456Y365897D01*
X421483Y365494D01*
X420647Y364853D01*
X420006Y364017D01*
X419603Y363044D01*
X419465Y362000D01*
X419603Y360956D01*
X420006Y359983D01*
X420647Y359147D01*
X421483Y358506D01*
X422456Y358103D01*
X423500Y357965D01*
X424544Y358103D01*
X425517Y358506D01*
X426353Y359147D01*
X426994Y359983D01*
X427397Y360956D01*
X427534Y362000D01*
X427397Y363044D01*
X426994Y364017D01*
X426353Y364853D01*
X425517Y365494D01*
X424544Y365897D01*
X423500Y366035D01*
D02*
G37*
G36*
X417514Y351374D02*
Y349000D01*
X419888D01*
X419571Y349765D01*
X419010Y350496D01*
X418279Y351057D01*
X417514Y351374D01*
D02*
G37*
G36*
X415514D02*
X414749Y351057D01*
X414018Y350496D01*
X413457Y349765D01*
X413140Y349000D01*
X415514D01*
Y351374D01*
D02*
G37*
G36*
X638500Y357039D02*
X637325Y356884D01*
X636231Y356431D01*
X635291Y355709D01*
X634569Y354769D01*
X634116Y353675D01*
X633961Y352500D01*
X634116Y351325D01*
X634569Y350231D01*
X635291Y349291D01*
X636231Y348569D01*
X637325Y348116D01*
X638500Y347961D01*
X639675Y348116D01*
X640769Y348569D01*
X641709Y349291D01*
X642431Y350231D01*
X642884Y351325D01*
X643039Y352500D01*
X642884Y353675D01*
X642431Y354769D01*
X641709Y355709D01*
X640769Y356431D01*
X639675Y356884D01*
X638500Y357039D01*
D02*
G37*
G36*
X690295Y357065D02*
X680976D01*
Y347746D01*
X690295D01*
Y357065D01*
D02*
G37*
G36*
X673825Y357105D02*
X672608Y356945D01*
X671475Y356475D01*
X670502Y355729D01*
X669755Y354755D01*
X669285Y353622D01*
X669125Y352406D01*
X669285Y351189D01*
X669755Y350056D01*
X670502Y349082D01*
X671475Y348336D01*
X672608Y347866D01*
X673825Y347706D01*
X675041Y347866D01*
X676175Y348336D01*
X677148Y349082D01*
X677895Y350056D01*
X678364Y351189D01*
X678524Y352406D01*
X678364Y353622D01*
X677895Y354755D01*
X677148Y355729D01*
X676175Y356475D01*
X675041Y356945D01*
X673825Y357105D01*
D02*
G37*
G36*
X72000Y353034D02*
X70956Y352897D01*
X69983Y352494D01*
X69147Y351853D01*
X68506Y351017D01*
X68103Y350044D01*
X67966Y349000D01*
X68103Y347956D01*
X68506Y346983D01*
X69147Y346147D01*
X69983Y345506D01*
X70956Y345103D01*
X72000Y344966D01*
X73044Y345103D01*
X74017Y345506D01*
X74853Y346147D01*
X75494Y346983D01*
X75897Y347956D01*
X76034Y349000D01*
X75897Y350044D01*
X75494Y351017D01*
X74853Y351853D01*
X74017Y352494D01*
X73044Y352897D01*
X72000Y353034D01*
D02*
G37*
G36*
X419888Y347000D02*
X417514D01*
Y344626D01*
X418279Y344943D01*
X419010Y345504D01*
X419571Y346235D01*
X419888Y347000D01*
D02*
G37*
G36*
X415514D02*
X413140D01*
X413457Y346235D01*
X414018Y345504D01*
X414749Y344943D01*
X415514Y344626D01*
Y347000D01*
D02*
G37*
G36*
X430500Y350034D02*
X429456Y349897D01*
X428483Y349494D01*
X427647Y348853D01*
X427006Y348017D01*
X426603Y347044D01*
X426466Y346000D01*
X426603Y344956D01*
X427006Y343983D01*
X427647Y343147D01*
X428483Y342506D01*
X429456Y342103D01*
X430500Y341966D01*
X431544Y342103D01*
X432517Y342506D01*
X433353Y343147D01*
X433994Y343983D01*
X434397Y344956D01*
X434535Y346000D01*
X434397Y347044D01*
X433994Y348017D01*
X433353Y348853D01*
X432517Y349494D01*
X431544Y349897D01*
X430500Y350034D01*
D02*
G37*
G36*
X686636Y344658D02*
Y341595D01*
X689700D01*
X689688Y341680D01*
X689269Y342692D01*
X688602Y343561D01*
X687734Y344228D01*
X686722Y344647D01*
X686636Y344658D01*
D02*
G37*
G36*
X684636D02*
X684550Y344647D01*
X683538Y344228D01*
X682669Y343561D01*
X682003Y342692D01*
X681583Y341680D01*
X681572Y341595D01*
X684636D01*
Y344658D01*
D02*
G37*
G36*
X702644Y354040D02*
X701173Y353895D01*
X699758Y353466D01*
X698455Y352769D01*
X697312Y351832D01*
X696374Y350689D01*
X695677Y349385D01*
X695248Y347971D01*
X695104Y346500D01*
X695248Y345029D01*
X695677Y343615D01*
X696374Y342311D01*
X697312Y341168D01*
X698455Y340230D01*
X699758Y339534D01*
X701173Y339105D01*
X702644Y338960D01*
X704115Y339105D01*
X705529Y339534D01*
X706833Y340230D01*
X707975Y341168D01*
X708913Y342311D01*
X709610Y343615D01*
X710039Y345029D01*
X710184Y346500D01*
X710039Y347971D01*
X709610Y349385D01*
X708913Y350689D01*
X707975Y351832D01*
X706833Y352769D01*
X705529Y353466D01*
X704115Y353895D01*
X702644Y354040D01*
D02*
G37*
G36*
X370000Y346039D02*
X368825Y345884D01*
X367731Y345431D01*
X366791Y344709D01*
X366069Y343769D01*
X365616Y342675D01*
X365461Y341500D01*
X365616Y340325D01*
X366069Y339231D01*
X366791Y338291D01*
X367731Y337569D01*
X368825Y337116D01*
X370000Y336961D01*
X371175Y337116D01*
X372269Y337569D01*
X373209Y338291D01*
X373931Y339231D01*
X374384Y340325D01*
X374539Y341500D01*
X374384Y342675D01*
X373931Y343769D01*
X373209Y344709D01*
X372269Y345431D01*
X371175Y345884D01*
X370000Y346039D01*
D02*
G37*
G36*
X689700Y339595D02*
X686636D01*
Y336531D01*
X686722Y336542D01*
X687734Y336961D01*
X688602Y337628D01*
X689269Y338497D01*
X689688Y339509D01*
X689700Y339595D01*
D02*
G37*
G36*
X684636D02*
X681572D01*
X681583Y339509D01*
X682003Y338497D01*
X682669Y337628D01*
X683538Y336961D01*
X684550Y336542D01*
X684636Y336531D01*
Y339595D01*
D02*
G37*
G36*
X673825Y345294D02*
X672608Y345134D01*
X671475Y344665D01*
X670502Y343918D01*
X669755Y342944D01*
X669285Y341811D01*
X669125Y340595D01*
X669285Y339378D01*
X669755Y338245D01*
X670502Y337271D01*
X671475Y336525D01*
X672608Y336055D01*
X673825Y335895D01*
X675041Y336055D01*
X676175Y336525D01*
X677148Y337271D01*
X677895Y338245D01*
X678364Y339378D01*
X678524Y340595D01*
X678364Y341811D01*
X677895Y342944D01*
X677148Y343918D01*
X676175Y344665D01*
X675041Y345134D01*
X673825Y345294D01*
D02*
G37*
G36*
X277465Y343570D02*
X276421Y343432D01*
X275448Y343029D01*
X274612Y342388D01*
X273971Y341552D01*
X273568Y340579D01*
X273430Y339535D01*
X273568Y338491D01*
X273971Y337518D01*
X274612Y336682D01*
X275448Y336041D01*
X275709Y335933D01*
X275838Y335450D01*
X275506Y335017D01*
X275103Y334044D01*
X274966Y333000D01*
X275103Y331956D01*
X275506Y330983D01*
X276147Y330147D01*
X276983Y329506D01*
X277956Y329103D01*
X279000Y328965D01*
X280044Y329103D01*
X281017Y329506D01*
X281853Y330147D01*
X282494Y330983D01*
X282897Y331956D01*
X283034Y333000D01*
X282897Y334044D01*
X282494Y335017D01*
X281853Y335853D01*
X281017Y336494D01*
X280756Y336602D01*
X280627Y337085D01*
X280959Y337518D01*
X281362Y338491D01*
X281499Y339535D01*
X281362Y340579D01*
X280959Y341552D01*
X280318Y342388D01*
X279482Y343029D01*
X278509Y343432D01*
X277465Y343570D01*
D02*
G37*
G36*
X217500Y327874D02*
Y325500D01*
X219874D01*
X219557Y326265D01*
X218996Y326996D01*
X218265Y327557D01*
X217500Y327874D01*
D02*
G37*
G36*
X215500D02*
X214735Y327557D01*
X214004Y326996D01*
X213443Y326265D01*
X213126Y325500D01*
X215500D01*
Y327874D01*
D02*
G37*
G36*
X471000Y333034D02*
X469956Y332897D01*
X468983Y332494D01*
X468147Y331853D01*
X467506Y331017D01*
X467103Y330044D01*
X466965Y329000D01*
X467103Y327956D01*
X467506Y326983D01*
X468147Y326147D01*
X468983Y325506D01*
X469956Y325103D01*
X471000Y324966D01*
X472044Y325103D01*
X473017Y325506D01*
X473853Y326147D01*
X474494Y326983D01*
X474897Y327956D01*
X475035Y329000D01*
X474897Y330044D01*
X474494Y331017D01*
X473853Y331853D01*
X473017Y332494D01*
X472044Y332897D01*
X471000Y333034D01*
D02*
G37*
G36*
X120514Y332521D02*
X119470Y332383D01*
X118497Y331980D01*
X117661Y331339D01*
X117020Y330504D01*
X116617Y329530D01*
X116479Y328486D01*
X116617Y327442D01*
X117020Y326469D01*
X117661Y325633D01*
X118497Y324992D01*
X119470Y324589D01*
X120514Y324452D01*
X121558Y324589D01*
X122531Y324992D01*
X123367Y325633D01*
X124008Y326469D01*
X124411Y327442D01*
X124548Y328486D01*
X124411Y329530D01*
X124008Y330504D01*
X123367Y331339D01*
X122531Y331980D01*
X121558Y332383D01*
X120514Y332521D01*
D02*
G37*
G36*
X240000Y332034D02*
X238956Y331897D01*
X237983Y331494D01*
X237147Y330853D01*
X236506Y330017D01*
X236103Y329044D01*
X235965Y328000D01*
X236103Y326956D01*
X236506Y325983D01*
X237147Y325147D01*
X237983Y324506D01*
X238956Y324103D01*
X240000Y323966D01*
X241044Y324103D01*
X242017Y324506D01*
X242853Y325147D01*
X243494Y325983D01*
X243897Y326956D01*
X244035Y328000D01*
X243897Y329044D01*
X243494Y330017D01*
X242853Y330853D01*
X242017Y331494D01*
X241044Y331897D01*
X240000Y332034D01*
D02*
G37*
G36*
X219874Y323500D02*
X217500D01*
Y321126D01*
X218265Y321443D01*
X218996Y322004D01*
X219557Y322735D01*
X219874Y323500D01*
D02*
G37*
G36*
X215500D02*
X213126D01*
X213443Y322735D01*
X214004Y322004D01*
X214735Y321443D01*
X215500Y321126D01*
Y323500D01*
D02*
G37*
G36*
X424000Y329034D02*
X422956Y328897D01*
X421983Y328494D01*
X421147Y327853D01*
X420506Y327017D01*
X420103Y326044D01*
X419966Y325000D01*
X420103Y323956D01*
X420506Y322983D01*
X421147Y322147D01*
X421983Y321506D01*
X422956Y321103D01*
X424000Y320966D01*
X425044Y321103D01*
X426017Y321506D01*
X426853Y322147D01*
X427494Y322983D01*
X427897Y323956D01*
X428034Y325000D01*
X427897Y326044D01*
X427494Y327017D01*
X426853Y327853D01*
X426017Y328494D01*
X425044Y328897D01*
X424000Y329034D01*
D02*
G37*
G36*
X38864Y323788D02*
Y320725D01*
X41928D01*
X41917Y320810D01*
X41497Y321822D01*
X40831Y322691D01*
X39962Y323358D01*
X38950Y323777D01*
X38864Y323788D01*
D02*
G37*
G36*
X36864D02*
X36778Y323777D01*
X35767Y323358D01*
X34898Y322691D01*
X34231Y321822D01*
X33812Y320810D01*
X33801Y320725D01*
X36864D01*
Y323788D01*
D02*
G37*
G36*
X369500Y326039D02*
X368325Y325884D01*
X367231Y325431D01*
X366291Y324709D01*
X365569Y323769D01*
X365116Y322675D01*
X364961Y321500D01*
X365116Y320325D01*
X365569Y319231D01*
X366291Y318291D01*
X367231Y317569D01*
X368325Y317116D01*
X369500Y316961D01*
X370675Y317116D01*
X371769Y317569D01*
X372709Y318291D01*
X373431Y319231D01*
X373884Y320325D01*
X374039Y321500D01*
X373884Y322675D01*
X373431Y323769D01*
X372709Y324709D01*
X371769Y325431D01*
X370675Y325884D01*
X369500Y326039D01*
D02*
G37*
G36*
X468000Y318374D02*
Y316000D01*
X470374D01*
X470057Y316765D01*
X469496Y317496D01*
X468765Y318057D01*
X468000Y318374D01*
D02*
G37*
G36*
X466000D02*
X465235Y318057D01*
X464504Y317496D01*
X463943Y316765D01*
X463626Y316000D01*
X466000D01*
Y318374D01*
D02*
G37*
G36*
X41928Y318724D02*
X38864D01*
Y315661D01*
X38950Y315672D01*
X39962Y316091D01*
X40831Y316758D01*
X41497Y317627D01*
X41917Y318639D01*
X41928Y318724D01*
D02*
G37*
G36*
X36864D02*
X33801D01*
X33812Y318639D01*
X34231Y317627D01*
X34898Y316758D01*
X35767Y316091D01*
X36778Y315672D01*
X36864Y315661D01*
Y318724D01*
D02*
G37*
G36*
X49675Y324424D02*
X48459Y324264D01*
X47325Y323795D01*
X46352Y323048D01*
X45605Y322074D01*
X45136Y320941D01*
X44976Y319724D01*
X45136Y318508D01*
X45605Y317375D01*
X46352Y316401D01*
X47325Y315654D01*
X48459Y315185D01*
X49675Y315025D01*
X50892Y315185D01*
X52025Y315654D01*
X52998Y316401D01*
X53745Y317375D01*
X54215Y318508D01*
X54375Y319724D01*
X54215Y320941D01*
X53745Y322074D01*
X52998Y323048D01*
X52025Y323795D01*
X50892Y324264D01*
X49675Y324424D01*
D02*
G37*
G36*
X319055Y314929D02*
Y312555D01*
X321429D01*
X321112Y313320D01*
X320551Y314051D01*
X319820Y314612D01*
X319055Y314929D01*
D02*
G37*
G36*
X317055D02*
X316290Y314612D01*
X315559Y314051D01*
X314998Y313320D01*
X314681Y312555D01*
X317055D01*
Y314929D01*
D02*
G37*
G36*
X392000Y314874D02*
Y312500D01*
X394374D01*
X394057Y313265D01*
X393496Y313996D01*
X392765Y314557D01*
X392000Y314874D01*
D02*
G37*
G36*
X390000D02*
X389235Y314557D01*
X388504Y313996D01*
X387943Y313265D01*
X387626Y312500D01*
X390000D01*
Y314874D01*
D02*
G37*
G36*
X470374Y314000D02*
X468000D01*
Y311626D01*
X468765Y311943D01*
X469496Y312504D01*
X470057Y313235D01*
X470374Y314000D01*
D02*
G37*
G36*
X466000D02*
X463626D01*
X463943Y313235D01*
X464504Y312504D01*
X465235Y311943D01*
X466000Y311626D01*
Y314000D01*
D02*
G37*
G36*
X475500Y318534D02*
X474456Y318397D01*
X473483Y317994D01*
X472647Y317353D01*
X472006Y316517D01*
X471603Y315544D01*
X471465Y314500D01*
X471603Y313456D01*
X472006Y312483D01*
X472647Y311647D01*
X473483Y311006D01*
X474456Y310603D01*
X475500Y310466D01*
X476544Y310603D01*
X477517Y311006D01*
X478353Y311647D01*
X478994Y312483D01*
X479397Y313456D01*
X479534Y314500D01*
X479397Y315544D01*
X478994Y316517D01*
X478353Y317353D01*
X477517Y317994D01*
X476544Y318397D01*
X475500Y318534D01*
D02*
G37*
G36*
X321429Y310555D02*
X319055D01*
Y308181D01*
X319820Y308498D01*
X320551Y309059D01*
X321112Y309790D01*
X321429Y310555D01*
D02*
G37*
G36*
X317055D02*
X314681D01*
X314998Y309790D01*
X315559Y309059D01*
X316290Y308498D01*
X317055Y308181D01*
Y310555D01*
D02*
G37*
G36*
X394374Y310500D02*
X392000D01*
Y308126D01*
X392765Y308443D01*
X393496Y309004D01*
X394057Y309735D01*
X394374Y310500D01*
D02*
G37*
G36*
X390000D02*
X387626D01*
X387943Y309735D01*
X388504Y309004D01*
X389235Y308443D01*
X390000Y308126D01*
Y310500D01*
D02*
G37*
G36*
X353000Y315035D02*
X351956Y314897D01*
X350983Y314494D01*
X350147Y313853D01*
X349506Y313017D01*
X349103Y312044D01*
X348966Y311000D01*
X349103Y309956D01*
X349506Y308983D01*
X350147Y308147D01*
X350983Y307506D01*
X351956Y307103D01*
X353000Y306965D01*
X354044Y307103D01*
X355017Y307506D01*
X355853Y308147D01*
X356494Y308983D01*
X356897Y309956D01*
X357034Y311000D01*
X356897Y312044D01*
X356494Y313017D01*
X355853Y313853D01*
X355017Y314494D01*
X354044Y314897D01*
X353000Y315035D01*
D02*
G37*
G36*
X20856Y321359D02*
X19385Y321214D01*
X17971Y320785D01*
X16667Y320089D01*
X15525Y319151D01*
X14587Y318008D01*
X13890Y316705D01*
X13461Y315290D01*
X13316Y313819D01*
X13461Y312348D01*
X13890Y310933D01*
X14587Y309630D01*
X15525Y308487D01*
X16667Y307550D01*
X17971Y306853D01*
X19385Y306424D01*
X20856Y306279D01*
X22327Y306424D01*
X23742Y306853D01*
X25045Y307550D01*
X26188Y308487D01*
X27126Y309630D01*
X27823Y310933D01*
X28252Y312348D01*
X28396Y313819D01*
X28252Y315290D01*
X27823Y316705D01*
X27126Y318008D01*
X26188Y319151D01*
X25045Y320089D01*
X23742Y320785D01*
X22327Y321214D01*
X20856Y321359D01*
D02*
G37*
G36*
X42524Y312573D02*
X33205D01*
Y303254D01*
X42524D01*
Y312573D01*
D02*
G37*
G36*
X49675Y312613D02*
X48459Y312453D01*
X47325Y311983D01*
X46352Y311237D01*
X45605Y310263D01*
X45136Y309130D01*
X44976Y307913D01*
X45136Y306697D01*
X45605Y305564D01*
X46352Y304590D01*
X47325Y303843D01*
X48459Y303374D01*
X49675Y303214D01*
X50892Y303374D01*
X52025Y303843D01*
X52998Y304590D01*
X53745Y305564D01*
X54215Y306697D01*
X54375Y307913D01*
X54215Y309130D01*
X53745Y310263D01*
X52998Y311237D01*
X52025Y311983D01*
X50892Y312453D01*
X49675Y312613D01*
D02*
G37*
G36*
X284000Y310539D02*
X282825Y310384D01*
X281731Y309931D01*
X280791Y309209D01*
X280069Y308269D01*
X279616Y307175D01*
X279461Y306000D01*
X279616Y304825D01*
X280069Y303731D01*
X280791Y302791D01*
X281731Y302069D01*
X282825Y301616D01*
X284000Y301461D01*
X285175Y301616D01*
X286269Y302069D01*
X287209Y302791D01*
X287931Y303731D01*
X288384Y304825D01*
X288539Y306000D01*
X288384Y307175D01*
X287931Y308269D01*
X287209Y309209D01*
X286269Y309931D01*
X285175Y310384D01*
X284000Y310539D01*
D02*
G37*
G36*
X216500Y309034D02*
X215456Y308897D01*
X214483Y308494D01*
X213647Y307853D01*
X213006Y307017D01*
X212603Y306044D01*
X212466Y305000D01*
X212603Y303956D01*
X213006Y302983D01*
X213647Y302147D01*
X214483Y301506D01*
X215456Y301103D01*
X216500Y300965D01*
X217544Y301103D01*
X218517Y301506D01*
X219353Y302147D01*
X219994Y302983D01*
X220397Y303956D01*
X220534Y305000D01*
X220397Y306044D01*
X219994Y307017D01*
X219353Y307853D01*
X218517Y308494D01*
X217544Y308897D01*
X216500Y309034D01*
D02*
G37*
G36*
X418000Y308535D02*
X416956Y308397D01*
X415983Y307994D01*
X415147Y307353D01*
X414506Y306517D01*
X414103Y305544D01*
X413966Y304500D01*
X414103Y303456D01*
X414506Y302483D01*
X415147Y301647D01*
X415983Y301006D01*
X416956Y300603D01*
X418000Y300465D01*
X419044Y300603D01*
X420017Y301006D01*
X420853Y301647D01*
X421494Y302483D01*
X421897Y303456D01*
X422035Y304500D01*
X421897Y305544D01*
X421494Y306517D01*
X420853Y307353D01*
X420017Y307994D01*
X419044Y308397D01*
X418000Y308535D01*
D02*
G37*
G36*
X509500Y306535D02*
X508456Y306397D01*
X507483Y305994D01*
X506647Y305353D01*
X506006Y304517D01*
X505603Y303544D01*
X505466Y302500D01*
X505603Y301456D01*
X506006Y300483D01*
X506647Y299647D01*
X507483Y299006D01*
X508456Y298603D01*
X509500Y298465D01*
X510544Y298603D01*
X511517Y299006D01*
X512353Y299647D01*
X512994Y300483D01*
X513397Y301456D01*
X513534Y302500D01*
X513397Y303544D01*
X512994Y304517D01*
X512353Y305353D01*
X511517Y305994D01*
X510544Y306397D01*
X509500Y306535D01*
D02*
G37*
G36*
X470500Y305535D02*
X469456Y305397D01*
X468483Y304994D01*
X467647Y304353D01*
X467006Y303517D01*
X466603Y302544D01*
X466466Y301500D01*
X466603Y300456D01*
X467006Y299483D01*
X467647Y298647D01*
X468483Y298006D01*
X469456Y297603D01*
X470500Y297465D01*
X471544Y297603D01*
X472517Y298006D01*
X473353Y298647D01*
X473994Y299483D01*
X474397Y300456D01*
X474535Y301500D01*
X474397Y302544D01*
X473994Y303517D01*
X473353Y304353D01*
X472517Y304994D01*
X471544Y305397D01*
X470500Y305535D01*
D02*
G37*
G36*
X685492Y306560D02*
X684263Y306399D01*
X683117Y305924D01*
X682134Y305169D01*
X681379Y304186D01*
X680905Y303040D01*
X680743Y301811D01*
X680905Y300582D01*
X681379Y299436D01*
X682134Y298453D01*
X683117Y297698D01*
X684263Y297224D01*
X685492Y297062D01*
X686721Y297224D01*
X687867Y297698D01*
X688850Y298453D01*
X689605Y299436D01*
X690080Y300582D01*
X690241Y301811D01*
X690080Y303040D01*
X689605Y304186D01*
X688850Y305169D01*
X687867Y305924D01*
X686721Y306399D01*
X685492Y306560D01*
D02*
G37*
G36*
X673681D02*
X672452Y306399D01*
X671307Y305924D01*
X670323Y305169D01*
X669568Y304186D01*
X669094Y303040D01*
X668932Y301811D01*
X669094Y300582D01*
X669568Y299436D01*
X670323Y298453D01*
X671307Y297698D01*
X672452Y297224D01*
X673681Y297062D01*
X674910Y297224D01*
X676056Y297698D01*
X677039Y298453D01*
X677794Y299436D01*
X678269Y300582D01*
X678430Y301811D01*
X678269Y303040D01*
X677794Y304186D01*
X677039Y305169D01*
X676056Y305924D01*
X674910Y306399D01*
X673681Y306560D01*
D02*
G37*
G36*
X275000Y301034D02*
X273956Y300897D01*
X272983Y300494D01*
X272147Y299853D01*
X271506Y299017D01*
X271103Y298044D01*
X270966Y297000D01*
X271103Y295956D01*
X271506Y294983D01*
X272147Y294147D01*
X272983Y293506D01*
X273956Y293103D01*
X275000Y292966D01*
X276044Y293103D01*
X277017Y293506D01*
X277853Y294147D01*
X278494Y294983D01*
X278897Y295956D01*
X279034Y297000D01*
X278897Y298044D01*
X278494Y299017D01*
X277853Y299853D01*
X277017Y300494D01*
X276044Y300897D01*
X275000Y301034D01*
D02*
G37*
G36*
X686492Y294113D02*
Y291000D01*
X689606D01*
X689593Y291099D01*
X689168Y292123D01*
X688494Y293002D01*
X687615Y293676D01*
X686591Y294100D01*
X686492Y294113D01*
D02*
G37*
G36*
X684492Y294113D02*
X684394Y294100D01*
X683370Y293676D01*
X682490Y293002D01*
X681816Y292123D01*
X681392Y291099D01*
X681379Y291000D01*
X684492D01*
Y294113D01*
D02*
G37*
G36*
X228500Y292374D02*
Y290000D01*
X230874D01*
X230557Y290765D01*
X229996Y291496D01*
X229265Y292057D01*
X228500Y292374D01*
D02*
G37*
G36*
X226500D02*
X225735Y292057D01*
X225004Y291496D01*
X224443Y290765D01*
X224126Y290000D01*
X226500D01*
Y292374D01*
D02*
G37*
G36*
X689606Y289000D02*
X686492D01*
Y285887D01*
X686591Y285900D01*
X687615Y286324D01*
X688494Y286998D01*
X689168Y287877D01*
X689593Y288901D01*
X689606Y289000D01*
D02*
G37*
G36*
X684492D02*
X681379D01*
X681392Y288901D01*
X681816Y287877D01*
X682490Y286998D01*
X683370Y286324D01*
X684394Y285900D01*
X684492Y285887D01*
Y289000D01*
D02*
G37*
G36*
X230874Y288000D02*
X228500D01*
Y285626D01*
X229265Y285943D01*
X229996Y286504D01*
X230557Y287235D01*
X230874Y288000D01*
D02*
G37*
G36*
X226500D02*
X224126D01*
X224443Y287235D01*
X225004Y286504D01*
X225735Y285943D01*
X226500Y285626D01*
Y288000D01*
D02*
G37*
G36*
X673681Y294749D02*
X672452Y294587D01*
X671307Y294113D01*
X670323Y293358D01*
X669568Y292375D01*
X669094Y291229D01*
X668932Y290000D01*
X669094Y288771D01*
X669568Y287625D01*
X670323Y286642D01*
X671307Y285887D01*
X672452Y285413D01*
X673681Y285251D01*
X674910Y285413D01*
X676056Y285887D01*
X677039Y286642D01*
X677794Y287625D01*
X678269Y288771D01*
X678430Y290000D01*
X678269Y291229D01*
X677794Y292375D01*
X677039Y293358D01*
X676056Y294113D01*
X674910Y294587D01*
X673681Y294749D01*
D02*
G37*
G36*
X702500Y297441D02*
X701048Y297298D01*
X699652Y296875D01*
X698366Y296187D01*
X697238Y295262D01*
X696313Y294134D01*
X695625Y292848D01*
X695202Y291452D01*
X695059Y290000D01*
X695202Y288548D01*
X695625Y287152D01*
X696313Y285866D01*
X697238Y284738D01*
X698366Y283813D01*
X699652Y283125D01*
X701048Y282702D01*
X702500Y282559D01*
X703952Y282702D01*
X705348Y283125D01*
X706634Y283813D01*
X707762Y284738D01*
X708687Y285866D01*
X709375Y287152D01*
X709798Y288548D01*
X709941Y290000D01*
X709798Y291452D01*
X709375Y292848D01*
X708687Y294134D01*
X707762Y295262D01*
X706634Y296187D01*
X705348Y296875D01*
X703952Y297298D01*
X702500Y297441D01*
D02*
G37*
G36*
X286500Y290534D02*
X285456Y290397D01*
X284483Y289994D01*
X283647Y289353D01*
X283006Y288517D01*
X282603Y287544D01*
X282466Y286500D01*
X282603Y285456D01*
X283006Y284483D01*
X283647Y283647D01*
X284483Y283006D01*
X285456Y282603D01*
X286500Y282466D01*
X287544Y282603D01*
X288517Y283006D01*
X289353Y283647D01*
X289994Y284483D01*
X290397Y285456D01*
X290534Y286500D01*
X290397Y287544D01*
X289994Y288517D01*
X289353Y289353D01*
X288517Y289994D01*
X287544Y290397D01*
X286500Y290534D01*
D02*
G37*
G36*
X335500Y288039D02*
X334325Y287884D01*
X333231Y287431D01*
X332291Y286709D01*
X331569Y285769D01*
X331116Y284675D01*
X330961Y283500D01*
X331116Y282325D01*
X331569Y281231D01*
X332291Y280291D01*
X333231Y279569D01*
X334325Y279116D01*
X335500Y278961D01*
X336675Y279116D01*
X337769Y279569D01*
X338709Y280291D01*
X339431Y281231D01*
X339884Y282325D01*
X340039Y283500D01*
X339884Y284675D01*
X339431Y285769D01*
X338709Y286709D01*
X337769Y287431D01*
X336675Y287884D01*
X335500Y288039D01*
D02*
G37*
G36*
X539000Y286535D02*
X537956Y286397D01*
X536983Y285994D01*
X536147Y285353D01*
X535506Y284517D01*
X535103Y283544D01*
X534966Y282500D01*
X535103Y281456D01*
X535506Y280483D01*
X536147Y279647D01*
X536983Y279006D01*
X537956Y278603D01*
X539000Y278466D01*
X540044Y278603D01*
X541017Y279006D01*
X541853Y279647D01*
X542494Y280483D01*
X542897Y281456D01*
X543035Y282500D01*
X542897Y283544D01*
X542494Y284517D01*
X541853Y285353D01*
X541017Y285994D01*
X540044Y286397D01*
X539000Y286535D01*
D02*
G37*
G36*
X267500D02*
X266456Y286397D01*
X265483Y285994D01*
X264647Y285353D01*
X264006Y284517D01*
X263603Y283544D01*
X263465Y282500D01*
X263603Y281456D01*
X264006Y280483D01*
X264647Y279647D01*
X265483Y279006D01*
X266456Y278603D01*
X267500Y278466D01*
X268544Y278603D01*
X269517Y279006D01*
X270353Y279647D01*
X270994Y280483D01*
X271397Y281456D01*
X271534Y282500D01*
X271397Y283544D01*
X270994Y284517D01*
X270353Y285353D01*
X269517Y285994D01*
X268544Y286397D01*
X267500Y286535D01*
D02*
G37*
G36*
X510500Y294035D02*
X509456Y293897D01*
X508483Y293494D01*
X507647Y292853D01*
X507006Y292017D01*
X506603Y291044D01*
X506465Y290000D01*
X506603Y288956D01*
X507006Y287983D01*
X507647Y287147D01*
X508483Y286506D01*
X509301Y286167D01*
X509337Y285650D01*
X509334Y285640D01*
X508983Y285494D01*
X508147Y284853D01*
X507506Y284017D01*
X507103Y283044D01*
X506965Y282000D01*
X507103Y280956D01*
X507506Y279983D01*
X508147Y279147D01*
X508983Y278506D01*
X509956Y278103D01*
X511000Y277965D01*
X512044Y278103D01*
X513017Y278506D01*
X513853Y279147D01*
X514494Y279983D01*
X514897Y280956D01*
X515034Y282000D01*
X514897Y283044D01*
X514494Y284017D01*
X513853Y284853D01*
X513017Y285494D01*
X512199Y285833D01*
X512163Y286350D01*
X512166Y286360D01*
X512517Y286506D01*
X513353Y287147D01*
X513994Y287983D01*
X514397Y288956D01*
X514535Y290000D01*
X514397Y291044D01*
X513994Y292017D01*
X513353Y292853D01*
X512517Y293494D01*
X511544Y293897D01*
X510500Y294035D01*
D02*
G37*
G36*
X490500Y278374D02*
Y276000D01*
X492874D01*
X492557Y276765D01*
X491996Y277496D01*
X491265Y278057D01*
X490500Y278374D01*
D02*
G37*
G36*
X488500D02*
X487735Y278057D01*
X487004Y277496D01*
X486443Y276765D01*
X486126Y276000D01*
X488500D01*
Y278374D01*
D02*
G37*
G36*
X426500Y276874D02*
Y274500D01*
X428874D01*
X428557Y275265D01*
X427996Y275996D01*
X427265Y276557D01*
X426500Y276874D01*
D02*
G37*
G36*
X424500D02*
X423735Y276557D01*
X423004Y275996D01*
X422443Y275265D01*
X422126Y274500D01*
X424500D01*
Y276874D01*
D02*
G37*
G36*
X632500Y282539D02*
X631325Y282384D01*
X630231Y281931D01*
X629291Y281209D01*
X628569Y280269D01*
X628116Y279175D01*
X627961Y278000D01*
X628116Y276825D01*
X628569Y275731D01*
X629291Y274791D01*
X630231Y274069D01*
X631325Y273616D01*
X632500Y273461D01*
X633675Y273616D01*
X634769Y274069D01*
X635709Y274791D01*
X636431Y275731D01*
X636884Y276825D01*
X637039Y278000D01*
X636884Y279175D01*
X636431Y280269D01*
X635709Y281209D01*
X634769Y281931D01*
X633675Y282384D01*
X632500Y282539D01*
D02*
G37*
G36*
X685492Y282938D02*
X684263Y282776D01*
X683117Y282302D01*
X682134Y281547D01*
X681379Y280564D01*
X680905Y279418D01*
X680743Y278189D01*
X680905Y276960D01*
X681379Y275814D01*
X682134Y274831D01*
X683117Y274076D01*
X684263Y273602D01*
X685492Y273440D01*
X686721Y273602D01*
X687867Y274076D01*
X688850Y274831D01*
X689605Y275814D01*
X690080Y276960D01*
X690241Y278189D01*
X690080Y279418D01*
X689605Y280564D01*
X688850Y281547D01*
X687867Y282302D01*
X686721Y282776D01*
X685492Y282938D01*
D02*
G37*
G36*
X673681D02*
X672452Y282776D01*
X671307Y282302D01*
X670323Y281547D01*
X669568Y280564D01*
X669094Y279418D01*
X668932Y278189D01*
X669094Y276960D01*
X669568Y275814D01*
X670323Y274831D01*
X671307Y274076D01*
X672452Y273602D01*
X673681Y273440D01*
X674910Y273602D01*
X676056Y274076D01*
X677039Y274831D01*
X677794Y275814D01*
X678269Y276960D01*
X678430Y278189D01*
X678269Y279418D01*
X677794Y280564D01*
X677039Y281547D01*
X676056Y282302D01*
X674910Y282776D01*
X673681Y282938D01*
D02*
G37*
G36*
X305500Y287534D02*
X304456Y287397D01*
X303483Y286994D01*
X302647Y286353D01*
X302006Y285517D01*
X301603Y284544D01*
X301466Y283500D01*
X301603Y282456D01*
X302006Y281483D01*
X302647Y280647D01*
X303108Y280294D01*
X303032Y279721D01*
X302483Y279494D01*
X301647Y278853D01*
X301006Y278017D01*
X300603Y277044D01*
X300465Y276000D01*
X300603Y274956D01*
X301006Y273983D01*
X301647Y273147D01*
X302483Y272506D01*
X303456Y272103D01*
X304500Y271966D01*
X305544Y272103D01*
X306517Y272506D01*
X307353Y273147D01*
X307994Y273983D01*
X308397Y274956D01*
X308535Y276000D01*
X308397Y277044D01*
X307994Y278017D01*
X307353Y278853D01*
X306892Y279206D01*
X306968Y279779D01*
X307517Y280006D01*
X308353Y280647D01*
X308994Y281483D01*
X309397Y282456D01*
X309535Y283500D01*
X309397Y284544D01*
X308994Y285517D01*
X308353Y286353D01*
X307517Y286994D01*
X306544Y287397D01*
X305500Y287534D01*
D02*
G37*
G36*
X492874Y274000D02*
X490500D01*
Y271626D01*
X491265Y271943D01*
X491996Y272504D01*
X492557Y273235D01*
X492874Y274000D01*
D02*
G37*
G36*
X488500D02*
X486126D01*
X486443Y273235D01*
X487004Y272504D01*
X487735Y271943D01*
X488500Y271626D01*
Y274000D01*
D02*
G37*
G36*
X85500Y280039D02*
X84325Y279884D01*
X83231Y279431D01*
X82291Y278709D01*
X81569Y277769D01*
X81116Y276675D01*
X80961Y275500D01*
X81116Y274325D01*
X81569Y273231D01*
X82291Y272291D01*
X83231Y271569D01*
X84325Y271116D01*
X85500Y270961D01*
X86675Y271116D01*
X87769Y271569D01*
X88709Y272291D01*
X89431Y273231D01*
X89884Y274325D01*
X90039Y275500D01*
X89884Y276675D01*
X89431Y277769D01*
X88709Y278709D01*
X87769Y279431D01*
X86675Y279884D01*
X85500Y280039D01*
D02*
G37*
G36*
X285000Y278535D02*
X283956Y278397D01*
X282983Y277994D01*
X282147Y277353D01*
X281506Y276517D01*
X281103Y275544D01*
X280965Y274500D01*
X281103Y273456D01*
X281506Y272483D01*
X282147Y271647D01*
X282983Y271006D01*
X283956Y270603D01*
X285000Y270465D01*
X286044Y270603D01*
X287017Y271006D01*
X287853Y271647D01*
X288494Y272483D01*
X288897Y273456D01*
X289035Y274500D01*
X288897Y275544D01*
X288494Y276517D01*
X287853Y277353D01*
X287017Y277994D01*
X286044Y278397D01*
X285000Y278535D01*
D02*
G37*
G36*
X428874Y272500D02*
X426500D01*
Y270126D01*
X427265Y270443D01*
X427996Y271004D01*
X428557Y271735D01*
X428874Y272500D01*
D02*
G37*
G36*
X424500D02*
X422126D01*
X422443Y271735D01*
X423004Y271004D01*
X423735Y270443D01*
X424500Y270126D01*
Y272500D01*
D02*
G37*
G36*
X325500Y285535D02*
X324456Y285397D01*
X323483Y284994D01*
X322647Y284353D01*
X322006Y283517D01*
X321603Y282544D01*
X321465Y281500D01*
X321603Y280456D01*
X322006Y279483D01*
X322647Y278647D01*
X323483Y278006D01*
X324456Y277603D01*
X325457Y277471D01*
X325500Y277466D01*
X325546Y276975D01*
X325511Y276970D01*
X324956Y276897D01*
X323983Y276494D01*
X323147Y275853D01*
X322506Y275017D01*
X322103Y274044D01*
X321966Y273000D01*
X322103Y271956D01*
X322506Y270983D01*
X323147Y270147D01*
X323983Y269506D01*
X324956Y269103D01*
X326000Y268966D01*
X327044Y269103D01*
X328017Y269506D01*
X328853Y270147D01*
X329494Y270983D01*
X329897Y271956D01*
X330034Y273000D01*
X329897Y274044D01*
X329494Y275017D01*
X328853Y275853D01*
X328017Y276494D01*
X327044Y276897D01*
X326044Y277029D01*
X326000Y277034D01*
X325954Y277525D01*
X325989Y277530D01*
X326544Y277603D01*
X327517Y278006D01*
X328353Y278647D01*
X328994Y279483D01*
X329397Y280456D01*
X329535Y281500D01*
X329397Y282544D01*
X328994Y283517D01*
X328353Y284353D01*
X327517Y284994D01*
X326544Y285397D01*
X325500Y285535D01*
D02*
G37*
G36*
X522000Y276434D02*
X520956Y276297D01*
X519983Y275894D01*
X519147Y275253D01*
X518506Y274417D01*
X518103Y273444D01*
X517966Y272400D01*
X518103Y271356D01*
X518506Y270383D01*
X519147Y269547D01*
X519983Y268906D01*
X520956Y268503D01*
X522000Y268366D01*
X523044Y268503D01*
X524017Y268906D01*
X524853Y269547D01*
X525494Y270383D01*
X525897Y271356D01*
X526034Y272400D01*
X525897Y273444D01*
X525494Y274417D01*
X524853Y275253D01*
X524017Y275894D01*
X523044Y276297D01*
X522000Y276434D01*
D02*
G37*
G36*
X42201Y273012D02*
X33177D01*
Y263988D01*
X42201D01*
Y273012D01*
D02*
G37*
G36*
X49500Y273051D02*
X48322Y272896D01*
X47225Y272441D01*
X46282Y271718D01*
X45559Y270775D01*
X45104Y269678D01*
X44949Y268500D01*
X45104Y267322D01*
X45559Y266225D01*
X46282Y265282D01*
X47225Y264559D01*
X48322Y264104D01*
X49500Y263949D01*
X50678Y264104D01*
X51775Y264559D01*
X52718Y265282D01*
X53441Y266225D01*
X53896Y267322D01*
X54051Y268500D01*
X53896Y269678D01*
X53441Y270775D01*
X52718Y271718D01*
X51775Y272441D01*
X50678Y272896D01*
X49500Y273051D01*
D02*
G37*
G36*
X164500Y274035D02*
X163456Y273897D01*
X162483Y273494D01*
X161647Y272853D01*
X161006Y272017D01*
X160603Y271044D01*
X160466Y270000D01*
X160603Y268956D01*
X161006Y267983D01*
X161647Y267147D01*
X162483Y266506D01*
X163351Y266146D01*
X163408Y265811D01*
X163376Y265616D01*
X163235Y265557D01*
X162504Y264996D01*
X161943Y264265D01*
X161626Y263500D01*
X168374D01*
X168057Y264265D01*
X167496Y264996D01*
X166765Y265557D01*
X166149Y265812D01*
Y266354D01*
X166517Y266506D01*
X167353Y267147D01*
X167994Y267983D01*
X168397Y268956D01*
X168535Y270000D01*
X168397Y271044D01*
X167994Y272017D01*
X167353Y272853D01*
X166517Y273494D01*
X165544Y273897D01*
X164500Y274035D01*
D02*
G37*
G36*
X20681Y275941D02*
X19229Y275798D01*
X17833Y275375D01*
X16547Y274687D01*
X15419Y273762D01*
X14494Y272634D01*
X13806Y271348D01*
X13383Y269952D01*
X13240Y268500D01*
X13383Y267048D01*
X13806Y265652D01*
X14494Y264366D01*
X15419Y263238D01*
X16547Y262313D01*
X17833Y261625D01*
X19229Y261202D01*
X20681Y261059D01*
X22133Y261202D01*
X23529Y261625D01*
X24815Y262313D01*
X25943Y263238D01*
X26868Y264366D01*
X27556Y265652D01*
X27979Y267048D01*
X28122Y268500D01*
X27979Y269952D01*
X27556Y271348D01*
X26868Y272634D01*
X25943Y273762D01*
X24815Y274687D01*
X23529Y275375D01*
X22133Y275798D01*
X20681Y275941D01*
D02*
G37*
G36*
X168374Y261500D02*
X166000D01*
Y259126D01*
X166765Y259443D01*
X167496Y260004D01*
X168057Y260735D01*
X168374Y261500D01*
D02*
G37*
G36*
X164000D02*
X161626D01*
X161943Y260735D01*
X162504Y260004D01*
X163235Y259443D01*
X164000Y259126D01*
Y261500D01*
D02*
G37*
G36*
X668000Y260539D02*
X666825Y260384D01*
X665731Y259931D01*
X664791Y259209D01*
X664069Y258269D01*
X663771Y257548D01*
X663229D01*
X662931Y258269D01*
X662209Y259209D01*
X661269Y259931D01*
X660175Y260384D01*
X659000Y260539D01*
X657825Y260384D01*
X656731Y259931D01*
X655791Y259209D01*
X655069Y258269D01*
X654616Y257175D01*
X654461Y256000D01*
X654616Y254825D01*
X655069Y253731D01*
X655791Y252791D01*
X656731Y252069D01*
X657825Y251616D01*
X659000Y251461D01*
X660175Y251616D01*
X661269Y252069D01*
X662209Y252791D01*
X662931Y253731D01*
X663229Y254452D01*
X663771D01*
X664069Y253731D01*
X664791Y252791D01*
X665731Y252069D01*
X666825Y251616D01*
X668000Y251461D01*
X669175Y251616D01*
X670269Y252069D01*
X671209Y252791D01*
X671931Y253731D01*
X672384Y254825D01*
X672539Y256000D01*
X672384Y257175D01*
X671931Y258269D01*
X671209Y259209D01*
X670269Y259931D01*
X669175Y260384D01*
X668000Y260539D01*
D02*
G37*
G36*
X558000Y256874D02*
Y254500D01*
X560374D01*
X560057Y255265D01*
X559496Y255996D01*
X558765Y256557D01*
X558000Y256874D01*
D02*
G37*
G36*
X556000D02*
X555235Y256557D01*
X554504Y255996D01*
X553943Y255265D01*
X553626Y254500D01*
X556000D01*
Y256874D01*
D02*
G37*
G36*
X216626Y255034D02*
X215582Y254897D01*
X214609Y254494D01*
X213876Y253932D01*
X213143Y254494D01*
X212170Y254897D01*
X211126Y255034D01*
X210082Y254897D01*
X209109Y254494D01*
X208376Y253932D01*
X207643Y254494D01*
X206670Y254897D01*
X205626Y255034D01*
X204582Y254897D01*
X203609Y254494D01*
X202773Y253853D01*
X202132Y253017D01*
X201729Y252044D01*
X201591Y251000D01*
X201729Y249956D01*
X202132Y248983D01*
X202773Y248147D01*
X203609Y247506D01*
X204582Y247103D01*
X205626Y246966D01*
X206670Y247103D01*
X207643Y247506D01*
X208376Y248068D01*
X209109Y247506D01*
X210082Y247103D01*
X211126Y246966D01*
X212170Y247103D01*
X213143Y247506D01*
X213876Y248068D01*
X214609Y247506D01*
X215582Y247103D01*
X216626Y246966D01*
X217670Y247103D01*
X218643Y247506D01*
X219479Y248147D01*
X220120Y248983D01*
X220523Y249956D01*
X220660Y251000D01*
X220523Y252044D01*
X220120Y253017D01*
X219479Y253853D01*
X218643Y254494D01*
X217670Y254897D01*
X216626Y255034D01*
D02*
G37*
G36*
X417000Y255374D02*
Y253000D01*
X419374D01*
X419057Y253765D01*
X418496Y254496D01*
X417765Y255057D01*
X417000Y255374D01*
D02*
G37*
G36*
X415000D02*
X414235Y255057D01*
X413504Y254496D01*
X412943Y253765D01*
X412626Y253000D01*
X415000D01*
Y255374D01*
D02*
G37*
G36*
X382000Y261039D02*
X380825Y260884D01*
X379731Y260431D01*
X378791Y259709D01*
X378069Y258769D01*
X377616Y257675D01*
X377461Y256500D01*
X377616Y255325D01*
X378069Y254231D01*
X378791Y253291D01*
X379731Y252569D01*
X380825Y252116D01*
X382000Y251961D01*
X383175Y252116D01*
X384269Y252569D01*
X385209Y253291D01*
X385931Y254231D01*
X386384Y255325D01*
X386539Y256500D01*
X386384Y257675D01*
X385931Y258769D01*
X385209Y259709D01*
X384269Y260431D01*
X383175Y260884D01*
X382000Y261039D01*
D02*
G37*
G36*
X266000Y252874D02*
Y250500D01*
X268374D01*
X268057Y251265D01*
X267496Y251996D01*
X266765Y252557D01*
X266000Y252874D01*
D02*
G37*
G36*
X264000D02*
X263235Y252557D01*
X262504Y251996D01*
X261943Y251265D01*
X261626Y250500D01*
X264000D01*
Y252874D01*
D02*
G37*
G36*
X560374Y252500D02*
X558000D01*
Y250126D01*
X558765Y250443D01*
X559496Y251004D01*
X560057Y251735D01*
X560374Y252500D01*
D02*
G37*
G36*
X556000D02*
X553626D01*
X553943Y251735D01*
X554504Y251004D01*
X555235Y250443D01*
X556000Y250126D01*
Y252500D01*
D02*
G37*
G36*
X509500Y259539D02*
X508325Y259384D01*
X507231Y258931D01*
X506291Y258209D01*
X505569Y257269D01*
X505116Y256175D01*
X504961Y255000D01*
X505116Y253825D01*
X505569Y252731D01*
X506291Y251791D01*
X507231Y251069D01*
X508325Y250616D01*
X509500Y250461D01*
X510675Y250616D01*
X511769Y251069D01*
X512709Y251791D01*
X513431Y252731D01*
X513884Y253825D01*
X513975Y254519D01*
X513976Y254525D01*
X514461Y254500D01*
X514464Y254478D01*
X514616Y253325D01*
X515069Y252231D01*
X515791Y251291D01*
X516731Y250569D01*
X517825Y250116D01*
X519000Y249961D01*
X520175Y250116D01*
X521269Y250569D01*
X522209Y251291D01*
X522931Y252231D01*
X523384Y253325D01*
X523539Y254500D01*
X523384Y255675D01*
X522931Y256769D01*
X522209Y257709D01*
X521269Y258431D01*
X520175Y258884D01*
X519000Y259039D01*
X517825Y258884D01*
X516731Y258431D01*
X515791Y257709D01*
X515069Y256769D01*
X514616Y255675D01*
X514525Y254981D01*
X514524Y254975D01*
X514039Y255000D01*
X514036Y255022D01*
X513884Y256175D01*
X513431Y257269D01*
X512709Y258209D01*
X511769Y258931D01*
X510675Y259384D01*
X509500Y259539D01*
D02*
G37*
G36*
X371000Y258539D02*
X369825Y258384D01*
X368731Y257931D01*
X367791Y257209D01*
X367069Y256269D01*
X366616Y255175D01*
X366461Y254000D01*
X366616Y252825D01*
X367069Y251731D01*
X367791Y250791D01*
X368731Y250069D01*
X369825Y249616D01*
X371000Y249461D01*
X372175Y249616D01*
X373269Y250069D01*
X374209Y250791D01*
X374931Y251731D01*
X375384Y252825D01*
X375539Y254000D01*
X375384Y255175D01*
X374931Y256269D01*
X374209Y257209D01*
X373269Y257931D01*
X372175Y258384D01*
X371000Y258539D01*
D02*
G37*
G36*
X419374Y251000D02*
X417000D01*
Y248626D01*
X417765Y248943D01*
X418496Y249504D01*
X419057Y250235D01*
X419374Y251000D01*
D02*
G37*
G36*
X415000D02*
X412626D01*
X412943Y250235D01*
X413504Y249504D01*
X414235Y248943D01*
X415000Y248626D01*
Y251000D01*
D02*
G37*
G36*
X85000Y256039D02*
X83825Y255884D01*
X82731Y255431D01*
X81791Y254709D01*
X81069Y253769D01*
X80616Y252675D01*
X80461Y251500D01*
X80616Y250325D01*
X81069Y249231D01*
X81791Y248291D01*
X82731Y247569D01*
X83825Y247116D01*
X85000Y246961D01*
X86175Y247116D01*
X87269Y247569D01*
X88209Y248291D01*
X88931Y249231D01*
X89384Y250325D01*
X89539Y251500D01*
X89384Y252675D01*
X88931Y253769D01*
X88209Y254709D01*
X87269Y255431D01*
X86175Y255884D01*
X85000Y256039D01*
D02*
G37*
G36*
X268374Y248500D02*
X266000D01*
Y246126D01*
X266765Y246443D01*
X267496Y247004D01*
X268057Y247735D01*
X268374Y248500D01*
D02*
G37*
G36*
X264000D02*
X261626D01*
X261943Y247735D01*
X262504Y247004D01*
X263235Y246443D01*
X264000Y246126D01*
Y248500D01*
D02*
G37*
G36*
X305183Y253718D02*
X304139Y253580D01*
X303166Y253177D01*
X302330Y252536D01*
X301689Y251700D01*
X301286Y250727D01*
X301149Y249683D01*
X301286Y248639D01*
X301689Y247666D01*
X302330Y246830D01*
X303166Y246189D01*
X304139Y245786D01*
X305183Y245649D01*
X306227Y245786D01*
X307200Y246189D01*
X308036Y246830D01*
X308677Y247666D01*
X309080Y248639D01*
X309218Y249683D01*
X309080Y250727D01*
X308677Y251700D01*
X308036Y252536D01*
X307200Y253177D01*
X306227Y253580D01*
X305183Y253718D01*
D02*
G37*
G36*
X585866Y249668D02*
X584822Y249531D01*
X583849Y249128D01*
X583013Y248487D01*
X582372Y247651D01*
X581969Y246678D01*
X581832Y245634D01*
X581969Y244590D01*
X582372Y243617D01*
X583013Y242781D01*
X583849Y242140D01*
X584822Y241737D01*
X585866Y241599D01*
X586910Y241737D01*
X587883Y242140D01*
X588719Y242781D01*
X589360Y243617D01*
X589763Y244590D01*
X589901Y245634D01*
X589763Y246678D01*
X589360Y247651D01*
X588719Y248487D01*
X587883Y249128D01*
X586910Y249531D01*
X585866Y249668D01*
D02*
G37*
G36*
X436000Y248035D02*
X434956Y247897D01*
X433983Y247494D01*
X433147Y246853D01*
X432506Y246017D01*
X432103Y245044D01*
X431965Y244000D01*
X432103Y242956D01*
X432506Y241983D01*
X433147Y241147D01*
X433983Y240506D01*
X434956Y240103D01*
X436000Y239966D01*
X437044Y240103D01*
X438017Y240506D01*
X438853Y241147D01*
X439494Y241983D01*
X439897Y242956D01*
X440034Y244000D01*
X439897Y245044D01*
X439494Y246017D01*
X438853Y246853D01*
X438017Y247494D01*
X437044Y247897D01*
X436000Y248035D01*
D02*
G37*
G36*
X685500Y241200D02*
X676500D01*
Y232200D01*
X685500D01*
Y241200D01*
D02*
G37*
G36*
X671000Y241239D02*
X669825Y241084D01*
X668731Y240631D01*
X667791Y239909D01*
X667069Y238969D01*
X666616Y237875D01*
X666461Y236700D01*
X666616Y235525D01*
X667069Y234431D01*
X667791Y233491D01*
X668731Y232769D01*
X669825Y232316D01*
X671000Y232161D01*
X672175Y232316D01*
X673269Y232769D01*
X674209Y233491D01*
X674931Y234431D01*
X675384Y235525D01*
X675539Y236700D01*
X675384Y237875D01*
X674931Y238969D01*
X674209Y239909D01*
X673269Y240631D01*
X672175Y241084D01*
X671000Y241239D01*
D02*
G37*
G36*
X661000D02*
X659825Y241084D01*
X658731Y240631D01*
X657791Y239909D01*
X657069Y238969D01*
X656616Y237875D01*
X656461Y236700D01*
X656616Y235525D01*
X657069Y234431D01*
X657791Y233491D01*
X658731Y232769D01*
X659825Y232316D01*
X661000Y232161D01*
X662175Y232316D01*
X663269Y232769D01*
X664209Y233491D01*
X664931Y234431D01*
X665384Y235525D01*
X665539Y236700D01*
X665384Y237875D01*
X664931Y238969D01*
X664209Y239909D01*
X663269Y240631D01*
X662175Y241084D01*
X661000Y241239D01*
D02*
G37*
G36*
X651000D02*
X649825Y241084D01*
X648731Y240631D01*
X647791Y239909D01*
X647069Y238969D01*
X646616Y237875D01*
X646461Y236700D01*
X646616Y235525D01*
X647069Y234431D01*
X647791Y233491D01*
X648731Y232769D01*
X649825Y232316D01*
X651000Y232161D01*
X652175Y232316D01*
X653269Y232769D01*
X654209Y233491D01*
X654931Y234431D01*
X655384Y235525D01*
X655539Y236700D01*
X655384Y237875D01*
X654931Y238969D01*
X654209Y239909D01*
X653269Y240631D01*
X652175Y241084D01*
X651000Y241239D01*
D02*
G37*
G36*
X641000D02*
X639825Y241084D01*
X638731Y240631D01*
X637791Y239909D01*
X637069Y238969D01*
X636616Y237875D01*
X636461Y236700D01*
X636616Y235525D01*
X637069Y234431D01*
X637791Y233491D01*
X638731Y232769D01*
X639825Y232316D01*
X641000Y232161D01*
X642175Y232316D01*
X643269Y232769D01*
X644209Y233491D01*
X644931Y234431D01*
X645384Y235525D01*
X645539Y236700D01*
X645384Y237875D01*
X644931Y238969D01*
X644209Y239909D01*
X643269Y240631D01*
X642175Y241084D01*
X641000Y241239D01*
D02*
G37*
G36*
X631000D02*
X629825Y241084D01*
X628731Y240631D01*
X627791Y239909D01*
X627069Y238969D01*
X626616Y237875D01*
X626461Y236700D01*
X626616Y235525D01*
X627069Y234431D01*
X627791Y233491D01*
X628731Y232769D01*
X629825Y232316D01*
X631000Y232161D01*
X632175Y232316D01*
X633269Y232769D01*
X634209Y233491D01*
X634931Y234431D01*
X635384Y235525D01*
X635539Y236700D01*
X635384Y237875D01*
X634931Y238969D01*
X634209Y239909D01*
X633269Y240631D01*
X632175Y241084D01*
X631000Y241239D01*
D02*
G37*
G36*
X621000D02*
X619825Y241084D01*
X618731Y240631D01*
X617791Y239909D01*
X617069Y238969D01*
X616616Y237875D01*
X616461Y236700D01*
X616616Y235525D01*
X617069Y234431D01*
X617791Y233491D01*
X618731Y232769D01*
X619825Y232316D01*
X621000Y232161D01*
X622175Y232316D01*
X623269Y232769D01*
X624209Y233491D01*
X624931Y234431D01*
X625384Y235525D01*
X625539Y236700D01*
X625384Y237875D01*
X624931Y238969D01*
X624209Y239909D01*
X623269Y240631D01*
X622175Y241084D01*
X621000Y241239D01*
D02*
G37*
G36*
X611000D02*
X609825Y241084D01*
X608731Y240631D01*
X607791Y239909D01*
X607069Y238969D01*
X606616Y237875D01*
X606461Y236700D01*
X606616Y235525D01*
X607069Y234431D01*
X607791Y233491D01*
X608731Y232769D01*
X609825Y232316D01*
X611000Y232161D01*
X612175Y232316D01*
X613269Y232769D01*
X614209Y233491D01*
X614931Y234431D01*
X615384Y235525D01*
X615539Y236700D01*
X615384Y237875D01*
X614931Y238969D01*
X614209Y239909D01*
X613269Y240631D01*
X612175Y241084D01*
X611000Y241239D01*
D02*
G37*
G36*
X535000Y240700D02*
X526000D01*
Y231700D01*
X535000D01*
Y240700D01*
D02*
G37*
G36*
X520500Y240739D02*
X519325Y240584D01*
X518231Y240131D01*
X517291Y239409D01*
X516569Y238469D01*
X516116Y237375D01*
X515961Y236200D01*
X516116Y235025D01*
X516569Y233931D01*
X517291Y232991D01*
X518231Y232269D01*
X519325Y231816D01*
X520500Y231661D01*
X521675Y231816D01*
X522769Y232269D01*
X523709Y232991D01*
X524431Y233931D01*
X524884Y235025D01*
X525039Y236200D01*
X524884Y237375D01*
X524431Y238469D01*
X523709Y239409D01*
X522769Y240131D01*
X521675Y240584D01*
X520500Y240739D01*
D02*
G37*
G36*
X510500D02*
X509325Y240584D01*
X508231Y240131D01*
X507291Y239409D01*
X506569Y238469D01*
X506116Y237375D01*
X505961Y236200D01*
X506116Y235025D01*
X506569Y233931D01*
X507291Y232991D01*
X508231Y232269D01*
X509325Y231816D01*
X510500Y231661D01*
X511675Y231816D01*
X512769Y232269D01*
X513709Y232991D01*
X514431Y233931D01*
X514884Y235025D01*
X515039Y236200D01*
X514884Y237375D01*
X514431Y238469D01*
X513709Y239409D01*
X512769Y240131D01*
X511675Y240584D01*
X510500Y240739D01*
D02*
G37*
G36*
X500500D02*
X499325Y240584D01*
X498231Y240131D01*
X497291Y239409D01*
X496569Y238469D01*
X496116Y237375D01*
X495961Y236200D01*
X496116Y235025D01*
X496569Y233931D01*
X497291Y232991D01*
X498231Y232269D01*
X499325Y231816D01*
X500500Y231661D01*
X501675Y231816D01*
X502769Y232269D01*
X503709Y232991D01*
X504431Y233931D01*
X504884Y235025D01*
X505039Y236200D01*
X504884Y237375D01*
X504431Y238469D01*
X503709Y239409D01*
X502769Y240131D01*
X501675Y240584D01*
X500500Y240739D01*
D02*
G37*
G36*
X490500D02*
X489325Y240584D01*
X488231Y240131D01*
X487291Y239409D01*
X486569Y238469D01*
X486116Y237375D01*
X485961Y236200D01*
X486116Y235025D01*
X486569Y233931D01*
X487291Y232991D01*
X488231Y232269D01*
X489325Y231816D01*
X490500Y231661D01*
X491675Y231816D01*
X492769Y232269D01*
X493709Y232991D01*
X494431Y233931D01*
X494884Y235025D01*
X495039Y236200D01*
X494884Y237375D01*
X494431Y238469D01*
X493709Y239409D01*
X492769Y240131D01*
X491675Y240584D01*
X490500Y240739D01*
D02*
G37*
G36*
X480500D02*
X479325Y240584D01*
X478231Y240131D01*
X477291Y239409D01*
X476569Y238469D01*
X476116Y237375D01*
X475961Y236200D01*
X476116Y235025D01*
X476569Y233931D01*
X477291Y232991D01*
X478231Y232269D01*
X479325Y231816D01*
X480500Y231661D01*
X481675Y231816D01*
X482769Y232269D01*
X483709Y232991D01*
X484431Y233931D01*
X484884Y235025D01*
X485039Y236200D01*
X484884Y237375D01*
X484431Y238469D01*
X483709Y239409D01*
X482769Y240131D01*
X481675Y240584D01*
X480500Y240739D01*
D02*
G37*
G36*
X470500D02*
X469325Y240584D01*
X468231Y240131D01*
X467291Y239409D01*
X466569Y238469D01*
X466116Y237375D01*
X465961Y236200D01*
X466116Y235025D01*
X466569Y233931D01*
X467291Y232991D01*
X468231Y232269D01*
X469325Y231816D01*
X470500Y231661D01*
X471675Y231816D01*
X472769Y232269D01*
X473709Y232991D01*
X474431Y233931D01*
X474884Y235025D01*
X475039Y236200D01*
X474884Y237375D01*
X474431Y238469D01*
X473709Y239409D01*
X472769Y240131D01*
X471675Y240584D01*
X470500Y240739D01*
D02*
G37*
G36*
X460500D02*
X459325Y240584D01*
X458231Y240131D01*
X457291Y239409D01*
X456569Y238469D01*
X456116Y237375D01*
X455961Y236200D01*
X456116Y235025D01*
X456569Y233931D01*
X457291Y232991D01*
X458231Y232269D01*
X459325Y231816D01*
X460500Y231661D01*
X461675Y231816D01*
X462769Y232269D01*
X463709Y232991D01*
X464431Y233931D01*
X464884Y235025D01*
X465039Y236200D01*
X464884Y237375D01*
X464431Y238469D01*
X463709Y239409D01*
X462769Y240131D01*
X461675Y240584D01*
X460500Y240739D01*
D02*
G37*
G36*
X191551Y239551D02*
X182449D01*
Y230449D01*
X191551D01*
Y239551D01*
D02*
G37*
G36*
X396500Y239200D02*
X387500D01*
Y230200D01*
X396500D01*
Y239200D01*
D02*
G37*
G36*
X382000Y239239D02*
X380825Y239084D01*
X379731Y238631D01*
X378791Y237909D01*
X378069Y236969D01*
X377616Y235875D01*
X377461Y234700D01*
X377616Y233525D01*
X378069Y232431D01*
X378791Y231491D01*
X379731Y230769D01*
X380825Y230316D01*
X382000Y230161D01*
X383175Y230316D01*
X384269Y230769D01*
X385209Y231491D01*
X385931Y232431D01*
X386384Y233525D01*
X386539Y234700D01*
X386384Y235875D01*
X385931Y236969D01*
X385209Y237909D01*
X384269Y238631D01*
X383175Y239084D01*
X382000Y239239D01*
D02*
G37*
G36*
X372000D02*
X370825Y239084D01*
X369731Y238631D01*
X368791Y237909D01*
X368069Y236969D01*
X367616Y235875D01*
X367461Y234700D01*
X367616Y233525D01*
X368069Y232431D01*
X368791Y231491D01*
X369731Y230769D01*
X370825Y230316D01*
X372000Y230161D01*
X373175Y230316D01*
X374269Y230769D01*
X375209Y231491D01*
X375931Y232431D01*
X376384Y233525D01*
X376539Y234700D01*
X376384Y235875D01*
X375931Y236969D01*
X375209Y237909D01*
X374269Y238631D01*
X373175Y239084D01*
X372000Y239239D01*
D02*
G37*
G36*
X362000D02*
X360825Y239084D01*
X359731Y238631D01*
X358791Y237909D01*
X358069Y236969D01*
X357616Y235875D01*
X357461Y234700D01*
X357616Y233525D01*
X358069Y232431D01*
X358791Y231491D01*
X359731Y230769D01*
X360825Y230316D01*
X362000Y230161D01*
X363175Y230316D01*
X364269Y230769D01*
X365209Y231491D01*
X365931Y232431D01*
X366384Y233525D01*
X366539Y234700D01*
X366384Y235875D01*
X365931Y236969D01*
X365209Y237909D01*
X364269Y238631D01*
X363175Y239084D01*
X362000Y239239D01*
D02*
G37*
G36*
X352000D02*
X350825Y239084D01*
X349731Y238631D01*
X348791Y237909D01*
X348069Y236969D01*
X347616Y235875D01*
X347461Y234700D01*
X347616Y233525D01*
X348069Y232431D01*
X348791Y231491D01*
X349731Y230769D01*
X350825Y230316D01*
X352000Y230161D01*
X353175Y230316D01*
X354269Y230769D01*
X355209Y231491D01*
X355931Y232431D01*
X356384Y233525D01*
X356539Y234700D01*
X356384Y235875D01*
X355931Y236969D01*
X355209Y237909D01*
X354269Y238631D01*
X353175Y239084D01*
X352000Y239239D01*
D02*
G37*
G36*
X342000D02*
X340825Y239084D01*
X339731Y238631D01*
X338791Y237909D01*
X338069Y236969D01*
X337616Y235875D01*
X337461Y234700D01*
X337616Y233525D01*
X338069Y232431D01*
X338791Y231491D01*
X339731Y230769D01*
X340825Y230316D01*
X342000Y230161D01*
X343175Y230316D01*
X344269Y230769D01*
X345209Y231491D01*
X345931Y232431D01*
X346384Y233525D01*
X346539Y234700D01*
X346384Y235875D01*
X345931Y236969D01*
X345209Y237909D01*
X344269Y238631D01*
X343175Y239084D01*
X342000Y239239D01*
D02*
G37*
G36*
X332000D02*
X330825Y239084D01*
X329731Y238631D01*
X328791Y237909D01*
X328069Y236969D01*
X327616Y235875D01*
X327461Y234700D01*
X327616Y233525D01*
X328069Y232431D01*
X328791Y231491D01*
X329731Y230769D01*
X330825Y230316D01*
X332000Y230161D01*
X333175Y230316D01*
X334269Y230769D01*
X335209Y231491D01*
X335931Y232431D01*
X336384Y233525D01*
X336539Y234700D01*
X336384Y235875D01*
X335931Y236969D01*
X335209Y237909D01*
X334269Y238631D01*
X333175Y239084D01*
X332000Y239239D01*
D02*
G37*
G36*
X322000D02*
X320825Y239084D01*
X319731Y238631D01*
X318791Y237909D01*
X318069Y236969D01*
X317616Y235875D01*
X317461Y234700D01*
X317616Y233525D01*
X318069Y232431D01*
X318791Y231491D01*
X319731Y230769D01*
X320825Y230316D01*
X322000Y230161D01*
X323175Y230316D01*
X324269Y230769D01*
X325209Y231491D01*
X325931Y232431D01*
X326384Y233525D01*
X326539Y234700D01*
X326384Y235875D01*
X325931Y236969D01*
X325209Y237909D01*
X324269Y238631D01*
X323175Y239084D01*
X322000Y239239D01*
D02*
G37*
G36*
X100858Y238282D02*
X99697Y238130D01*
X98615Y237681D01*
X97685Y236968D01*
X96972Y236039D01*
X96524Y234957D01*
X96371Y233795D01*
X96524Y232634D01*
X96972Y231552D01*
X97685Y230622D01*
X98615Y229909D01*
X99697Y229461D01*
X100858Y229308D01*
X102020Y229461D01*
X103102Y229909D01*
X104031Y230622D01*
X104744Y231552D01*
X105193Y232634D01*
X105345Y233795D01*
X105193Y234957D01*
X104744Y236039D01*
X104031Y236968D01*
X103102Y237681D01*
X102020Y238130D01*
X100858Y238282D01*
D02*
G37*
G36*
X83142D02*
X81980Y238130D01*
X80898Y237681D01*
X79969Y236968D01*
X79256Y236039D01*
X78807Y234957D01*
X78654Y233795D01*
X78807Y232634D01*
X79256Y231552D01*
X79969Y230622D01*
X80898Y229909D01*
X81980Y229461D01*
X83142Y229308D01*
X84303Y229461D01*
X85385Y229909D01*
X86315Y230622D01*
X87028Y231552D01*
X87476Y232634D01*
X87629Y233795D01*
X87476Y234957D01*
X87028Y236039D01*
X86315Y236968D01*
X85385Y237681D01*
X84303Y238130D01*
X83142Y238282D01*
D02*
G37*
G36*
X685500Y231200D02*
X676500D01*
Y222200D01*
X685500D01*
Y231200D01*
D02*
G37*
G36*
X535000Y230700D02*
X526000D01*
Y221700D01*
X535000D01*
Y230700D01*
D02*
G37*
G36*
X42376Y230569D02*
X33352D01*
Y221546D01*
X42376D01*
Y230569D01*
D02*
G37*
G36*
X49675Y230608D02*
X48497Y230453D01*
X47400Y229998D01*
X46457Y229275D01*
X45734Y228333D01*
X45279Y227235D01*
X45125Y226057D01*
X45279Y224880D01*
X45734Y223782D01*
X46457Y222839D01*
X47400Y222116D01*
X48497Y221662D01*
X49675Y221507D01*
X50853Y221662D01*
X51951Y222116D01*
X52893Y222839D01*
X53616Y223782D01*
X54071Y224880D01*
X54226Y226057D01*
X54071Y227235D01*
X53616Y228333D01*
X52893Y229275D01*
X51951Y229998D01*
X50853Y230453D01*
X49675Y230608D01*
D02*
G37*
G36*
X187000Y229591D02*
X185812Y229434D01*
X184705Y228976D01*
X183754Y228246D01*
X183025Y227295D01*
X182566Y226188D01*
X182410Y225000D01*
X182566Y223812D01*
X183025Y222705D01*
X183754Y221754D01*
X184705Y221024D01*
X185812Y220566D01*
X187000Y220409D01*
X188188Y220566D01*
X189295Y221024D01*
X190246Y221754D01*
X190975Y222705D01*
X191434Y223812D01*
X191590Y225000D01*
X191434Y226188D01*
X190975Y227295D01*
X190246Y228246D01*
X189295Y228976D01*
X188188Y229434D01*
X187000Y229591D01*
D02*
G37*
G36*
X396500Y229200D02*
X387500D01*
Y220200D01*
X396500D01*
Y229200D01*
D02*
G37*
G36*
X125000Y227034D02*
X123956Y226897D01*
X122983Y226494D01*
X122147Y225853D01*
X121506Y225017D01*
X121103Y224044D01*
X120966Y223000D01*
X121103Y221956D01*
X121506Y220983D01*
X122147Y220147D01*
X122983Y219506D01*
X123956Y219103D01*
X125000Y218966D01*
X126044Y219103D01*
X127017Y219506D01*
X127853Y220147D01*
X128494Y220983D01*
X128897Y221956D01*
X129034Y223000D01*
X128897Y224044D01*
X128494Y225017D01*
X127853Y225853D01*
X127017Y226494D01*
X126044Y226897D01*
X125000Y227034D01*
D02*
G37*
G36*
X20856Y233499D02*
X19405Y233356D01*
X18009Y232932D01*
X16722Y232245D01*
X15595Y231319D01*
X14669Y230192D01*
X13981Y228905D01*
X13558Y227509D01*
X13415Y226057D01*
X13558Y224606D01*
X13981Y223210D01*
X14669Y221923D01*
X15595Y220796D01*
X16722Y219870D01*
X18009Y219182D01*
X19405Y218759D01*
X20856Y218616D01*
X22308Y218759D01*
X23704Y219182D01*
X24991Y219870D01*
X26118Y220796D01*
X27044Y221923D01*
X27731Y223210D01*
X28155Y224606D01*
X28298Y226057D01*
X28155Y227509D01*
X27731Y228905D01*
X27044Y230192D01*
X26118Y231319D01*
X24991Y232245D01*
X23704Y232932D01*
X22308Y233356D01*
X20856Y233499D01*
D02*
G37*
G36*
X188000Y218954D02*
Y216000D01*
X190954D01*
X190947Y216058D01*
X190539Y217043D01*
X189889Y217889D01*
X189043Y218539D01*
X188058Y218947D01*
X188000Y218954D01*
D02*
G37*
G36*
X186000D02*
X185942Y218947D01*
X184957Y218539D01*
X184111Y217889D01*
X183461Y217043D01*
X183053Y216058D01*
X183045Y216000D01*
X186000D01*
Y218954D01*
D02*
G37*
G36*
X681000Y221239D02*
X679825Y221084D01*
X678731Y220631D01*
X677791Y219909D01*
X677069Y218969D01*
X676616Y217875D01*
X676461Y216700D01*
X676616Y215525D01*
X677069Y214431D01*
X677791Y213491D01*
X678731Y212769D01*
X679825Y212316D01*
X681000Y212161D01*
X682175Y212316D01*
X683269Y212769D01*
X684209Y213491D01*
X684931Y214431D01*
X685384Y215525D01*
X685539Y216700D01*
X685384Y217875D01*
X684931Y218969D01*
X684209Y219909D01*
X683269Y220631D01*
X682175Y221084D01*
X681000Y221239D01*
D02*
G37*
G36*
X530500Y220739D02*
X529325Y220584D01*
X528231Y220131D01*
X527291Y219409D01*
X526569Y218469D01*
X526116Y217375D01*
X525961Y216200D01*
X526116Y215025D01*
X526569Y213931D01*
X527291Y212991D01*
X528231Y212269D01*
X529325Y211816D01*
X530500Y211661D01*
X531675Y211816D01*
X532769Y212269D01*
X533709Y212991D01*
X534431Y213931D01*
X534884Y215025D01*
X535039Y216200D01*
X534884Y217375D01*
X534431Y218469D01*
X533709Y219409D01*
X532769Y220131D01*
X531675Y220584D01*
X530500Y220739D01*
D02*
G37*
G36*
X190954Y214000D02*
X188000D01*
Y211046D01*
X188058Y211053D01*
X189043Y211461D01*
X189889Y212111D01*
X190539Y212957D01*
X190947Y213942D01*
X190954Y214000D01*
D02*
G37*
G36*
X186000D02*
X183045D01*
X183053Y213942D01*
X183461Y212957D01*
X184111Y212111D01*
X184957Y211461D01*
X185942Y211053D01*
X186000Y211046D01*
Y214000D01*
D02*
G37*
G36*
X392000Y219239D02*
X390825Y219084D01*
X389731Y218631D01*
X388791Y217909D01*
X388069Y216969D01*
X387616Y215875D01*
X387461Y214700D01*
X387616Y213525D01*
X388069Y212431D01*
X388791Y211491D01*
X389731Y210769D01*
X390825Y210316D01*
X392000Y210161D01*
X393175Y210316D01*
X394269Y210769D01*
X395209Y211491D01*
X395931Y212431D01*
X396384Y213525D01*
X396539Y214700D01*
X396384Y215875D01*
X395931Y216969D01*
X395209Y217909D01*
X394269Y218631D01*
X393175Y219084D01*
X392000Y219239D01*
D02*
G37*
G36*
X100858Y212692D02*
X99697Y212539D01*
X98615Y212091D01*
X97685Y211378D01*
X96972Y210448D01*
X96524Y209366D01*
X96371Y208205D01*
X96524Y207043D01*
X96972Y205961D01*
X97685Y205032D01*
X98615Y204319D01*
X99697Y203870D01*
X100858Y203717D01*
X102020Y203870D01*
X103102Y204319D01*
X104031Y205032D01*
X104744Y205961D01*
X105193Y207043D01*
X105345Y208205D01*
X105193Y209366D01*
X104744Y210448D01*
X104031Y211378D01*
X103102Y212091D01*
X102020Y212539D01*
X100858Y212692D01*
D02*
G37*
G36*
X83142D02*
X81980Y212539D01*
X80898Y212091D01*
X79969Y211378D01*
X79256Y210448D01*
X78807Y209366D01*
X78654Y208205D01*
X78807Y207043D01*
X79256Y205961D01*
X79969Y205032D01*
X80898Y204319D01*
X81980Y203870D01*
X83142Y203717D01*
X84303Y203870D01*
X85385Y204319D01*
X86315Y205032D01*
X87028Y205961D01*
X87476Y207043D01*
X87629Y208205D01*
X87476Y209366D01*
X87028Y210448D01*
X86315Y211378D01*
X85385Y212091D01*
X84303Y212539D01*
X83142Y212692D01*
D02*
G37*
G36*
X187000Y209591D02*
X185812Y209434D01*
X184705Y208976D01*
X183754Y208246D01*
X183025Y207295D01*
X182566Y206188D01*
X182410Y205000D01*
X182566Y203812D01*
X183025Y202705D01*
X183754Y201754D01*
X184705Y201025D01*
X185812Y200566D01*
X187000Y200410D01*
X188188Y200566D01*
X189295Y201025D01*
X190246Y201754D01*
X190975Y202705D01*
X191434Y203812D01*
X191590Y205000D01*
X191434Y206188D01*
X190975Y207295D01*
X190246Y208246D01*
X189295Y208976D01*
X188188Y209434D01*
X187000Y209591D01*
D02*
G37*
G36*
X94823Y191558D02*
X93909Y191437D01*
X93058Y191085D01*
X92718Y190824D01*
X92323Y190527D01*
X91927Y190824D01*
X91588Y191085D01*
X90737Y191437D01*
X89823Y191558D01*
X88909Y191437D01*
X88058Y191085D01*
X87327Y190524D01*
X86766Y189793D01*
X86413Y188941D01*
X86293Y188028D01*
X86413Y187114D01*
X86766Y186263D01*
X87327Y185531D01*
Y185524D01*
X86766Y184793D01*
X86413Y183941D01*
X86293Y183028D01*
X86413Y182114D01*
X86766Y181263D01*
X87026Y180923D01*
X87324Y180528D01*
X87026Y180132D01*
X86766Y179793D01*
X86413Y178941D01*
X86293Y178028D01*
X86413Y177114D01*
X86766Y176262D01*
X87327Y175531D01*
X87354Y175510D01*
X87423Y174828D01*
X87202Y174540D01*
X86990Y174028D01*
X89823D01*
Y172028D01*
X86990D01*
X87202Y171515D01*
X87423Y171228D01*
X87354Y170545D01*
X87327Y170524D01*
X86766Y169793D01*
X86413Y168941D01*
X86293Y168028D01*
X86413Y167114D01*
X86766Y166262D01*
X87327Y165531D01*
X88058Y164970D01*
X88909Y164618D01*
X89823Y164497D01*
X90737Y164618D01*
X91015Y164733D01*
X91323Y164527D01*
Y164528D01*
X98323D01*
Y171528D01*
X98323D01*
X98117Y171835D01*
X98233Y172114D01*
X98353Y173028D01*
X98233Y173941D01*
X97880Y174793D01*
X97620Y175132D01*
X97322Y175528D01*
X97620Y175923D01*
X97880Y176262D01*
X98233Y177114D01*
X98353Y178028D01*
X98233Y178941D01*
X97880Y179793D01*
X97319Y180524D01*
Y180531D01*
X97880Y181263D01*
X98233Y182114D01*
X98353Y183028D01*
X98233Y183941D01*
X97880Y184793D01*
X97620Y185132D01*
X97322Y185528D01*
X97620Y185923D01*
X97880Y186263D01*
X98233Y187114D01*
X98353Y188028D01*
X98233Y188941D01*
X97880Y189793D01*
X97319Y190524D01*
X96588Y191085D01*
X95736Y191437D01*
X94823Y191558D01*
D02*
G37*
G36*
X187000Y199591D02*
X185812Y199434D01*
X184705Y198976D01*
X183754Y198246D01*
X183025Y197295D01*
X182566Y196188D01*
X182410Y195000D01*
X182566Y193812D01*
X183025Y192705D01*
X183754Y191754D01*
X184705Y191024D01*
X185812Y190566D01*
X187000Y190410D01*
X188188Y190566D01*
X189295Y191024D01*
X190246Y191754D01*
X190975Y192705D01*
X191434Y193812D01*
X191590Y195000D01*
X191434Y196188D01*
X190975Y197295D01*
X190246Y198246D01*
X189295Y198976D01*
X188188Y199434D01*
X187000Y199591D01*
D02*
G37*
G36*
X614500Y197739D02*
X613325Y197584D01*
X612231Y197131D01*
X611291Y196409D01*
X610569Y195469D01*
X610116Y194375D01*
X609961Y193200D01*
X610116Y192025D01*
X610569Y190931D01*
X611291Y189991D01*
X612231Y189269D01*
X613325Y188816D01*
X614500Y188661D01*
X615675Y188816D01*
X616769Y189269D01*
X617709Y189991D01*
X618431Y190931D01*
X618884Y192025D01*
X619039Y193200D01*
X618884Y194375D01*
X618431Y195469D01*
X617709Y196409D01*
X616769Y197131D01*
X615675Y197584D01*
X614500Y197739D01*
D02*
G37*
G36*
X464000Y197239D02*
X462825Y197084D01*
X461731Y196631D01*
X460791Y195909D01*
X460069Y194969D01*
X459616Y193875D01*
X459461Y192700D01*
X459616Y191525D01*
X460069Y190431D01*
X460791Y189491D01*
X461731Y188769D01*
X462825Y188316D01*
X464000Y188161D01*
X465175Y188316D01*
X466269Y188769D01*
X467209Y189491D01*
X467931Y190431D01*
X468384Y191525D01*
X468539Y192700D01*
X468384Y193875D01*
X467931Y194969D01*
X467209Y195909D01*
X466269Y196631D01*
X465175Y197084D01*
X464000Y197239D01*
D02*
G37*
G36*
X38864Y190062D02*
Y186998D01*
X41928D01*
X41917Y187084D01*
X41497Y188096D01*
X40831Y188965D01*
X39962Y189631D01*
X38950Y190051D01*
X38864Y190062D01*
D02*
G37*
G36*
X36864D02*
X36778Y190051D01*
X35767Y189631D01*
X34898Y188965D01*
X34231Y188096D01*
X33812Y187084D01*
X33801Y186998D01*
X36864D01*
Y190062D01*
D02*
G37*
G36*
X325500Y195739D02*
X324325Y195584D01*
X323231Y195131D01*
X322291Y194409D01*
X321569Y193469D01*
X321116Y192375D01*
X320961Y191200D01*
X321116Y190025D01*
X321569Y188931D01*
X322291Y187991D01*
X323231Y187269D01*
X324325Y186816D01*
X325500Y186661D01*
X326675Y186816D01*
X327769Y187269D01*
X328709Y187991D01*
X329431Y188931D01*
X329884Y190025D01*
X330039Y191200D01*
X329884Y192375D01*
X329431Y193469D01*
X328709Y194409D01*
X327769Y195131D01*
X326675Y195584D01*
X325500Y195739D01*
D02*
G37*
G36*
X36864Y184998D02*
X33801D01*
X33812Y184912D01*
X34231Y183900D01*
X34898Y183032D01*
X35767Y182365D01*
X36778Y181946D01*
X36864Y181934D01*
Y184998D01*
D02*
G37*
G36*
X41928D02*
X38864D01*
Y181934D01*
X38950Y181946D01*
X39962Y182365D01*
X40831Y183032D01*
X41497Y183900D01*
X41917Y184912D01*
X41928Y184998D01*
D02*
G37*
G36*
X49675Y190698D02*
X48459Y190538D01*
X47325Y190068D01*
X46352Y189321D01*
X45605Y188348D01*
X45136Y187215D01*
X44976Y185998D01*
X45136Y184782D01*
X45605Y183648D01*
X46352Y182675D01*
X47325Y181928D01*
X48459Y181459D01*
X49675Y181298D01*
X50892Y181459D01*
X52025Y181928D01*
X52998Y182675D01*
X53745Y183648D01*
X54215Y184782D01*
X54375Y185998D01*
X54215Y187215D01*
X53745Y188348D01*
X52998Y189321D01*
X52025Y190068D01*
X50892Y190538D01*
X49675Y190698D01*
D02*
G37*
G36*
X244000Y176874D02*
Y174500D01*
X246374D01*
X246057Y175265D01*
X245496Y175996D01*
X244765Y176557D01*
X244000Y176874D01*
D02*
G37*
G36*
X242000D02*
X241235Y176557D01*
X240504Y175996D01*
X239943Y175265D01*
X239626Y174500D01*
X242000D01*
Y176874D01*
D02*
G37*
G36*
X116436Y182062D02*
X115392Y181925D01*
X114419Y181522D01*
X113583Y180880D01*
X112942Y180045D01*
X112539Y179072D01*
X112401Y178028D01*
X112539Y176983D01*
X112942Y176010D01*
X113583Y175175D01*
X114419Y174534D01*
X115392Y174130D01*
X116436Y173993D01*
X117480Y174130D01*
X118453Y174534D01*
X119289Y175175D01*
X119930Y176010D01*
X120333Y176983D01*
X120470Y178028D01*
X120333Y179072D01*
X119930Y180045D01*
X119289Y180880D01*
X118453Y181522D01*
X117480Y181925D01*
X116436Y182062D01*
D02*
G37*
G36*
X20856Y187633D02*
X19385Y187488D01*
X17971Y187059D01*
X16667Y186362D01*
X15525Y185424D01*
X14587Y184282D01*
X13890Y182978D01*
X13461Y181564D01*
X13316Y180093D01*
X13461Y178622D01*
X13890Y177207D01*
X14587Y175903D01*
X15525Y174761D01*
X16667Y173823D01*
X17971Y173126D01*
X19385Y172697D01*
X20856Y172552D01*
X22327Y172697D01*
X23742Y173126D01*
X25045Y173823D01*
X26188Y174761D01*
X27126Y175903D01*
X27823Y177207D01*
X28252Y178622D01*
X28396Y180093D01*
X28252Y181564D01*
X27823Y182978D01*
X27126Y184282D01*
X26188Y185424D01*
X25045Y186362D01*
X23742Y187059D01*
X22327Y187488D01*
X20856Y187633D01*
D02*
G37*
G36*
X150500Y173903D02*
Y171000D01*
X153403D01*
X153397Y171044D01*
X152994Y172017D01*
X152353Y172853D01*
X151517Y173494D01*
X150544Y173897D01*
X150500Y173903D01*
D02*
G37*
G36*
X148500D02*
X148456Y173897D01*
X147483Y173494D01*
X146647Y172853D01*
X146006Y172017D01*
X145603Y171044D01*
X145597Y171000D01*
X148500D01*
Y173903D01*
D02*
G37*
G36*
X246374Y172500D02*
X244000D01*
Y170126D01*
X244765Y170443D01*
X245496Y171004D01*
X246057Y171735D01*
X246374Y172500D01*
D02*
G37*
G36*
X242000D02*
X239626D01*
X239943Y171735D01*
X240504Y171004D01*
X241235Y170443D01*
X242000Y170126D01*
Y172500D01*
D02*
G37*
G36*
X42524Y178847D02*
X33205D01*
Y169528D01*
X42524D01*
Y178847D01*
D02*
G37*
G36*
X49675Y178887D02*
X48459Y178727D01*
X47325Y178257D01*
X46352Y177510D01*
X45605Y176537D01*
X45136Y175403D01*
X44976Y174187D01*
X45136Y172971D01*
X45605Y171837D01*
X46352Y170864D01*
X47325Y170117D01*
X48459Y169648D01*
X49675Y169488D01*
X50892Y169648D01*
X52025Y170117D01*
X52998Y170864D01*
X53745Y171837D01*
X54215Y172971D01*
X54375Y174187D01*
X54215Y175403D01*
X53745Y176537D01*
X52998Y177510D01*
X52025Y178257D01*
X50892Y178727D01*
X49675Y178887D01*
D02*
G37*
G36*
X325500Y176039D02*
X324325Y175884D01*
X323231Y175431D01*
X322291Y174709D01*
X321569Y173769D01*
X321116Y172675D01*
X320961Y171500D01*
X321116Y170325D01*
X321569Y169231D01*
X322291Y168291D01*
X323231Y167569D01*
X324325Y167116D01*
X325500Y166961D01*
X326675Y167116D01*
X327769Y167569D01*
X328709Y168291D01*
X329431Y169231D01*
X329884Y170325D01*
X330039Y171500D01*
X329884Y172675D01*
X329431Y173769D01*
X328709Y174709D01*
X327769Y175431D01*
X326675Y175884D01*
X325500Y176039D01*
D02*
G37*
G36*
X153403Y169000D02*
X150500D01*
Y166097D01*
X150544Y166103D01*
X151517Y166506D01*
X152353Y167147D01*
X152994Y167983D01*
X153397Y168956D01*
X153403Y169000D01*
D02*
G37*
G36*
X148500D02*
X145597D01*
X145603Y168956D01*
X146006Y167983D01*
X146647Y167147D01*
X147483Y166506D01*
X148456Y166103D01*
X148500Y166097D01*
Y169000D01*
D02*
G37*
G36*
X190500Y155535D02*
X189456Y155397D01*
X188483Y154994D01*
X187647Y154353D01*
X187006Y153517D01*
X186603Y152544D01*
X186466Y151500D01*
X186603Y150456D01*
X187006Y149483D01*
X187647Y148647D01*
X188483Y148006D01*
X189456Y147603D01*
X190500Y147466D01*
X191544Y147603D01*
X192517Y148006D01*
X193353Y148647D01*
X193994Y149483D01*
X194397Y150456D01*
X194535Y151500D01*
X194397Y152544D01*
X193994Y153517D01*
X193353Y154353D01*
X192517Y154994D01*
X191544Y155397D01*
X190500Y155535D01*
D02*
G37*
G36*
X114500Y152034D02*
X113456Y151897D01*
X112483Y151494D01*
X111647Y150853D01*
X111006Y150017D01*
X110603Y149044D01*
X110466Y148000D01*
X110603Y146956D01*
X111006Y145983D01*
X111647Y145147D01*
X112483Y144506D01*
X113456Y144103D01*
X114500Y143965D01*
X115544Y144103D01*
X116517Y144506D01*
X117353Y145147D01*
X117994Y145983D01*
X118397Y146956D01*
X118535Y148000D01*
X118397Y149044D01*
X117994Y150017D01*
X117353Y150853D01*
X116517Y151494D01*
X115544Y151897D01*
X114500Y152034D01*
D02*
G37*
G36*
X38864Y134986D02*
Y131923D01*
X41928D01*
X41917Y132009D01*
X41497Y133020D01*
X40831Y133889D01*
X39962Y134556D01*
X38950Y134975D01*
X38864Y134986D01*
D02*
G37*
G36*
X36864D02*
X36778Y134975D01*
X35767Y134556D01*
X34898Y133889D01*
X34231Y133020D01*
X33812Y132009D01*
X33801Y131923D01*
X36864D01*
Y134986D01*
D02*
G37*
G36*
X41928Y129923D02*
X38864D01*
Y126859D01*
X38950Y126870D01*
X39962Y127289D01*
X40831Y127956D01*
X41497Y128825D01*
X41917Y129837D01*
X41928Y129923D01*
D02*
G37*
G36*
X36864D02*
X33801D01*
X33812Y129837D01*
X34231Y128825D01*
X34898Y127956D01*
X35767Y127289D01*
X36778Y126870D01*
X36864Y126859D01*
Y129923D01*
D02*
G37*
G36*
X49675Y135622D02*
X48459Y135462D01*
X47325Y134993D01*
X46352Y134246D01*
X45605Y133273D01*
X45136Y132139D01*
X44976Y130923D01*
X45136Y129706D01*
X45605Y128573D01*
X46352Y127600D01*
X47325Y126853D01*
X48459Y126383D01*
X49675Y126223D01*
X50892Y126383D01*
X52025Y126853D01*
X52998Y127600D01*
X53745Y128573D01*
X54215Y129706D01*
X54375Y130923D01*
X54215Y132139D01*
X53745Y133273D01*
X52998Y134246D01*
X52025Y134993D01*
X50892Y135462D01*
X49675Y135622D01*
D02*
G37*
G36*
X163500Y124874D02*
Y122500D01*
X165874D01*
X165557Y123265D01*
X164996Y123996D01*
X164265Y124557D01*
X163500Y124874D01*
D02*
G37*
G36*
X161500Y124874D02*
X160735Y124557D01*
X160004Y123996D01*
X159443Y123265D01*
X159126Y122500D01*
X161500D01*
Y124874D01*
D02*
G37*
G36*
X165874Y120500D02*
X163500D01*
Y118126D01*
X164265Y118443D01*
X164996Y119004D01*
X165557Y119735D01*
X165874Y120500D01*
D02*
G37*
G36*
X161500D02*
X159126D01*
X159443Y119735D01*
X160004Y119004D01*
X160735Y118443D01*
X161500Y118126D01*
Y120500D01*
D02*
G37*
G36*
X20856Y132557D02*
X19385Y132413D01*
X17971Y131983D01*
X16667Y131287D01*
X15525Y130349D01*
X14587Y129206D01*
X13890Y127903D01*
X13461Y126488D01*
X13316Y125017D01*
X13461Y123546D01*
X13890Y122132D01*
X14587Y120828D01*
X15525Y119685D01*
X16667Y118748D01*
X17971Y118051D01*
X19385Y117622D01*
X20856Y117477D01*
X22327Y117622D01*
X23742Y118051D01*
X25045Y118748D01*
X26188Y119685D01*
X27126Y120828D01*
X27823Y122132D01*
X28252Y123546D01*
X28396Y125017D01*
X28252Y126488D01*
X27823Y127903D01*
X27126Y129206D01*
X26188Y130349D01*
X25045Y131287D01*
X23742Y131983D01*
X22327Y132413D01*
X20856Y132557D01*
D02*
G37*
G36*
X42524Y123771D02*
X33205D01*
Y114452D01*
X42524D01*
Y123771D01*
D02*
G37*
G36*
X49675Y123811D02*
X48459Y123651D01*
X47325Y123182D01*
X46352Y122435D01*
X45605Y121462D01*
X45136Y120328D01*
X44976Y119112D01*
X45136Y117895D01*
X45605Y116762D01*
X46352Y115789D01*
X47325Y115042D01*
X48459Y114572D01*
X49675Y114412D01*
X50892Y114572D01*
X52025Y115042D01*
X52998Y115789D01*
X53745Y116762D01*
X54215Y117895D01*
X54375Y119112D01*
X54215Y120328D01*
X53745Y121462D01*
X52998Y122435D01*
X52025Y123182D01*
X50892Y123651D01*
X49675Y123811D01*
D02*
G37*
G36*
X130500Y121035D02*
X129456Y120897D01*
X128483Y120494D01*
X127647Y119853D01*
X127006Y119017D01*
X126603Y118044D01*
X126465Y117000D01*
X126603Y115956D01*
X127006Y114983D01*
X127647Y114147D01*
X128483Y113506D01*
X129337Y113152D01*
X129392Y112766D01*
X129364Y112622D01*
X129255Y112577D01*
X128524Y112016D01*
X127962Y111285D01*
X127646Y110520D01*
X134394D01*
X134077Y111285D01*
X133516Y112016D01*
X132785Y112577D01*
X132183Y112826D01*
Y113367D01*
X132517Y113506D01*
X133353Y114147D01*
X133994Y114983D01*
X134397Y115956D01*
X134535Y117000D01*
X134397Y118044D01*
X133994Y119017D01*
X133353Y119853D01*
X132517Y120494D01*
X131544Y120897D01*
X130500Y121035D01*
D02*
G37*
G36*
X134394Y108520D02*
X132020D01*
Y106146D01*
X132785Y106462D01*
X133516Y107024D01*
X134077Y107755D01*
X134394Y108520D01*
D02*
G37*
G36*
X130020D02*
X127646D01*
X127962Y107755D01*
X128524Y107024D01*
X129255Y106462D01*
X130020Y106146D01*
Y108520D01*
D02*
G37*
G36*
X148866Y112901D02*
X147822Y112763D01*
X146849Y112360D01*
X146013Y111719D01*
X145372Y110883D01*
X144969Y109910D01*
X144832Y108866D01*
X144969Y107822D01*
X145372Y106849D01*
X146013Y106013D01*
X146849Y105372D01*
X147822Y104969D01*
X148866Y104832D01*
X149910Y104969D01*
X150883Y105372D01*
X151719Y106013D01*
X152360Y106849D01*
X152763Y107822D01*
X152901Y108866D01*
X152763Y109910D01*
X152360Y110883D01*
X151719Y111719D01*
X150883Y112360D01*
X149910Y112763D01*
X148866Y112901D01*
D02*
G37*
G36*
X99500Y106539D02*
X98325Y106384D01*
X97231Y105931D01*
X96291Y105209D01*
X95569Y104269D01*
X95116Y103175D01*
X94961Y102000D01*
X95116Y100825D01*
X95569Y99731D01*
X96291Y98791D01*
X97231Y98069D01*
X98325Y97616D01*
X99500Y97461D01*
X100675Y97616D01*
X101769Y98069D01*
X102709Y98791D01*
X103431Y99731D01*
X103884Y100825D01*
X104039Y102000D01*
X103884Y103175D01*
X103431Y104269D01*
X102709Y105209D01*
X101769Y105931D01*
X100675Y106384D01*
X99500Y106539D01*
D02*
G37*
G36*
Y89039D02*
X98325Y88884D01*
X97231Y88431D01*
X96291Y87709D01*
X95569Y86769D01*
X95116Y85675D01*
X94961Y84500D01*
X95116Y83325D01*
X95569Y82231D01*
X96291Y81291D01*
X97231Y80569D01*
X98325Y80116D01*
X99500Y79961D01*
X100675Y80116D01*
X101769Y80569D01*
X102709Y81291D01*
X103431Y82231D01*
X103884Y83325D01*
X104039Y84500D01*
X103884Y85675D01*
X103431Y86769D01*
X102709Y87709D01*
X101769Y88431D01*
X100675Y88884D01*
X99500Y89039D01*
D02*
G37*
G36*
X49819Y89060D02*
X48590Y88898D01*
X47444Y88424D01*
X46461Y87669D01*
X45706Y86686D01*
X45231Y85540D01*
X45070Y84311D01*
X45231Y83082D01*
X45706Y81936D01*
X46461Y80953D01*
X47444Y80198D01*
X48590Y79724D01*
X49819Y79562D01*
X51048Y79724D01*
X52193Y80198D01*
X53177Y80953D01*
X53932Y81936D01*
X54406Y83082D01*
X54568Y84311D01*
X54406Y85540D01*
X53932Y86686D01*
X53177Y87669D01*
X52193Y88424D01*
X51048Y88898D01*
X49819Y89060D01*
D02*
G37*
G36*
X38008D02*
X36779Y88898D01*
X35633Y88424D01*
X34650Y87669D01*
X33895Y86686D01*
X33420Y85540D01*
X33259Y84311D01*
X33420Y83082D01*
X33895Y81936D01*
X34650Y80953D01*
X35633Y80198D01*
X36779Y79724D01*
X38008Y79562D01*
X39237Y79724D01*
X40383Y80198D01*
X41366Y80953D01*
X42121Y81936D01*
X42595Y83082D01*
X42757Y84311D01*
X42595Y85540D01*
X42121Y86686D01*
X41366Y87669D01*
X40383Y88424D01*
X39237Y88898D01*
X38008Y89060D01*
D02*
G37*
G36*
X39008Y76613D02*
Y73500D01*
X42121D01*
X42108Y73599D01*
X41684Y74622D01*
X41010Y75502D01*
X40130Y76176D01*
X39107Y76600D01*
X39008Y76613D01*
D02*
G37*
G36*
X37008D02*
X36909Y76600D01*
X35885Y76176D01*
X35006Y75502D01*
X34332Y74622D01*
X33907Y73599D01*
X33895Y73500D01*
X37008D01*
Y76613D01*
D02*
G37*
G36*
X42121Y71500D02*
X39008D01*
Y68387D01*
X39107Y68400D01*
X40130Y68824D01*
X41010Y69498D01*
X41684Y70377D01*
X42108Y71401D01*
X42121Y71500D01*
D02*
G37*
G36*
X37008D02*
X33895D01*
X33907Y71401D01*
X34332Y70377D01*
X35006Y69498D01*
X35885Y68824D01*
X36909Y68400D01*
X37008Y68387D01*
Y71500D01*
D02*
G37*
G36*
X49819Y77249D02*
X48590Y77087D01*
X47444Y76613D01*
X46461Y75858D01*
X45706Y74875D01*
X45231Y73729D01*
X45070Y72500D01*
X45231Y71271D01*
X45706Y70125D01*
X46461Y69142D01*
X47444Y68387D01*
X48590Y67913D01*
X49819Y67751D01*
X51048Y67913D01*
X52193Y68387D01*
X53177Y69142D01*
X53932Y70125D01*
X54406Y71271D01*
X54568Y72500D01*
X54406Y73729D01*
X53932Y74875D01*
X53177Y75858D01*
X52193Y76613D01*
X51048Y77087D01*
X49819Y77249D01*
D02*
G37*
G36*
X21000Y79941D02*
X19548Y79798D01*
X18152Y79375D01*
X16866Y78687D01*
X15738Y77762D01*
X14813Y76634D01*
X14125Y75348D01*
X13702Y73952D01*
X13559Y72500D01*
X13702Y71048D01*
X14125Y69652D01*
X14813Y68366D01*
X15738Y67238D01*
X16866Y66313D01*
X18152Y65625D01*
X19548Y65202D01*
X21000Y65059D01*
X22452Y65202D01*
X23848Y65625D01*
X25134Y66313D01*
X26262Y67238D01*
X27187Y68366D01*
X27875Y69652D01*
X28298Y71048D01*
X28441Y72500D01*
X28298Y73952D01*
X27875Y75348D01*
X27187Y76634D01*
X26262Y77762D01*
X25134Y78687D01*
X23848Y79375D01*
X22452Y79798D01*
X21000Y79941D01*
D02*
G37*
G36*
X49819Y65438D02*
X48590Y65276D01*
X47444Y64802D01*
X46461Y64047D01*
X45706Y63064D01*
X45231Y61918D01*
X45070Y60689D01*
X45231Y59460D01*
X45706Y58314D01*
X46461Y57331D01*
X47444Y56576D01*
X48590Y56102D01*
X49819Y55940D01*
X51048Y56102D01*
X52193Y56576D01*
X53177Y57331D01*
X53932Y58314D01*
X54406Y59460D01*
X54568Y60689D01*
X54406Y61918D01*
X53932Y63064D01*
X53177Y64047D01*
X52193Y64802D01*
X51048Y65276D01*
X49819Y65438D01*
D02*
G37*
G36*
X38008D02*
X36779Y65276D01*
X35633Y64802D01*
X34650Y64047D01*
X33895Y63064D01*
X33420Y61918D01*
X33259Y60689D01*
X33420Y59460D01*
X33895Y58314D01*
X34650Y57331D01*
X35633Y56576D01*
X36779Y56102D01*
X38008Y55940D01*
X39237Y56102D01*
X40383Y56576D01*
X41366Y57331D01*
X42121Y58314D01*
X42595Y59460D01*
X42757Y60689D01*
X42595Y61918D01*
X42121Y63064D01*
X41366Y64047D01*
X40383Y64802D01*
X39237Y65276D01*
X38008Y65438D01*
D02*
G37*
%LPD*%
D27*
X660059Y71504D02*
Y84024D01*
X654859Y89224D02*
X660059Y84024D01*
X654859Y89224D02*
Y121704D01*
X630771Y84103D02*
X635359Y88691D01*
Y121783D01*
X630771Y71583D02*
Y84103D01*
X504859Y89200D02*
X510059Y84000D01*
Y71481D02*
Y84000D01*
X504859Y89200D02*
Y121681D01*
X484859Y88429D02*
Y121521D01*
X480271Y71321D02*
Y83841D01*
X484859Y88429D01*
X366859Y87251D02*
Y119731D01*
X372059Y69532D02*
Y82051D01*
X366859Y87251D02*
X372059Y82051D01*
X342271Y82018D02*
X346859Y86606D01*
Y119699D01*
X342271Y69498D02*
Y82018D01*
D35*
X182358Y59500D02*
X197000D01*
D36*
X176500Y98500D02*
X200000Y122000D01*
X176500Y65358D02*
Y98500D01*
Y65358D02*
X182358Y59500D01*
D37*
X20856Y313819D02*
D03*
Y368895D02*
D03*
Y180093D02*
D03*
Y125017D02*
D03*
X702644Y447500D02*
D03*
Y398594D02*
D03*
Y346500D02*
D03*
D38*
X49675Y319724D02*
D03*
Y307913D02*
D03*
X37864Y319724D02*
D03*
Y374800D02*
D03*
X49675Y362989D02*
D03*
Y374800D02*
D03*
Y185998D02*
D03*
Y174187D02*
D03*
X37864Y185998D02*
D03*
X49675Y130923D02*
D03*
Y119112D02*
D03*
X37864Y130923D02*
D03*
X685636Y441595D02*
D03*
X673825Y453406D02*
D03*
Y441595D02*
D03*
X685636Y392689D02*
D03*
X673825Y404500D02*
D03*
Y392689D02*
D03*
X685636Y340595D02*
D03*
X673825Y352406D02*
D03*
Y340595D02*
D03*
D39*
X37864Y307913D02*
D03*
Y362989D02*
D03*
Y174187D02*
D03*
Y119112D02*
D03*
X685636Y453406D02*
D03*
Y404500D02*
D03*
Y352406D02*
D03*
D40*
X200000Y122000D02*
D03*
X162500Y121500D02*
D03*
D41*
X325500Y171500D02*
D03*
Y191200D02*
D03*
X392000Y214700D02*
D03*
X382000Y234700D02*
D03*
X372000D02*
D03*
X362000D02*
D03*
X352000D02*
D03*
X342000D02*
D03*
X332000D02*
D03*
X322000D02*
D03*
Y124700D02*
D03*
X332000D02*
D03*
X342000D02*
D03*
X352000D02*
D03*
X362000D02*
D03*
X372000D02*
D03*
X149500Y170000D02*
D03*
X452500Y416500D02*
D03*
X242000Y113500D02*
D03*
X472500Y416500D02*
D03*
X563000Y47500D02*
D03*
X85500Y275500D02*
D03*
X614500Y173500D02*
D03*
Y193200D02*
D03*
X681000Y216700D02*
D03*
X671000Y236700D02*
D03*
X661000D02*
D03*
X651000D02*
D03*
X641000D02*
D03*
X631000D02*
D03*
X621000D02*
D03*
X611000D02*
D03*
Y126700D02*
D03*
X621000D02*
D03*
X631000D02*
D03*
X641000D02*
D03*
X651000D02*
D03*
X661000D02*
D03*
X254500Y373000D02*
D03*
X242000Y374000D02*
D03*
X659000Y256000D02*
D03*
X509500Y255000D02*
D03*
X382000Y256500D02*
D03*
X371000Y254000D02*
D03*
X668000Y256000D02*
D03*
X638500Y352500D02*
D03*
Y390000D02*
D03*
X641000Y420500D02*
D03*
X87000Y414500D02*
D03*
X87500Y432000D02*
D03*
X99500Y84500D02*
D03*
Y102000D02*
D03*
X85000Y251500D02*
D03*
X284000Y306000D02*
D03*
X369500Y321500D02*
D03*
X370000Y341500D02*
D03*
X335500Y283500D02*
D03*
X632500Y278000D02*
D03*
X343472Y421500D02*
D03*
X402528D02*
D03*
X519000Y254500D02*
D03*
X510500Y126200D02*
D03*
X500500D02*
D03*
X490500D02*
D03*
X480500D02*
D03*
X470500D02*
D03*
X460500D02*
D03*
Y236200D02*
D03*
X470500D02*
D03*
X480500D02*
D03*
X490500D02*
D03*
X500500D02*
D03*
X510500D02*
D03*
X520500D02*
D03*
X530500Y216200D02*
D03*
X464000Y192700D02*
D03*
Y173000D02*
D03*
X197000Y59500D02*
D03*
Y49500D02*
D03*
Y39500D02*
D03*
Y29500D02*
D03*
Y19500D02*
D03*
X155000D02*
D03*
X193000Y75500D02*
D03*
X141000Y23500D02*
D03*
D42*
X386500Y118700D02*
D03*
X675500Y120700D02*
D03*
X525000Y120200D02*
D03*
D43*
X366800Y118700D02*
D03*
X347100D02*
D03*
X327400D02*
D03*
X655800Y120700D02*
D03*
X636100D02*
D03*
X616400D02*
D03*
X465900Y120200D02*
D03*
X485600D02*
D03*
X505300D02*
D03*
D44*
X392000Y224700D02*
D03*
Y234700D02*
D03*
X382000Y124700D02*
D03*
X392000D02*
D03*
X681000Y226700D02*
D03*
Y236700D02*
D03*
X671000Y126700D02*
D03*
X681000D02*
D03*
X530500Y126200D02*
D03*
X520500D02*
D03*
X530500Y236200D02*
D03*
Y226200D02*
D03*
D45*
X272400Y76000D02*
D03*
X243000D02*
D03*
D46*
X291000Y18500D02*
D03*
X223500D02*
D03*
D47*
X372000Y68500D02*
D03*
Y81020D02*
D03*
X342512Y68500D02*
D03*
Y81020D02*
D03*
X480000Y82520D02*
D03*
Y70000D02*
D03*
X509488Y82520D02*
D03*
Y70000D02*
D03*
X660000Y70500D02*
D03*
Y83020D02*
D03*
X630512Y70500D02*
D03*
Y83020D02*
D03*
D48*
X685492Y278189D02*
D03*
Y290000D02*
D03*
Y301811D02*
D03*
X673681D02*
D03*
Y290000D02*
D03*
Y278189D02*
D03*
X38008Y442311D02*
D03*
Y430500D02*
D03*
Y418689D02*
D03*
X49819D02*
D03*
Y430500D02*
D03*
Y442311D02*
D03*
X38008Y84311D02*
D03*
Y72500D02*
D03*
Y60689D02*
D03*
X49819D02*
D03*
Y72500D02*
D03*
Y84311D02*
D03*
D49*
X83142Y233795D02*
D03*
Y208205D02*
D03*
X100858D02*
D03*
Y233795D02*
D03*
D50*
X37689Y268500D02*
D03*
X37864Y226057D02*
D03*
D51*
X49500Y268500D02*
D03*
X49675Y226057D02*
D03*
D52*
X20681Y268500D02*
D03*
X20856Y226057D02*
D03*
D53*
X89823Y188028D02*
D03*
X94823D02*
D03*
X89823Y183028D02*
D03*
X94823D02*
D03*
X89823Y178028D02*
D03*
X94823D02*
D03*
X89823Y173028D02*
D03*
X94823D02*
D03*
X89823Y168028D02*
D03*
D54*
X94823D02*
D03*
D55*
X187000Y195000D02*
D03*
Y205000D02*
D03*
Y215000D02*
D03*
Y225000D02*
D03*
X208000Y406000D02*
D03*
Y396000D02*
D03*
D56*
X187000Y235000D02*
D03*
X208000Y416000D02*
D03*
D57*
X475500Y314500D02*
D03*
X305500Y283500D02*
D03*
X539000Y282500D02*
D03*
X470500Y301500D02*
D03*
X511000Y282000D02*
D03*
X510500Y290000D02*
D03*
X265000Y249500D02*
D03*
X139500Y36500D02*
D03*
X190500Y151500D02*
D03*
X416514Y348000D02*
D03*
X430500Y346000D02*
D03*
X557000Y253500D02*
D03*
X227500Y289000D02*
D03*
X216500Y324500D02*
D03*
X61000Y408500D02*
D03*
X71000Y383500D02*
D03*
X72000Y349000D02*
D03*
X120514Y328486D02*
D03*
X114500Y148000D02*
D03*
X275000Y297000D02*
D03*
X125000Y223000D02*
D03*
X326000Y273000D02*
D03*
X267500Y282500D02*
D03*
X325500Y281500D02*
D03*
X285000Y274500D02*
D03*
X304500Y276000D02*
D03*
X286500Y286500D02*
D03*
X218889Y373389D02*
D03*
X215000Y369500D02*
D03*
X425500Y273500D02*
D03*
X418000Y304500D02*
D03*
X308000Y369500D02*
D03*
X279000Y333000D02*
D03*
X277465Y339535D02*
D03*
X281500Y370500D02*
D03*
X240000Y328000D02*
D03*
X248500Y428000D02*
D03*
X245000Y399000D02*
D03*
X218500Y425000D02*
D03*
X142000Y384500D02*
D03*
X150000Y385500D02*
D03*
X158500Y386500D02*
D03*
X166500Y387000D02*
D03*
X391000Y311500D02*
D03*
X424000Y325000D02*
D03*
X467000Y315000D02*
D03*
X471000Y329000D02*
D03*
X423500Y362000D02*
D03*
X453000Y364000D02*
D03*
X216626Y251000D02*
D03*
X211126D02*
D03*
X205626D02*
D03*
X353000Y311000D02*
D03*
X318055Y311555D02*
D03*
X137000Y402500D02*
D03*
X166500Y442000D02*
D03*
X158000D02*
D03*
X149500Y442000D02*
D03*
X141500Y437000D02*
D03*
X116436Y178028D02*
D03*
X216500Y305000D02*
D03*
X131020Y109520D02*
D03*
X148866Y108866D02*
D03*
X130500Y117000D02*
D03*
X123634Y38634D02*
D03*
X243000Y173500D02*
D03*
X522000Y272400D02*
D03*
X489500Y275000D02*
D03*
X509500Y302500D02*
D03*
X585866Y245634D02*
D03*
X436000Y244000D02*
D03*
X416000Y252000D02*
D03*
X305183Y249683D02*
D03*
X165000Y262500D02*
D03*
X164500Y270000D02*
D03*
D58*
X710000Y485000D02*
D03*
X15000D02*
D03*
X710000Y15000D02*
D03*
X15000D02*
D03*
%TF.MD5,b32eb0c02aafd1d084fa41379d69fbb4*%
M02*
