%TF.GenerationSoftware,Altium Limited,Altium Designer,20.1.14 (287)*%
G04 Layer_Color=128*
%FSLAX25Y25*%
%MOIN*%
%TF.SameCoordinates,420D9B4C-C7A0-47ED-81AF-82C992674030*%
%TF.FilePolarity,Positive*%
%TF.FileFunction,Paste,Bot*%
%TF.Part,Single*%
G01*
G75*
%TA.AperFunction,SMDPad,CuDef*%
%ADD10R,0.04134X0.05512*%
%ADD11R,0.05512X0.04134*%
G04:AMPARAMS|DCode=59|XSize=55.12mil|YSize=41.34mil|CornerRadius=0mil|HoleSize=0mil|Usage=FLASHONLY|Rotation=45.000|XOffset=0mil|YOffset=0mil|HoleType=Round|Shape=Rectangle|*
%AMROTATEDRECTD59*
4,1,4,-0.00487,-0.03410,-0.03410,-0.00487,0.00487,0.03410,0.03410,0.00487,-0.00487,-0.03410,0.0*
%
%ADD59ROTATEDRECTD59*%

G04:AMPARAMS|DCode=60|XSize=55.12mil|YSize=41.34mil|CornerRadius=0mil|HoleSize=0mil|Usage=FLASHONLY|Rotation=315.000|XOffset=0mil|YOffset=0mil|HoleType=Round|Shape=Rectangle|*
%AMROTATEDRECTD60*
4,1,4,-0.03410,0.00487,-0.00487,0.03410,0.03410,-0.00487,0.00487,-0.03410,-0.03410,0.00487,0.0*
%
%ADD60ROTATEDRECTD60*%

D10*
X442260Y287000D02*
D03*
X449740D02*
D03*
X423260D02*
D03*
X430740D02*
D03*
X401260D02*
D03*
X408740D02*
D03*
X248240Y410500D02*
D03*
X240760D02*
D03*
X570291Y237366D02*
D03*
X577772D02*
D03*
X577772Y245634D02*
D03*
X570291D02*
D03*
X430980Y244000D02*
D03*
X423500D02*
D03*
X423760Y235500D02*
D03*
X431240D02*
D03*
X296683Y249683D02*
D03*
X289203D02*
D03*
X289183Y241183D02*
D03*
X296663D02*
D03*
X443240Y322500D02*
D03*
X435760D02*
D03*
X443240Y314500D02*
D03*
X435760D02*
D03*
X435760Y339000D02*
D03*
X443240D02*
D03*
X443480Y331000D02*
D03*
X436000D02*
D03*
X434020Y364000D02*
D03*
X441500D02*
D03*
X338480Y312000D02*
D03*
X331000D02*
D03*
D11*
X403000Y218260D02*
D03*
Y225740D02*
D03*
X65000Y80480D02*
D03*
Y73000D02*
D03*
X540500Y219760D02*
D03*
Y227240D02*
D03*
X316500Y281500D02*
D03*
Y274020D02*
D03*
X294500D02*
D03*
Y281500D02*
D03*
X220500Y409760D02*
D03*
Y417240D02*
D03*
X278000Y274020D02*
D03*
Y281500D02*
D03*
X695000Y226740D02*
D03*
Y219260D02*
D03*
X158000Y421240D02*
D03*
Y413760D02*
D03*
X166500Y421240D02*
D03*
Y413760D02*
D03*
X149500Y421240D02*
D03*
Y413760D02*
D03*
X141500Y421240D02*
D03*
Y413760D02*
D03*
X216500Y290760D02*
D03*
Y298240D02*
D03*
X60000Y436520D02*
D03*
Y444000D02*
D03*
X174000Y270240D02*
D03*
Y262760D02*
D03*
X115000Y30760D02*
D03*
Y38240D02*
D03*
X139000Y109520D02*
D03*
Y117000D02*
D03*
X112000Y225240D02*
D03*
Y217760D02*
D03*
D59*
X204855Y315645D02*
D03*
X210145Y310355D02*
D03*
D60*
X227645Y315145D02*
D03*
X222355Y309855D02*
D03*
%TF.MD5,edfdf0f1ca4b98de1389b8185dc19839*%
M02*
