%TF.GenerationSoftware,Altium Limited,Altium Designer,20.1.14 (287)*%
G04 Layer_Color=255*
%FSLAX25Y25*%
%MOIN*%
%TF.SameCoordinates,420D9B4C-C7A0-47ED-81AF-82C992674030*%
%TF.FilePolarity,Positive*%
%TF.FileFunction,Pads,Bot*%
%TF.Part,Single*%
G01*
G75*
%TA.AperFunction,SMDPad,CuDef*%
%ADD10R,0.04134X0.05512*%
%ADD11R,0.05512X0.04134*%
%TA.AperFunction,ComponentPad*%
%ADD37C,0.12008*%
%ADD38C,0.06319*%
%ADD39R,0.06319X0.06319*%
%ADD40C,0.05000*%
%ADD41C,0.06000*%
%ADD42R,0.12000X0.12000*%
%ADD43C,0.12000*%
%ADD44R,0.06000X0.06000*%
%ADD45O,0.09900X0.26300*%
%ADD46C,0.15000*%
%ADD47C,0.10984*%
%ADD48C,0.06417*%
%ADD49C,0.05898*%
%ADD50R,0.06024X0.06024*%
%ADD51C,0.06024*%
%ADD52C,0.11811*%
%ADD53C,0.04000*%
%ADD54R,0.04000X0.04000*%
%ADD55C,0.06102*%
%ADD56R,0.06102X0.06102*%
%TA.AperFunction,SMDPad,CuDef*%
G04:AMPARAMS|DCode=59|XSize=55.12mil|YSize=41.34mil|CornerRadius=0mil|HoleSize=0mil|Usage=FLASHONLY|Rotation=45.000|XOffset=0mil|YOffset=0mil|HoleType=Round|Shape=Rectangle|*
%AMROTATEDRECTD59*
4,1,4,-0.00487,-0.03410,-0.03410,-0.00487,0.00487,0.03410,0.03410,0.00487,-0.00487,-0.03410,0.0*
%
%ADD59ROTATEDRECTD59*%

G04:AMPARAMS|DCode=60|XSize=55.12mil|YSize=41.34mil|CornerRadius=0mil|HoleSize=0mil|Usage=FLASHONLY|Rotation=315.000|XOffset=0mil|YOffset=0mil|HoleType=Round|Shape=Rectangle|*
%AMROTATEDRECTD60*
4,1,4,-0.03410,0.00487,-0.00487,0.03410,0.03410,-0.00487,0.00487,-0.03410,-0.03410,0.00487,0.0*
%
%ADD60ROTATEDRECTD60*%

D10*
X442260Y287000D02*
D03*
X449740D02*
D03*
X423260D02*
D03*
X430740D02*
D03*
X401260D02*
D03*
X408740D02*
D03*
X248240Y410500D02*
D03*
X240760D02*
D03*
X570291Y237366D02*
D03*
X577772D02*
D03*
X577772Y245634D02*
D03*
X570291D02*
D03*
X430980Y244000D02*
D03*
X423500D02*
D03*
X423760Y235500D02*
D03*
X431240D02*
D03*
X296683Y249683D02*
D03*
X289203D02*
D03*
X289183Y241183D02*
D03*
X296663D02*
D03*
X443240Y322500D02*
D03*
X435760D02*
D03*
X443240Y314500D02*
D03*
X435760D02*
D03*
X435760Y339000D02*
D03*
X443240D02*
D03*
X443480Y331000D02*
D03*
X436000D02*
D03*
X434020Y364000D02*
D03*
X441500D02*
D03*
X338480Y312000D02*
D03*
X331000D02*
D03*
D11*
X403000Y218260D02*
D03*
Y225740D02*
D03*
X65000Y80480D02*
D03*
Y73000D02*
D03*
X540500Y219760D02*
D03*
Y227240D02*
D03*
X316500Y281500D02*
D03*
Y274020D02*
D03*
X294500D02*
D03*
Y281500D02*
D03*
X220500Y409760D02*
D03*
Y417240D02*
D03*
X278000Y274020D02*
D03*
Y281500D02*
D03*
X695000Y226740D02*
D03*
Y219260D02*
D03*
X158000Y421240D02*
D03*
Y413760D02*
D03*
X166500Y421240D02*
D03*
Y413760D02*
D03*
X149500Y421240D02*
D03*
Y413760D02*
D03*
X141500Y421240D02*
D03*
Y413760D02*
D03*
X216500Y290760D02*
D03*
Y298240D02*
D03*
X60000Y436520D02*
D03*
Y444000D02*
D03*
X174000Y270240D02*
D03*
Y262760D02*
D03*
X115000Y30760D02*
D03*
Y38240D02*
D03*
X139000Y109520D02*
D03*
Y117000D02*
D03*
X112000Y225240D02*
D03*
Y217760D02*
D03*
D37*
X20856Y313819D02*
D03*
Y368895D02*
D03*
Y180093D02*
D03*
Y125017D02*
D03*
X702644Y447500D02*
D03*
Y398594D02*
D03*
Y346500D02*
D03*
D38*
X49675Y319724D02*
D03*
Y307913D02*
D03*
X37864Y319724D02*
D03*
Y374800D02*
D03*
X49675Y362989D02*
D03*
Y374800D02*
D03*
Y185998D02*
D03*
Y174187D02*
D03*
X37864Y185998D02*
D03*
X49675Y130923D02*
D03*
Y119112D02*
D03*
X37864Y130923D02*
D03*
X685636Y441595D02*
D03*
X673825Y453406D02*
D03*
Y441595D02*
D03*
X685636Y392689D02*
D03*
X673825Y404500D02*
D03*
Y392689D02*
D03*
X685636Y340595D02*
D03*
X673825Y352406D02*
D03*
Y340595D02*
D03*
D39*
X37864Y307913D02*
D03*
Y362989D02*
D03*
Y174187D02*
D03*
Y119112D02*
D03*
X685636Y453406D02*
D03*
Y404500D02*
D03*
Y352406D02*
D03*
D40*
X200000Y122000D02*
D03*
X162500Y121500D02*
D03*
D41*
X325500Y171500D02*
D03*
Y191200D02*
D03*
X392000Y214700D02*
D03*
X382000Y234700D02*
D03*
X372000D02*
D03*
X362000D02*
D03*
X352000D02*
D03*
X342000D02*
D03*
X332000D02*
D03*
X322000D02*
D03*
Y124700D02*
D03*
X332000D02*
D03*
X342000D02*
D03*
X352000D02*
D03*
X362000D02*
D03*
X372000D02*
D03*
X149500Y170000D02*
D03*
X452500Y416500D02*
D03*
X242000Y113500D02*
D03*
X472500Y416500D02*
D03*
X563000Y47500D02*
D03*
X85500Y275500D02*
D03*
X614500Y173500D02*
D03*
Y193200D02*
D03*
X681000Y216700D02*
D03*
X671000Y236700D02*
D03*
X661000D02*
D03*
X651000D02*
D03*
X641000D02*
D03*
X631000D02*
D03*
X621000D02*
D03*
X611000D02*
D03*
Y126700D02*
D03*
X621000D02*
D03*
X631000D02*
D03*
X641000D02*
D03*
X651000D02*
D03*
X661000D02*
D03*
X254500Y373000D02*
D03*
X242000Y374000D02*
D03*
X659000Y256000D02*
D03*
X509500Y255000D02*
D03*
X382000Y256500D02*
D03*
X371000Y254000D02*
D03*
X668000Y256000D02*
D03*
X638500Y352500D02*
D03*
Y390000D02*
D03*
X641000Y420500D02*
D03*
X87000Y414500D02*
D03*
X87500Y432000D02*
D03*
X99500Y84500D02*
D03*
Y102000D02*
D03*
X85000Y251500D02*
D03*
X284000Y306000D02*
D03*
X369500Y321500D02*
D03*
X370000Y341500D02*
D03*
X335500Y283500D02*
D03*
X632500Y278000D02*
D03*
X343472Y421500D02*
D03*
X402528D02*
D03*
X519000Y254500D02*
D03*
X510500Y126200D02*
D03*
X500500D02*
D03*
X490500D02*
D03*
X480500D02*
D03*
X470500D02*
D03*
X460500D02*
D03*
Y236200D02*
D03*
X470500D02*
D03*
X480500D02*
D03*
X490500D02*
D03*
X500500D02*
D03*
X510500D02*
D03*
X520500D02*
D03*
X530500Y216200D02*
D03*
X464000Y192700D02*
D03*
Y173000D02*
D03*
X197000Y59500D02*
D03*
Y49500D02*
D03*
Y39500D02*
D03*
Y29500D02*
D03*
Y19500D02*
D03*
X155000D02*
D03*
X193000Y75500D02*
D03*
X141000Y23500D02*
D03*
D42*
X386500Y118700D02*
D03*
X675500Y120700D02*
D03*
X525000Y120200D02*
D03*
D43*
X366800Y118700D02*
D03*
X347100D02*
D03*
X327400D02*
D03*
X655800Y120700D02*
D03*
X636100D02*
D03*
X616400D02*
D03*
X465900Y120200D02*
D03*
X485600D02*
D03*
X505300D02*
D03*
D44*
X392000Y224700D02*
D03*
Y234700D02*
D03*
X382000Y124700D02*
D03*
X392000D02*
D03*
X681000Y226700D02*
D03*
Y236700D02*
D03*
X671000Y126700D02*
D03*
X681000D02*
D03*
X530500Y126200D02*
D03*
X520500D02*
D03*
X530500Y236200D02*
D03*
Y226200D02*
D03*
D45*
X272400Y76000D02*
D03*
X243000D02*
D03*
D46*
X291000Y18500D02*
D03*
X223500D02*
D03*
D47*
X372000Y68500D02*
D03*
Y81020D02*
D03*
X342512Y68500D02*
D03*
Y81020D02*
D03*
X480000Y82520D02*
D03*
Y70000D02*
D03*
X509488Y82520D02*
D03*
Y70000D02*
D03*
X660000Y70500D02*
D03*
Y83020D02*
D03*
X630512Y70500D02*
D03*
Y83020D02*
D03*
D48*
X685492Y278189D02*
D03*
Y290000D02*
D03*
Y301811D02*
D03*
X673681D02*
D03*
Y290000D02*
D03*
Y278189D02*
D03*
X38008Y442311D02*
D03*
Y430500D02*
D03*
Y418689D02*
D03*
X49819D02*
D03*
Y430500D02*
D03*
Y442311D02*
D03*
X38008Y84311D02*
D03*
Y72500D02*
D03*
Y60689D02*
D03*
X49819D02*
D03*
Y72500D02*
D03*
Y84311D02*
D03*
D49*
X83142Y233795D02*
D03*
Y208205D02*
D03*
X100858D02*
D03*
Y233795D02*
D03*
D50*
X37689Y268500D02*
D03*
X37864Y226057D02*
D03*
D51*
X49500Y268500D02*
D03*
X49675Y226057D02*
D03*
D52*
X20681Y268500D02*
D03*
X20856Y226057D02*
D03*
D53*
X89823Y188028D02*
D03*
X94823D02*
D03*
X89823Y183028D02*
D03*
X94823D02*
D03*
X89823Y178028D02*
D03*
X94823D02*
D03*
X89823Y173028D02*
D03*
X94823D02*
D03*
X89823Y168028D02*
D03*
D54*
X94823D02*
D03*
D55*
X187000Y195000D02*
D03*
Y205000D02*
D03*
Y215000D02*
D03*
Y225000D02*
D03*
X208000Y406000D02*
D03*
Y396000D02*
D03*
D56*
X187000Y235000D02*
D03*
X208000Y416000D02*
D03*
D59*
X204855Y315645D02*
D03*
X210145Y310355D02*
D03*
D60*
X227645Y315145D02*
D03*
X222355Y309855D02*
D03*
%TF.MD5,edca8770c9f9c757214e8fed10b01094*%
M02*
